<mxfile host="app.diagrams.net" modified="2024-06-26T22:12:54.820Z" agent="Mozilla/5.0 (X11; Linux x86_64) AppleWebKit/537.36 (KHTML, like Gecko) Chrome/126.0.0.0 Safari/537.36" etag="VUBW46PLzTV9C6XmGC27" version="24.6.3" type="github">
  <diagram name="Page-1" id="8_RgSXNnBriWRxuThv1n">
    <mxGraphModel dx="2722" dy="-3012" grid="1" gridSize="10" guides="1" tooltips="1" connect="1" arrows="1" fold="1" page="1" pageScale="1" pageWidth="850" pageHeight="1100" math="0" shadow="0">
      <root>
        <mxCell id="0" />
        <mxCell id="1" parent="0" />
        <mxCell id="Ad-eanvACwM0OZeesIjt-1" value="" style="rounded=0;whiteSpace=wrap;html=1;" vertex="1" parent="1">
          <mxGeometry x="70" y="4810" width="2310" height="1170" as="geometry" />
        </mxCell>
        <mxCell id="Ad-eanvACwM0OZeesIjt-2" value="&lt;h1 style=&quot;box-sizing: border-box; line-height: 48px; margin: 0px; border: 0px; padding: 0px; margin-block: 0px; font-family: GeneralGrotesque-Regular, &amp;quot;Helvetica Neue&amp;quot;, helvetica, roboto, arial, sans-serif; background-color: rgb(255, 255, 255);&quot; data-v-a1ed169a=&quot;&quot;&gt;&lt;span style=&quot;font-size: 15px;&quot;&gt;Mini Smart Router Gl iNet&lt;/span&gt;&lt;/h1&gt;" style="text;whiteSpace=wrap;html=1;" vertex="1" parent="1">
          <mxGeometry x="1250.0000000000002" y="5102.07" width="195.09" height="50" as="geometry" />
        </mxCell>
        <mxCell id="Ad-eanvACwM0OZeesIjt-3" value="&lt;h1 style=&quot;box-sizing: border-box; line-height: 48px; margin: 0px; border: 0px; padding: 0px; margin-block: 0px; font-family: GeneralGrotesque-Regular, &amp;quot;Helvetica Neue&amp;quot;, helvetica, roboto, arial, sans-serif; background-color: rgb(255, 255, 255);&quot; data-v-a1ed169a=&quot;&quot;&gt;&lt;font style=&quot;font-size: 15px;&quot;&gt;SCD4x COâ‚‚ Gadgets&lt;/font&gt;&lt;/h1&gt;" style="text;whiteSpace=wrap;html=1;" vertex="1" parent="1">
          <mxGeometry x="210" y="5116.45" width="150" height="60" as="geometry" />
        </mxCell>
        <mxCell id="Ad-eanvACwM0OZeesIjt-4" value="&lt;h1 style=&quot;box-sizing: border-box; line-height: 48px; margin: 0px; border: 0px; padding: 0px; margin-block: 0px; font-family: GeneralGrotesque-Regular, &amp;quot;Helvetica Neue&amp;quot;, helvetica, roboto, arial, sans-serif; background-color: rgb(255, 255, 255);&quot; data-v-a1ed169a=&quot;&quot;&gt;&lt;font style=&quot;font-size: 15px;&quot;&gt;Raspberry Pi 4&lt;/font&gt;&lt;/h1&gt;" style="text;whiteSpace=wrap;html=1;" vertex="1" parent="1">
          <mxGeometry x="850" y="5096.89" width="115" height="50" as="geometry" />
        </mxCell>
        <mxCell id="Ad-eanvACwM0OZeesIjt-5" value="" style="group;fillColor=#ffe6cc;strokeColor=#d79b00;container=0;" vertex="1" connectable="0" parent="1">
          <mxGeometry x="145" y="5510" width="280" height="170" as="geometry" />
        </mxCell>
        <mxCell id="Ad-eanvACwM0OZeesIjt-6" value="" style="shape=image;verticalLabelPosition=bottom;labelBackgroundColor=default;verticalAlign=top;aspect=fixed;imageAspect=0;image=data:image/png,iVBORw0KGgoAAAANSUhEUgAAASwAAACoCAMAAABt9SM9AAAAyVBMVEX/////00I2c6VkZGQ5cqJfX19aWlo6cqFXV1dTU1P/0TeHh4f/0CwaZ57/5qPp6emzs7P/+/CdnZ3/67f/11zJycnL1+P29vb/23FnZ2d7mbZrkbW0xthsbGwaZZz/4Ih9fX3c4+uqqqri4uK7u7vQ0ND/2WX/9NqNjY3w8PCXl5fCwsL/1En/+Oj/7sP/zyJbh7D/8tD/3n7/9uH/45b/6Ky7ytqXsMlGe6leibGKpsLR2+eiuM4qaZtNf6q2xtgAWpT/5JxISEiuetEyAAAKHklEQVR4nO2d+0ObOhTHwQIFpKWiFbW2Vlq0D7XqNl9Xtrv9/3/UTcK7JRC69MaGfP1hpaRpzsdzDnk6SRLaX7n2daQ566Z8YV2/vF787Iw6qUadt8Hrr2vWDftqml8OAJzgYFMBYDa4FE6W6OVxVMQpQ2z0+MK6kV9Dp0qnlFSozoHAJUkXIwJUCNfAZd1W1norD8B8NNqsW8tWjzVYAedqdKL/jNJVRxm8kYTjG+sGs1TE6g32pebv1V4WvLJuMTudhrCU6PK9EpbSYdpepvpEvtQ5jS7nFZGoHChBczsQlyGs5PqtyrGU4INhc9nqMgzD5HpQgUpRDgYMm8tWIaxRcq0IWHiFsDq/osvrsnGPoghYiFbU1yxPWQJWyCG4BBen1agELERrVDybtc5KwCJQCErAImYVSsAiZyU8i5xVo2Fl13JyKkbV6DC0TzH65x1Dq8GehdcgQ+pAeFa5Bhte1RaehdOgKAbbkWd1r2J9Pz5i3dLd6fTjEZfSCxJ80hXNuBaEdWamWt3csjZqJ3JfK8Y0ZX2GbM46k7OynlkbtgO91CNViCrMWXlYsilzF4sXpOPAIljtMlgAF2e0BjVZ5R2qnfxbCEu+Y20eVX3UZbX5HMTlLORaV6wNpKjTujGYTmC1c6wwsOQVR8/Ev4nBdgYVLgxl+YS1idT0SuE5CEm18bCsJ9ZGUpJLugWrDFYbwWrjYJlnrK2kpE8qjgUDEu9Z8oqT7sNWfrXODPlVW7mQMLDMY9ZmUlHp2mm5X7XXULXRnqNiWHzEYZ0ozDtVO8sNCe2iOSmCJVus7aSix239KocqpDWCi9dWMaxvrA2lIfJnITa1R2HYbr+D+u6LYXGRtMhTFia1xyEIoxDue3swi2F9Z20pBb2QpqyEzXqST1i1H2GFz8WwZB4yPGl+x8dgQitA222Ko5CPqYePrWBF4+d2mttBdkcHxH5gHIuLx2H53sdKx0rzVTs8TIdzLC5gEfUcCrJ6PmMFo2gL/BnOsWSLgwFP1RbkTWzR0ir4OYD/BkEw+vkZnXLqYh1Ltu7ZGkpDlbA6o+DxokQfn6fJmZ0SVrLFwQRgRX4fvf8iP750VsKKf1idR/Ij0EddC5uveIFV6laXmYJHeN3fPnRvVqWo+IBVkrNG8amdb90z0ypXBSmZj5H0T3wMRqcFHu4ss5pFNSwOnob4g3EX6P79SVnWrgOLg37WBTYIUdfpYUUHlSyvWFtKQbh1sPBUKj1WsszaUgrCzTqM4Fn6e4qsblhbSkG4pfuf8OYNhcQeiYv9DpiZUhSFt5RyO4L1g7WlNFQ8B49miK/oORYXfVLcHE0HjnMosuJiOgvzOFQ6LnadZitxssj6T0HSUhR4MvqJJiweVsKkot1ZSgjrmGIY8tAlhdpYslDowzJ52eB9PdpkRRvWioMph1DvO4fFjWOtuVa0bEMXFg8zDrEugnVWdGFZD6wtpKlgnRVVWBYPe0JSxYGo7AKWxcMQOqvTUZ5VG/4hKDqwVlyMoHO6DoIDJV5spudZpnXCTachq4tRQByGJpms1TMvhwXWZb8qo04A/4hyJwj+lUpgmV0iHXMxK4OVe51IKoHFx3QLXQlYNSRg1RA+wZ/gxM8YsK7qdx04mQ/dRlv0swQsAYtAAlYNEcIyMxuSBKxyWc/d73dxSR42NGwnEljmDZoEPbYErGpY8Ymc6BQKP3+SoK4IYJnJhLHccFjYM0up0pWIcBNJc2EReJaAFYtge1a6keik4WFIsOUoGQxGYJvbz5J+E8RhF5U8ith1GbeYpQj6DtbNw7en31HA8vJHVLbSE8luZTM5jGL9Zt1gpjqus7fbbG7/PdQTwRGmOCAbnN0jHd2QbZY0Lf5WnrfQ00m1d5mrqybn9qxur8wSXqZp3f0QqDK6/XEGj2BmJ/rQAr21urt6EKQ2dXR73P3+fHYTrnqdPV/9Pn7ictuHkJCQkJAQgSZOo//L6DpyVN0QsAiltVq6gEUoVcAil4BVQwJWleaT5CVVWBNv7C2nniSNbVpVMpa7HP/pJ1eUPWshSb1DyW1Nqovuhca6qu0UVm8+7fEC61Bt7RSWZ0+9pYBFoBmAJR32pwIWgUBVLvxx6VXJVDuFxZsaDcv1p57j9fp5z5/3cOWxsFy7oHc0mXoLp+djvhdz64vK7Q0NTVOBNMNJcU3HhpottvxjGGP4wvljADwtzTCMP6h4BMudjnUgY9yXcp9r6VHli7z7zb30exf7kaBcB5iuatBMYLSqxZ5hg7fPswX7Wks9hC8cWBAUBUphue7CQIaDG/phpvqhDt/RAbCWaizTG/OFASjphqFrsDJ9H559E2C5pju+7bp2DzZbi37HNjCyGJbv9YbAvEXP87wYlurpqqqfL5wZJKkltOaAnqr2JnN7OQa1G158owdQGQsf+Np8eQ7hG1/ftyYGMHQaX7nwdzwOX+NhSQU5qwVNR07pjqGjxTdboOAiej0F3xX71hBWlkTlDOKeUTRrNwLOpDrpJWQXGVoTlj5OTIcxOgxfLtQshCn0rbAY/J5M3UPoWjTs2anWYKHfcWhoPVjaNFewZSAvm6wxAU4XVQFvZOLOh5OtX36WYR0WajXKtfVg5fpZ4JMa6g0A9KqXuTHRY4xrsFx9H2FBK0L7/gLWGMBaRpXln3JqXPsaLHS9f7Dgcw4h+QtY8V3opvlMBHPYGL7gAxZMWijNUIAFuyK5KsIUD1/wActRoy4PBViOmnRE0jrConzA8mLLKcCaqeknQiXPD45gwWYLWBvaKazNMPT5CkOHYhhC8PkEv+QrwcOnITKHAqz+RtehF+PjA9YwHthRgGVvdEphFkNfxwUsF/bg0RsQlpYtWh8WJK/lZlthykIDIS5gLRNzIKycPVvAgn3QYeYGHBuGs69cwIJRGAWfkZ9LyMGakcFKPSn92DSufD9hjdNWe1o6cTdW8wYsMr0mLzedgIe1BK7USt739ZYaOdq+wmqpuhe129NbKRA4GRVNtQBN0ex6ci+JJyg8LOkw88vw9WTub49hqaox9pZLR4UXaY6B6Fr6ENzpzXRgdAYWmsYbxiBLYElj8EGtN7Ftfwb8yoifjfsKS104BlyO0sLZ4czNKVryAnc0VdVVJzd4GcOHpaHHCxYGDpaEFo/Q6o6qDxMextoKxd7AciTb0XSARDOGy9xde2bA93Vj6PlwNlNdpPeWQ0PXw6Ww8+FQzcKanQ9bafqfLPSw8ux6ogo+koUFr/cEFtCkP536RavJvj8J357nYYE+2WRCuNg38Zd9/+svdVVpowePF+h4kRblVDVggSeght380AjVgOVr2Y5oE1UDVk9t7cWGhN2pBizQtdKrS/Esclj++sOweSKGZavxYnJzRQqrB8d10+pyXIsElt1fwKFh41lVw+qfG2jTns7NUZrt5Q91vRTWBG1m1BfN7jTEsr3yMBweOtycdRASEvq/9R9YYveVSwMKYAAAAABJRU5ErkJggg==;" vertex="1" parent="1">
          <mxGeometry x="710" y="5173.4800000000005" width="71.43" height="40" as="geometry" />
        </mxCell>
        <mxCell id="Ad-eanvACwM0OZeesIjt-7" value="" style="shape=image;verticalLabelPosition=bottom;labelBackgroundColor=default;verticalAlign=top;aspect=fixed;imageAspect=0;image=https://raw.githubusercontent.com/hbldh/bleak/master/Bleak_logo.png;" vertex="1" parent="1">
          <mxGeometry x="709.9999999999999" y="5261.47" width="55.56" height="30" as="geometry" />
        </mxCell>
        <mxCell id="Ad-eanvACwM0OZeesIjt-8" value="" style="shape=image;verticalLabelPosition=bottom;labelBackgroundColor=default;verticalAlign=top;aspect=fixed;imageAspect=0;image=data:image/jpeg,/9j/4AAQSkZJRgABAQAAAQABAAD/2wCEAAkGBxETEhUTExMWFhUXFxkbGRcWGBcaGRgYGB0XGBgaHxobHSggGBomGxcbITEiJikuLi4uGh8zODMtNygtLysBCgoKDg0OGxAQGy0lICUvKy8vLS8tLi0tLS0tLTYtLS0vMC0rLS8tLTUtLS0vLS0rLS0tLS0tLS0tLy0tLS0tNf/AABEIAOEA4QMBIgACEQEDEQH/xAAcAAEAAgMBAQEAAAAAAAAAAAAABQYDBAcCAQj/xABJEAACAQIEAwQECgYJAwUBAAABAhEAAwQSITEFIkEGE1FhIzJxgQcUQlKRkqGxstIWJDNTVGIVQ2Nyc6LB0fAIk+E0ZILC8Rf/xAAaAQEAAwEBAQAAAAAAAAAAAAAAAQIDBAUG/8QAMxEAAgECBAIIBQQDAQAAAAAAAAECAxEEEiExUZETMkFSYYGh8BQicbHhFTPR8SPB0gX/2gAMAwEAAhEDEQA/AO40pSgFKUoBSlKAUpSgFKUoBSlKAUpSgFKUoBSlKAUpSgFKUoBSlKAUpSgFKUoBSlKAUpSgFKUoBSlKAUpSgFKUoBSlKAUpSgFKUoBSlKAUpSgFKUoBSlKAUpSgFKUoBSlKAUpSgFK1sbj7VoA3HCzsNyfYBqaisV2wwVv9pdyz4o4/0qjqRTs3qVc4rdonqVXP044d+/H1Ln5afpzw7+IH1X/LU5lxK9NT7y5ljpVc/Tnh38QPq3Py19/Tfh38QPqv+WmZcR0tPvLmWKlV4dt+HfxC/Vf8tfP034d/ED6r/lpmXEdLT7y5lipVc/Tnh378fVf8tfR234f+/H1X/LTMuI6an3lzRYqVXT244f8Avx9S5+Wvn6dcO/iB9S5+WpzIdNT7y5osdKrn6c8O/fj6lz8tfR244d/ED6tz8tMy4jpqfeXNFipVcPbnh38QPq3Py18Pbvh37/8AyXPy0zIdNT7y5oslKrh7c8PETeidpR9f8tZ7vazBquZrjBfE27gH05aq6kVuyOnpd5c0TlKrP6fcN/iB9V/9q8t8IHDR/X/5H/2q2ZEfEUu8uaLRSqqfhD4Z+/8A8j/7U/8A6Jwz9/p45H/2qMyJ6el3lzRaqVVR8InDP3/+R/8AapPg3aXCYoxZvBm8NQfoI191TmRKrU27KS5kvSlKk0FKUoBSlKAqnEkDX7jMdiFH8qhVMfSSap/aCyl61dVtQNj4bwfbWTtBxW7Z4neVYKuV5WMCco1k7VD9oeOk5rLWwqhirhWHMdiAwERI3HSvJng5uq5cXe/Axp46kqUovjJW4u5ybG3szrKEEkgvLjvIYgSJjQAJyx6vjWE3xmuE2tIaLea7CExqJMyv80+dXninZhO9KnOApPKt4BEM65Q1qQZEnxMmtUdnkkt3lwMZBY31BYHcH0WoPWa9W5dTstnyKW130YGXUsfSS8jT1N8sddp91bK3l7xZswABKZrsXIB5ic2YTvoY8NKuuH7FKSElyHaMov2yCxGmndbx1ryezdlbwQ3L+ZGVVYXrcqCWXSEzQMp9mgMZhK5WWIjHe/IpNq6O7c92WmNc1z0Wp1EGDOg5vdXo3FhFKkRMvNzn1nUEwMu3L99X232ITKee4FMZh3hAYLJ5h3GsQela+I7J2U5WN7KpIC96pAO5I9Fpr9NLozeOord+hTEvDPcbufneim5lWRvoc3Lvr4a14N30YGWZae85swhfUnaDvG9X3Ddl7TFnD4nONGZbi5ocAAE93qCK8t2Tw4GVfjGSdVDrlJ0AJHd76jbxpcj46jxfIpgvrnSLQ5QunpCL0ZoJG8t/L7qxd6oVj3ckx1f0cNuI+rzaa+NXU9nLGk/GJUDKe9QZMo0y+j0ABHs0r63Z2woJm+M4BY97b9IDJGb0eo3+ilyfjqPjyKPcywq5cogzcl5aSN505duX31l7wd4W7hR07n0gU8vtzA/L36eFXNuy9mGUriMik8puJCHTN/V6Gd/tr5e4CgbOTiM4+W11MwkRv3e0afZ5VNyPjqXjyKWlxQhGTNmiXlpTfTTl18/CvTXFzLyAZYj1yLu+pB+dty+6rVc7PWgWQ98okEqbiQTGhIFveD9vtrFe4RZEGb3LGX0iSI2j0eg8KN2I/UKCdr+jJHsQUeCUCkPcKprC+poM2ukxVxsY83HNsgEEGRG0Tv8Ad7651Zxi2CGViChZi1xs05sgM5V11jp1qZu9vRlIXulYjVsxP2ZRPvrzcRh51JuSV7rkdOHxMMraT34bmk+HUYzuv6vPB8l6/R/pWxxW5hbdx7Yw+YIzKGF24MwBImNYmJioUcQtNiECZiS/MXjWY8POfsrb4wvprv8AiP8AiNd8FZanPhqEdXKK3N+/xFSbefAzm/ZhrjQc2UaDLGoy/SPEVs4bEEOETBIGCZyDiCmVTmmQ8DQzMDSR5VsW7AfCYW48syuoB5iVHfBIEMI5VA2J08ayNkGKu5sxzW7YBJVDMuoHOwDCI5PVYDbRRU2W525I8CI/SS2yhRhQNVIPe3DEEN94FZuD45bNxbtm0EZSCDnuHUeRbWorB8Nc22ugSiRmbSATAHWTqa2sGKOxHRQe6R1HgvbXF3Xtq3dDPcVPUYxmMT64ro1cX7NMO/w4/trf4lrtFSiZqzFKUqSgpSlAcU7ej9fv+1d/7q1X7+GByhtBmWfp+2rf21w6/HrjdSV6jwA93vqvcWAB12D+/es82p8rUrSjiHFd4z8YA766f7R+v8xrQuAHqQSKleJgm7d/xH/Ea0hY8q1Z9YeuEX2TFWSTPpF67yYnz3r5eZUuOV1YXCYOolWYrp4As0f3j415wxnEWvK5b/EPorWdpLPAIDs2vUTG3h5edUZ5v/oXtHzJK3j2J6DpJzba6HmPzj9JrGXaSWgSSWJHUkT7YjStVBEllAGkAH6fZuNK2DBBBInLBjymPLaljzddmZsC9zvGCOVnLOx2BOx9/wBNbardCgi4AF2kBWhQG2Os8gj6djWhbUgyG1ka+zQVjvEnmJmfPxn/AM1JN2l+SQuWroB5k2IgkbQwO410tR56ecaN0OATnBygbNtlJtrHs1+ma1wQImN/P367gQI0+8mfbTAhhtrzrqdTOp00IHu86FG1a/8AZvm9dDlRdnM5BIgyYEt5nmIn218xBuspm6pAUtsv8pjbfn/5NaTIYkOD5Ajz91ZcFwrFXVDokqWyzmUayR1Pkaq2i0IyqPLFNmlicSzEliCT1hfYOnlWpf8AMg+dSOJ4e6u9t4lTDayAfdvWLGLbQKrECR1gEnT7almLpvh/O5WuLEKnKPSCTm2iHt5d9NDrM1BXPjAuXQzAMQ3fHPbGZZBcZs0OSeiz9lXC4VggFGBEQch0kaEHTpULcdCSqiyDqB6O3AO2vLt51KPYw1aUIKMosjeCWi+KtDobiyfKRPs0q4dqkVMVfVTKi7cA9gYioHhbziVBHNJzCBpvI06VJcZf013/ABH/ABGh3029bk/hUP8AR9o5VjvVOYRm/bMJErlzzpqYyxWnxdsL8ab4wLhGRMoTLIaWkawY6QebyAgVtYfKMHZUhASykktbDgd+YGVl1UrDA6+fLX3CYkHGrcRt7QAbPaYNqVYgl5IlW+UWEeAoan3A4FVwF1yX51UiQAuYXFGUSSWMAmQB4TUXhayWOOMcN3BzAAALkgAjMWIfSW1YwBFeMJUEos3ZY/rWH/xU+8V26uL9lkHxjDn+1T8QrtFSis9xSlKkoKUrzcuBRLEADqTA+mgOGfCDjDb4liDBIGUmNPkLpMGPbUXcx4u2Df7sgC4V9dWGYBXiMoOqk/RUn28AuYzGlXJQonqah9FGrA7A7b6ivfZrhlpuGvIYk4xgQoDZSLYA5V1EAjc/fVbaXPMjg6c1KbWt21zNjFrN24dfXf7zWFrIjX/StK/xm4GaMupnVR19oJ3rYwmNxLjMFTKNCW7tFLaaAtAJ128xU5jf9QpN2SfL8nvD2PTWvK4nT+YVE8WuAZwugzkjzAJE/Z9tTC38TJ9EqlY1fIignUQ7EAmNRB86h+K2nzMboyluby1nVYkESDEaaeWho5MVWVXLZNW4oydmuFC7YFxxcuNqW52AVQzIDC6kcsk6/QKlBwaz806/2tyt74Lx+rP/AID/AIr81lJqruexThDKvlW3A0E4TZ6q3/cuf71mtcBtMQqIxJ2AuXCT9tZbUzGmrH/nnVl7MWvTofAN+E0LuEO6uRSe0nD1ssqroYOkzBUlDrufVHXefE1TuL8XuC5cUMFKuVAVEiAdZkTI2q7dvCO/1Ma3Px3K5xxMzdvn+1b76vE4YQj08lZGVeM4jbvIEzolsfcupis68cxE/tT7lTeSfmxuSfpqPwSAtDREHqREazpWa8igAgRrrrO8kfZFaWR0ZIrZIu/DL7vbVnILEEkgASZfXQDWoPtC4bPIHLoPKHUe6anOFgdyg/kB+nOah+I2CxaCMrMScwYzDBh6uw0+/rWa3PIpyUaqb2uQS4fkDQsZTqf7xE6gieleMLh5RToDncZiAY0txPkJP0neptuG3AI7y0olhGW5prJA01jNWTA8GYW3DxFtiToQwz5ATlLKdFQnUffpNz0a1WMo5YO7Izg+HdsSqwQQeYxoBG/mI/5473GMETeulRmXvXhvHmOv2g++q3xG82YqrEDrDEbeMb/+awcGxTqXljlNs6c0alOh0qC1JtU3K2/YXr+kLlw2k7hSEW0CQqtcItZZhtwDG3mRXr+k2F9rrI2Yqoki2W5WLFYMQGBAJ3EbGnDuzTPbJF1O9Fs3Db8hEjPMF9dojzqPwOAa9cyAhdCxZgRCqJY+4dKpmRWVetGSi4avx928zVweGfbLr0Egk1N4Xhd/pbb3Co/ieG7hUuB1dHmGECGADFTBMGCNjodCBtW92Y4unf2uYZi4H2+FHJWuRPE1ad80NvEt3ZXhV8YiyXtuoW4CZB0iTXXK+MwGp2r7VzqbuKUpQgVyf/qOb9Qw48cSNPZbu11iuR/9R5/U8MP/AHH/ANHoChcJX9WT/ATw+d522+wp7TtVv4IF/o0Zo1xrRmgicibd5buAddl/1mocGb9XTzsJ+L/EWfqv7KtvBNOHafxh2IH9Xb3i5aJ97H6NoXV8zlpftvz+5X3Guu8n7CR4D7h7BUpwXCG+DbggJclGChjmcQylSQpUrbzFiQBl65orWxNq53A1071o309aZ5mGvkDt6x0qY4OiHCm098WhdPd+qYN3vO8zOQBylMiT0hvOaxWp5lOCVRp8CR4hgLT2xZSzetmzmi6bQZLgYjvDaU3ACSecBZOUGNaqHaFSrm2PVRVCazKEd4G6SWz59tM0dKm/i9i6BhzcuWvifek3SshucZsqAg22zEBRJnSYNaXbe+HKOCzFw75mHMLdxi1q2fFlE+4iNBpoaVbNX+n9eXrYnvgwT9WY/wBg34r81hnT3V6+D7H2bWDd7jrbUWHlmMCc9xfvaoRO0uDAM4m2d4iRprA6yY6/dVD3KXUX0RKYBxyiD4yY6g/7Va+zVz0yjyb8Jrn2H47g5X9Yt6DoW8D/AC+dWrsdxrCvirYXEW5OYAFtSSCABO5qC7K/8IKenHmX90u9c14ox76953HP2mumfCEp+MLGxa5+Nz91c04t/wCovf4j/iNaQOCn+/PyGCu5WBgnpoY3rNfkAAg/ZqPL3++tJCZqQxV9XUa6gDpuR1+09audRcuzljv8MzZiDaBBnYxmYdfCRWp3imd/MbT4e/zrb4ReNuyoUwGtnMBpOaQSfHlMVpYzE5ACqh10DGVGUEgD2ztWOtzwKrjOooU4vN2/U9Yy/bawlnKeXveaQdbjZp1BOmo318RXi/xpFa+wD+mRUILDlCqyzoOYkttA0FRd3i2HJk27nslforTxGOsPARLgJK75SBJAOkid/uo4HoQjilq/9cLENxdiGBBj/mtR4dk1B9kHX3/RVha4ZIEgyQQY6adN9JrDaALhekNPh6pI0HnUpmlOtZZWtS9nDWyYVLbKsZWNq3mOkgkuuaeknwk71sphwCWCpmOhPd2519YE5dZ868IwznTIDBKanLyg9dd9ffW9cv2gjcp70zlYHQGUyk6aAAOTHiKh7nctkapwquoVraFVJIU27cTsYGWAYAEjeBWwnDw5CqiMV9QFbI9ygj3dK8r06eQ22P8AyfL3VsYXEtYvK4APdEGJM7BoIVWy+yrRi3sispJbm7geN4rvApu3LgGjW7gJWNjmUAGBM7xtXXK5Nb45dvPzZIIKhRbdWE8u76nQnoAa6zVpKK29+iM4uT63v1YpSlVLCuR/9R6n4nhjBgXzJ6CUaJPSuuUIoD8z8DY/F1if2CTGbTnG+VGAH94qPOrfwIE8N0kxjDEBj8i3t6O59ij6d9P4QXUcRxQgSUTLyqdQqHqRlMDcV74BdQ8OdSRmGLJywrH9irDllTqEaJJkgjyELq+ZzUnanLwb+5GG3nUooMhiSVGu7aeqCPfHs6D7wZriuYQXEzDMjoWVis5ZG4bUwQQQCfEg/bLEKz20dmJOitknVB0MCA7NqfkxW3av3E9VHgyWOZhzArGhGYs2YnN5GdzFM553RSaz348OwnMVxt273NaZ2uxNu5bTKCDO6qHuFSNJjzmq1i7mdibpkkrPTQIRoBsAIEDbQVMMzvnnNbysQtx3DSJQZwwPJmBMCQeX21XcRYbvILTLeudiSYkn7atCSaGIz03llqz3wu+LS93JKkzDFSAW1MShIGYezUnrWwvEFMeiXUA6hPnFfmeVaj4Fhl1U5tomNgfDwP31kt4Jxc7uVkADU8sBg28ac3j9lXsRHE10rXZtPj1H9WuoB9VBofIp4VjfjeXVbS7+CafQu9fTwoquoRYVfVMDmjLpGWYGoB8+ooeB3O8KZreYaE59PZqNfGPD7CsWlicReykzW4hxFr2XNOg01ERrsIHUmZJ3qLxnDsO7s5VwWYsQLgiSZPyKm+G4Aur3HurZtIQpdlzS7SQqqoJdoE+Q8K0Ewee0125eW1aVsoZkzF3icqqupgaknQSKh3WxSnUrOV76s08NwrCHQ94PD0inX/t1mXgmH00ufXA+9PbWrwXHOzFdFy27jZlEMYBb1p8qnMNiHfDuxuM3MBBOYQI1nw5o8KlN2N59Oqbmp7GO66hVRJhViSQxOpO8DTy8p8K8doz6JhBE27O5n5R+ytDF4sWxJE67TGm53/4dfCsN3EF7ZC2yA5C6QYKFWk66TmAqO0pg4TUlOS0fb6EUqEgQATMbeU+HkaxIo723/eXYb81Sn9GYtQIt6CdJTciCd9461hxGBxKlHuWyFQr83aQYAmh7TkjFjAAzkE5+9efDLJ8RvPnWtgwO+Ej533GpW7gjdzOiOWe40ACdDLAaD1vKfdWpawFxSGAE5QRPUMsqfYVYEeRBqFoeU6kYvMy4sxzetn0HMCzZoUGcx1+n/wDZK4ls2i+b0kEqoXRiCmUT09ZtT83zqJvOFcgJcAyq0Lbuvy5Qc2YJ6u5nTQ9KDGWzP7QyNIsXjoBvonhr7iZqG9T1U9iUsMSAZkyJHv8Au/8ANbGCD37pti4696QIDXIMwuuVwCNI2+6oixxSyVDDPqDlbub2UhYBhsuo6H21s2OIqjBkN1WJ5SLFw7blSbZ166edWjJx2IkovrE0nCb1t+eSBzZ2uF5Cw5EnmmIifprrlcb4XYutfWVxILZs73rWIVYAzEF7i5VkLHQbCuyVeTi9vfqykVJdZ++SFKUqhYUpSgOI/CJgw/ErsDmbu1TWOfLbygnoCTUFgeJJhGOHvCHN5GyCYJAZQpb5KnvJmDoatfwh2x8buPknJetSdIju7bQTvJgaVSuIdmxeuLfVlRQouZO8UkhcsgZiGDcuxk61GZJWZw0ZK84t9t/K5r8M4DiLd74xkFy3bzuyZoVlt5g66NtII0HTSt7iuMKYSwQEF12LMNMwSLjbCDl0Vfo8arF7GuLjhDlScwVgWyqdVExsAQJMV6w95773BdZgLaMwyAT69tPA6Q5qGjaztmmk1b32LkbOC7QXWuZCifK+fOx2M76VccBw8ObKtcYm5a7yMq6RkEftNfX38qhsJ2US3nvM4OUKQBetyxuaDlCyYzSRpGtS+H4kyFTlQZRAMahDlOUa+ryrp5VWTv1TnxDwkZJTi7+Gh9GAdma4EthUbKcz20DNBgANGZuUmADNZsXhLoVpw9kFVJZVe2biAZpZranOIzidBECYqQ4Pj7SJmcK04i28a5lARybigESQT1ka043bDWyfjAFsZctvOhtyi5eQK5fMxk6opGZsx0k6J3OOEYuLaf2/grg4gvL6G0YAG3rQIk9S3X2/bgvXs7sco1JIWdp1gVls3LSrD2i8tIYMVMRqsR46zWG5etliRbIB2GY6HLG8SebX7Kncweq1aJXA4i0bTYe+lxUL94roMxV8uUypIzKRGxkEVhscVVcM2Fc3rasxIa2qtOZYdCpMlDlkEaitBLlo28rJD9HBJ6jUjbYRHnWDEXrbXE7q3kMwZYmZMT9BIj2VBvSbTTuvxwN34OnPxm1qoY3Y/q5ju3bqC0SAdARpsay9krijD8xXp63d9bTTGePsE69K+9hbTJi7ahmKi8BILhT6J9SFcJ9PuatXs/iimHEFhIE5TeG1s7924H1jHt1qFsz1YR/xWMGNvYd7jq0yGYRl0B2EeWoMe7SviY3BWnKXFuRKEBI2aVecw1PIu3TxqAxONtd67d7u5aMo8Zic3+lWGzxlLIQXQOdVKkraclczsCMwaPX8usjQVF0c6pxSSs3G2u+/vs2NrDW7TlGcQHa3CksFKsfVLaFBGhbpE671LX8Bgcr5SjEJcKen3bKSN21MxodzpVO4txAiyty29r5KESZOUBZCztt16EwKXsUjlTkIZlzMb7ZczF15lKwSDMGSdydxUFaEXGL+RNN6N/0TOCtq3xmLXfBcOxDcq5IC5bhk6RvGu9ZL1hRYwqrZyOwYZswJuvNtZ3kak7get7ap9/jF1AcmmYEMVa4MwHTRoIiBr4VI8exbK2HABAVWb1nOqgMfWY5dR9vsqJXSNI4W9K0vevirlp4nhb9qw8X8yJl722rPCZvV0OhU7/bHWorAXnvHN33dqhAzsx0ZpgLHyjHltUljsDbtXbthpuOsKzZnHeGA2bKDAO3+lanxWzBU2wRIJDF21APid4J0qMjN3gqbqKWtktrvyNPjOPvWbrC/cLMU5WzEyjA5YJ2Uzt9+52+zfaJWv2ULEkuNzPgK+3MNbuXEJRcygKpLMAFAgA80ZQNNttKjIw9khmssmXq4v6D2loqcry2E8Kmmk9/M/TrxGu3nXquL9lO2t69etYcXQ6OVDWyraozBDz5TA5l69a7RWhu1YUpShApSlAcl+EK8zYlrBQ5HxNo55AhjatpljUnlMzHUVS+L8bNi69lUWERU1CFiHRbg58syM0THSr52yVrmLu2EUki7au5hoEItIi7iD1Mezw1qHF+F92rNfQ3SRAdTEbAZhHMAJ1nTToKx6SCllbX0OWCV5Syt7q/m9Cl3cBcObS3JMCW1AWADsSDod4+0UKtbeIUhgUJB+TKuOnin21aOK4C5YIRic5grFtCp7wQObNpIuPp/dPhEcyPzC4CJI2toY1LiO7fQ8rb9JrW5aPTNWktPL/okLHGHvWMSMqqEtKxKqoJyeqMwWd0JPjI86r/CO172i+aylycp5t1AAHmOlWO92dvfFhcLd3aOvNEnO3dMcqsT8jUHoKqg7N3M1yHtQNAXcoWETMQenQmoSSeghldX5lZ27dSw2eLtdQXMqrmDGFEASWPUmTGlTHALNm5igt8hbRZ8xZsg0DFTm0iWAFVzgdi6lt2lYssLTLq0q2dmZYB6W2gx0Mx1mDasLIFvElgASMlzMoM6sO6lNtJjxqU7HJ8HPO5RStdssvBOF4B7Im6lxu8YekPc8vdlgMueQM4HNO5jpWUcHwATPcW2rhbp7tcUHDZVBSWDaEtIgVVMfhTatYe4HVjeUNln1UbKVYiJClWB1gyDpUdjcS4VjyiANj651mJO+23lUq/YYKMk8rhG/l9fepehw7hhIEW15cM0m/Mm44F5OY/JWSeo3qlcQs27d18nqpdbK0zyLcUKZ66da2cGGe1akG5buo/LaW49wFX10VW6gf8ABWrjcApAVFuB2cIGK3Dazz6pYWo09vt8oudSw83G+VEh2QvB8fbcRzX9PVn9k5gTaLeOxH901W70DDW5jXxyT6gmM1pj9AHn5WDslZNjiFuzmDRe1IIgMLTyDF5Rpt6p9o6V28W+KJEwcvjEZRqfSKPxe7ekdmdtNNRszN2fxltMHfllVnICgmC2Rb0geMG4mnmK+8CxKYK8l3EWzkZUOQAZimZWJhoBBCld+tQvB+H3cQiWrfM3eQqyo1cEscx8FtTrpy+dW3txwPEG1Zu3bOHtW7XK7WbrXCEaAGKsTosbA/KiNasti62NU/FLmGVL7C2UTKhUZlaDIElT85uadgPfh4xZtFhkuNiLS2xlN0uYJDkgAqIEAHQgT86tvsujm2DaCm46ZQpUtozW2bWQFjINfI+VS/GuA41ybzi2TkylbeZQQJI02J16z5VzyqQhO0nY5l8yeVXabvoUi6Usol0qLgZWGQyMpGimQROonyE715t8UW7eUrbCqMxOYsdCW15nI9WAfYfbUjYGaVe4VVUYKD3Ig6aemdF1lhAbN4CKiOGxe9YgGSqoot6KwJ0l+8aM7awfMnWNEWp2lG6RfLKnu1Bz97MXAQSZBffQmcuWJ6TWu7jMddp10G3kJGo8DHt67N/Fm8GxD5Q9xpgeCZ7ZAkn92vvjWJrTuD0jwfltBkmQCYMkyd58dqsdhsYfUgDSdPLfxjTep7gXbFMMwYYe9dEH1Qi/iYHoOlV+yAWAkx18Y0HXymtzBdn8feMWksXOujlTHsYR9tAza4fxhsRxWxeOEGHEW7ehVi57+y+ZioGuVT/vXcq4LwnB4mzj8PbxFruzmt3BJBBUXbdsQRIPM41mu9VJSQpSlCopSlAU3ioC4m9I1Yow81yKv0SpFU3ilsqt5nWFOwkamurcS4VavxnBzLsykhh4iR08qhOJdhMLfEXHvEeGcAfhrzp4SbqNp6N38RCpKEHFLjbXi76nNe2tx0xNtSzAdxZLKGIBYDrB1gioW/iLR9W2U1lsty5zHYfK5YBbb5xq59u+x+NvYlWw9kui2UTNntjVcw+Uw6RUAOwvFf4U/wDcs/nrvsaJmfidh72EwZyygX0mugDX76rIBBYZiNtqp3FLOV3A0hiNJ2HhJOntNdn7P9jc+Gs28WjoUQcoZPWF284BiQYDKffWe/8ABhw9pJ72TqYcdf8A4xUWPOxWHlUneJyPCYdlsYwJCw2HOmYaFcSCBJJmDH/JreF/iAe5N9i82EunO0uLxK21JiSBlM+3rV77Q9jVw9hhh1vXszqXQsgIUJcthgxAGYM6mOuX2mqda4Nj+9us2GcLcNoyLtvMDa9UmGOkkk0O6kssUiK7V4dVtYc5rgJwuHCd2JUgIAczZgVG0QDuT7dHB2i9i2pFr12AYtmuMOYy473MqiAByKIgyevacB2StYjDWFxIuK1q2q5A0KpKpMGDm0AEydvbXwfBlgAwYG6CPBl/1WpscdSnJtpRVr3v2nKcDh74sYXuHNps94ZgWUqGu5Zkagb9dprPgGxTvhVa8TZN3MVzNGa3eWy5jYlmbQn51XLtL2YvWjbTDWrt62iwrNcysGVrjEHaVPeCP7vvqv8AZ7s5xBGso+FaVuev3luArOrtK5tYKzQ7Yq0UV3hdx8PxO5dZSy27t+6V0BPLcIhiDGjb1DXs4wwAgkMACQp6KNCRIEvuImK7/jOwuExGa4zXg1xMpIYAhSuWACukDy6azrUbZ+CXAKrL3mIYEg8zoQIg7BADsN52otEzCOdRa8dDnPZDgC27FvEIzKzq6sh2zo7JmUwCsrmEfzeWspj8D3lt7TOYuIya6xOgaOsGDv0rL2+wl3hrWLFi6DaZbjKHtyymQzcwYBpZtBlEedVPhfGsTeW5cL2k7sjQWyc246vpWkdrGq8TofBeGYXCYj4taDejXIXuEZrjEl506ZWA93vPm1gb4xDXH0SDmObRhrGntg1Y+H9jrWIS3ib9x2vXFV2a36NZIEQusQIG+sTUtiOytl1yNcvFToRmGv8Al1rzcRhZznePbuVo1KlNSTj2trX7nDsaSL1x7LFZJEqxSVJ1BYA8p32I8qg+GcBvZlS24TMwBAuNAJgSVIiQQOpggDpNd7HwcYH+1+sPy16PweYLxu/WX8tdiTUbI4acMTBvRau+/oco43hQt+6thG7lWPdqFuNAIBMEgnViTWibVz93c6f1b/l0ruNzsfZYKGvYghdpubHodtT514t9i7CtmW7fDeIuDrr83XU1N5W2O7pJ36un1OMWLTyJt3YkSRbeY67rW/geNcStGbMW+g/Vnf7WIH2V1J+wWGLlzcvljue81M6b5alOF9nbFhs65mcTDXGLEToY6CpTfAKpNvq+v4OP8FGNvY2xcxD3brZ7aDNZKBUF23dMH1QJtjwru9fGWRB619qxdsUpShApSlAKUpQClKUApSlAKUpQClKUApSlAKUpQEfxTgmGxGU37Nu4VnKXUErO8HcTFaVjsbw1AQuDsgEyRkEE+Y2NTtKA820CgKoAAAAAEAAaAAdBXqlKAUpSgFKUoBSlKAUpSgFKUoBSlKAUpSgFKUoBSlKAUpSgFKUoBSlKAUpSgFKUoBSlKAUpSgFKUoBSlKAUpSgFKUoBSlKAUpSgFKUoBSlKAUpSgFKUoBSlKAUpSgFKUoBSlKAUpSgFKUoBSlKAUpSgFKUoBSlKAUpSgFKUoBSlKAUpSgFKUoBSlKAUpSgFKUoBSlKAUpSgFKUoBSlKAUpSgFKUoD//2Q==;clipPath=inset(16.22% 2% 18.89% 4.67%);rotation=90;direction=south;" vertex="1" parent="1">
          <mxGeometry x="814.5757142857143" y="5130.004285714285" width="156.42857142857144" height="225" as="geometry" />
        </mxCell>
        <mxCell id="Ad-eanvACwM0OZeesIjt-9" value="" style="shape=image;verticalLabelPosition=bottom;labelBackgroundColor=default;verticalAlign=top;aspect=fixed;imageAspect=0;image=https://scikit-learn.org/stable/_static/scikit-learn-logo-small.png;" vertex="1" parent="1">
          <mxGeometry x="1003.5899999999999" y="5180.43" width="132.41" height="48" as="geometry" />
        </mxCell>
        <mxCell id="Ad-eanvACwM0OZeesIjt-10" value="" style="group" vertex="1" connectable="0" parent="1">
          <mxGeometry x="555.51" y="5146.890000000001" width="104.14" height="104.15" as="geometry" />
        </mxCell>
        <mxCell id="Ad-eanvACwM0OZeesIjt-11" value="" style="group;rotation=90;" vertex="1" connectable="0" parent="Ad-eanvACwM0OZeesIjt-10">
          <mxGeometry x="26.527700602714248" y="24.940527497147286" width="83.20647444629584" height="73.50017567539479" as="geometry" />
        </mxCell>
        <mxCell id="Ad-eanvACwM0OZeesIjt-12" value="" style="group" vertex="1" connectable="0" parent="Ad-eanvACwM0OZeesIjt-11">
          <mxGeometry x="0.000863309290775164" y="5.022810220893249" width="65.37575537966617" height="71.76194519358383" as="geometry" />
        </mxCell>
        <mxCell id="Ad-eanvACwM0OZeesIjt-13" value="" style="html=1;strokeWidth=1;shadow=0;dashed=0;shape=mxgraph.ios7.misc.bluetooth;fillColor=#007AFF;strokeColor=none;buttonText=;strokeColor2=#222222;fontColor=#222222;fontSize=8;verticalLabelPosition=bottom;verticalAlign=top;align=center;sketch=0;" vertex="1" parent="Ad-eanvACwM0OZeesIjt-12">
          <mxGeometry width="38.8489180862427" height="39.64838476394169" as="geometry" />
        </mxCell>
        <mxCell id="Ad-eanvACwM0OZeesIjt-14" value="" style="sketch=0;pointerEvents=1;shadow=0;dashed=0;html=1;strokeColor=none;fillColor=#434445;aspect=fixed;labelPosition=center;verticalLabelPosition=bottom;verticalAlign=top;align=center;outlineConnect=0;shape=mxgraph.vvd.wi_fi;rotation=-225;" vertex="1" parent="Ad-eanvACwM0OZeesIjt-12">
          <mxGeometry x="11.653812116582035" y="52.61801154892486" width="15.539567234497081" height="15.539567234497081" as="geometry" />
        </mxCell>
        <mxCell id="Ad-eanvACwM0OZeesIjt-15" value="" style="sketch=0;pointerEvents=1;shadow=0;dashed=0;html=1;strokeColor=none;fillColor=#434445;aspect=fixed;labelPosition=center;verticalLabelPosition=bottom;verticalAlign=top;align=center;outlineConnect=0;shape=mxgraph.vvd.wi_fi;rotation=45;" vertex="1" parent="Ad-eanvACwM0OZeesIjt-12">
          <mxGeometry x="46.61783839420047" y="11.891190719404218" width="15.539567234497081" height="15.539567234497081" as="geometry" />
        </mxCell>
        <mxCell id="Ad-eanvACwM0OZeesIjt-16" value="" style="sketch=0;pointerEvents=1;shadow=0;dashed=0;html=1;strokeColor=none;fillColor=#434445;aspect=fixed;labelPosition=center;verticalLabelPosition=bottom;verticalAlign=top;align=center;outlineConnect=0;shape=mxgraph.vvd.wi_fi;rotation=-45;" vertex="1" parent="Ad-eanvACwM0OZeesIjt-10">
          <mxGeometry x="38.18237602858706" y="3.2845797390820164" width="15.539567234497078" height="15.539567234497078" as="geometry" />
        </mxCell>
        <mxCell id="Ad-eanvACwM0OZeesIjt-17" value="" style="sketch=0;pointerEvents=1;shadow=0;dashed=0;html=1;strokeColor=none;fillColor=#434445;aspect=fixed;labelPosition=center;verticalLabelPosition=bottom;verticalAlign=top;align=center;outlineConnect=0;shape=mxgraph.vvd.wi_fi;rotation=-135;" vertex="1" parent="Ad-eanvACwM0OZeesIjt-10">
          <mxGeometry x="3.2183497509686303" y="42.932964503023705" width="15.539567234497078" height="15.539567234497078" as="geometry" />
        </mxCell>
        <mxCell id="Ad-eanvACwM0OZeesIjt-18" value="" style="group" vertex="1" connectable="0" parent="1">
          <mxGeometry x="100" y="5190" width="390.56999999999994" height="61.039999999999964" as="geometry" />
        </mxCell>
        <mxCell id="Ad-eanvACwM0OZeesIjt-19" value="" style="shape=image;verticalLabelPosition=bottom;labelBackgroundColor=default;verticalAlign=top;aspect=fixed;imageAspect=0;image=data:image/jpeg,/9j/4AAQSkZJRgABAQAAAQABAAD/2wCEAAkGBxETEhIQERIWEhAWEA8QFRYQFRcYFRUVFRUWGBURFRUYHSghGBolHRUVIjEjJSktLi4wFx8zODMsNygtLisBCgoKDg0OFxAQGy0iHSUtLi0tKy0tNysrKystLS0tKy0tLSstLjctLystLS0rKy8tLTAtLS0tLS0tLSsyNzgtNP/AABEIAOEA4QMBIgACEQEDEQH/xAAbAAEAAgMBAQAAAAAAAAAAAAAABAUCAwYBB//EADoQAAIBAwIDBQcEAAMJAAAAAAABAgMEERIhBTFBIlFhcYEyYpGhscHRBhMUUkKC8AcVIzNDU2Ph8f/EABgBAQEBAQEAAAAAAAAAAAAAAAABAgME/8QAJBEBAAMAAQMEAgMAAAAAAAAAAAECESEDEjFBUXHRgfAEEzL/2gAMAwEAAhEDEQA/APuIAAAAAAAAAAAAAAAAAAAAAAAAAAAAAAAAAAAAAAAAAAAAAAAAAAAAAAAAAAAAAAAAAAAAAAAAAAAAAAAAAAAAAAAAAAAAAAAAAAAAAAAAAAAAAAAAAAAAAAAAAAAAAAAAAAAAAAAAAAAAAAAAAAAAAAAAAAAAAAAAAAAAAAAAAAAAAAAAAAAAAAAAAAAAAAAAAAAAAAAAAAA8cjCVRAZyljd7Lnua6FxCazCUZrvi018UfJf1/wDruNaas6Mpfx9ajWnSxqqLO8YeH18udTY2VrJ6rG9nQq8sa2nnu0S0yfplGZtjzR/Im1pimTHzm/D7pk9PlFt+oeM2201C8gvDE8fJ59GXXDf9qFtJ6LmnUtqm2dUdUV58pL4CLRPhr++tf9xNfn7d6CBw7jFvXWaNaFTwjJZ9VzRs4hfRpRy929oxXNv8GnaLRMbEt1e4hBZnJRXvPHw7yG+N2/8A3F8JfgobirrlqnvL6eC7kYpfD4A10MeNW7/6i+EvwbYcSoPlVh6yS+pzTpruMJWyBrsYVE+TT8nkyOJdulvyfhzN1C7qr2Ksn0w9/lIGuwBz1vxyovajGS93Z/csKHGaMtm3B+/t8+QXViDyMk91uvA9AAAAAAAAAAAAAAPGzXOoKkiBcVgN1S4Pm36y/Ute5/cs7Ba4RSVaopRinnP/AA4uTW2z5c/Ln0/G5uVKpHd5ST05zhtZ5b8snzif6b0Sc7a4lRn1WrKb37Mu9eDycr3ycebrxa2R6eueVTwu3hQlquZ17W4UnoqaFKlusb9l6nu/AvqlJ11mdK2v4f3oSVOt45TbXpqRolfcRorFajG5p9XDZteOFjGPdIkLvhtWXahOzrL/ABQThh+DjmK9UjEzM8sU7Kx21n8Tx9wk0pQpPTSuq9nLpSvYaqe3SLl2UvJtlbxPjlxcNW8o0quKmIujGWZtZWYtvk/BIx4nfVpZtqVy7mjJwS1RTnJ5WIptapPON1zJ3BrH9nQoxjVvKjbjHLxCGnnPbGlNxbb54Sjq5nStfWXnv1JvM0rxHr++ErhPDnSapUUneVIZcpLVGhFS3m04rMcYxzUpbJNLJ2uHCEIOc6kox06qstUn1eX03zstlyWyNPCOFfx4Pd1K03rq1Je1Un3vuS5JdF6mx0JvLaz154+eGbero9Lshp/kG+ldkefD6nRY+L+eDD+BV8PXIduVnC6RvVdYzkpf49VdF8TJTmmlJNLPMLEyurNa5Nvlj5d3+v8A5tnb57Ky9/RbN7teRC4bWhDUtWqcnlyxhLHspLOyS8e99S0hWg9ovON8dW31K0huweG1st/Brrk9jTTS67Lfv8SFxe+y8ReXylJPn7vjFfXc3cNqZisgb6WuDzTk4+XL1XJljbcda2qx/wA0PuiGa6tLPL7r6AdPbXUKizCSl5c15rmjcccqTT1RbjLvjsWdrxqUdqq1L+0efquoNXwNdCvGa1RakvD6PuNgUAAAAAAABorFZcxLecSNVogUFWDIdzaRmu1FPz5+j5o6GpakedqBw93bVIPsN6e6W6/155K67hTqLFeipeKSf/v4H0CrZp80V9zwqL6GJ6dZYtSs+XEWXAqEZOdDDlskp76XqT1R37MtsZeefLfD7H9K8LlTpyrVpKdxWlOpOe7Si5PRTjndRS3x4srrngu+VzXLvRdcKrS0xpyejEYpT58tuRa1mPMsV6NazsNFxdNycYyxjqkmQKlndvdVnKPovsWtbhTT1LE1/an91zRsq10oT0vLjB+fI012+7kL2vWjtrm3pg9pNby9SBXv7mCi3VmlLU49p8ovG+S/uZxnltb5WPRbGPEeEwqRprdSjTS+O/3K4WradyUC041cYzKs2veUX9UWPDuMSqNqcYSWOiw/kU9zwSql2WpL4PwNvBbWcW9S0vuZJa6UWieXTW37KeZRa8t0Z3K1bU5L7oip7bmi9mlCUvAxr1cMb23mt1HK93f5Gyyu9Oxz/DuM1oZblqj3S3+Zd23F6FXH7i/bl38/TK+5pzmy4pXiZIhXRVXFKWlSitXVtNN4+5DheMpNsdLrR6oplHSvydb3qYSLQlwjOD1U5aX3dH4NFvw7jEZ9ifYny91+T6PwKulWTMJ0Yyz0yGtdYCk4JeSz+zN527LfPbp8C7DQAAAAAGLiZADW4GEqRvAEOduQ69uW7Rpq0wOcr0SBcJrPc/qdFXtyDVtfACktrvQ/bw+mHh5J8LyMk3UhF7LtLZv8mi74TGW67LINSjWg8ta0u4azixrcKo1N6c8P+stvnyNHELNw3aaz38jCjVi990/H8m63vasI4UsrPKW6x5MYIkU8ZMJpPZosYXtKeYzp6eW9Pbn4cjD/AHYpb0qsZe7Psv8AAZmFflrk9u58iBxOhOcXhL6ZLS6sqkN5QlHxxlfEjZfmThOXGXtvVj7ccLoluj21k877M62pPvW3Ih1banL/AA4fulxxtu6r7fjdSi0ovPuvl8OnoX9tdUbn/wAdbu6N/f6lfW4VSaUcbpLfrnC1Nvq85+JBrWUqTU/ah0xzC9/uvJW0ovEufTHXy7zQ6rzgtv01f646qm6jJRjqW+rrv6o8/UtOOVOMe/VJdX4r7iG7eNhFpcQcSx4feSnlvl9+456zt5VZ4XLm+5I6NxUYqEeS2CdOZlY20u1Gf9ZLfvWTooVTkaGcwy9tWceEd8v1wXVG4DvC5UjIh0KuSVFhWQAAAAAAAB40egDTOmaZ25MPGgKypbEadqXTga5UgOdr8Pi98b962ZDnYzXsvK7ns/x8jqZ0DTO2A5WUce3Frz/PI8VBc0zo6lqQqvDI9Fpfu7fFcmExAo3FaHKTa7nuj2pcU5/8yks98Oy/kbJ2VRcmpeez/HyI9TK9qLXmtvitgmMZWFKXsVXHwqLPzX4ItfgtTpGM13wkn8uaN70vdfLdfI22+Ep9rfT2fPPMmJMarKtpUi3ri8ZljboV3EYTx2N99zqIX9aK/vHqnhr4STNFe4pzaVSiotxcsw25ZLyxbpxMKzhlGoqEJacJ1FnC8ZZ+hohfyVZwjhxb0uL5PpjH3Ohp1oqCjTqSjDTKOJLr1ey8SstOA4qKqpxkk9Wz5+jGudqWjIhPpUYU01BYy2e04Z3ZlOPQ9XcuQd4hlF758MLyJdBkenAsLagG021LCCI1vTJUUBkAAAAAAAAAAAAAAADzB44GQA1SpmuVEkgCDO3NE7UtNJi4AUVbhkHu4rPetn8UQqvCP6yf+ZZ+fP5nUOma5UQOSqWVZe95P7P8kapTecyTjtjdP68jspW5qlahMcl+zqjGMZ40tvbfOfIyjR7Upvnv8zoa3DIS5wT9PuR3wiPTUvDU8fMJ2qyks7L1f28yVTok6FklslsSKVqFxHt7csaNEzpUcEmMQryMTMAAAAAAAAAAAAAAAAAAAAAAAAAAAAPGjzSZADB0zB00bgBo/aMo0zaAPEj0AAAAAAAAAAAAAAAAAAAAAAAAAAAAAAAAAAAAAAAAAAAAAAAAAAAAAAAAAAAAAAAAAAAAAAAAAAAAAAAAAAAAAAAAAAAAAAAAAAAAAAAAAAAAAAAAAAAAAAAAAAAAAAA//9k=;clipPath=inset(27.78% 0% 21.56% 8.22% round 5%);" vertex="1" parent="Ad-eanvACwM0OZeesIjt-18">
          <mxGeometry width="110.57" height="61.04" as="geometry" />
        </mxCell>
        <mxCell id="Ad-eanvACwM0OZeesIjt-20" style="rounded=0;orthogonalLoop=1;jettySize=auto;html=1;entryX=0;entryY=0.5;entryDx=0;entryDy=0;dashed=1;shape=link;strokeColor=none;" edge="1" parent="Ad-eanvACwM0OZeesIjt-18" source="Ad-eanvACwM0OZeesIjt-21" target="Ad-eanvACwM0OZeesIjt-22">
          <mxGeometry relative="1" as="geometry" />
        </mxCell>
        <mxCell id="Ad-eanvACwM0OZeesIjt-21" value="" style="shape=image;verticalLabelPosition=bottom;labelBackgroundColor=default;verticalAlign=top;aspect=fixed;imageAspect=0;image=data:image/jpeg,/9j/4AAQSkZJRgABAQAAAQABAAD/2wCEAAkGBxETEhIQERIWEhAWEA8QFRYQFRcYFRUVFRUWGBURFRUYHSghGBolHRUVIjEjJSktLi4wFx8zODMsNygtLisBCgoKDg0OFxAQGy0iHSUtLi0tKy0tNysrKystLS0tKy0tLSstLjctLystLS0rKy8tLTAtLS0tLS0tLSsyNzgtNP/AABEIAOEA4QMBIgACEQEDEQH/xAAbAAEAAgMBAQAAAAAAAAAAAAAABAUCAwYBB//EADoQAAIBAwIDBQcEAAMJAAAAAAABAgMEERIhBTFBIlFhcYEyYpGhscHRBhMUUkKC8AcVIzNDU2Ph8f/EABgBAQEBAQEAAAAAAAAAAAAAAAABAgME/8QAJBEBAAMAAQMEAgMAAAAAAAAAAAECESEDEjFBUXHRgfAEEzL/2gAMAwEAAhEDEQA/APuIAAAAAAAAAAAAAAAAAAAAAAAAAAAAAAAAAAAAAAAAAAAAAAAAAAAAAAAAAAAAAAAAAAAAAAAAAAAAAAAAAAAAAAAAAAAAAAAAAAAAAAAAAAAAAAAAAAAAAAAAAAAAAAAAAAAAAAAAAAAAAAAAAAAAAAAAAAAAAAAAAAAAAAAAAAAAAAAAAAAAAAAAAAAAAAAAAAAAAAAAAAA8cjCVRAZyljd7Lnua6FxCazCUZrvi018UfJf1/wDruNaas6Mpfx9ajWnSxqqLO8YeH18udTY2VrJ6rG9nQq8sa2nnu0S0yfplGZtjzR/Im1pimTHzm/D7pk9PlFt+oeM2201C8gvDE8fJ59GXXDf9qFtJ6LmnUtqm2dUdUV58pL4CLRPhr++tf9xNfn7d6CBw7jFvXWaNaFTwjJZ9VzRs4hfRpRy929oxXNv8GnaLRMbEt1e4hBZnJRXvPHw7yG+N2/8A3F8JfgobirrlqnvL6eC7kYpfD4A10MeNW7/6i+EvwbYcSoPlVh6yS+pzTpruMJWyBrsYVE+TT8nkyOJdulvyfhzN1C7qr2Ksn0w9/lIGuwBz1vxyovajGS93Z/csKHGaMtm3B+/t8+QXViDyMk91uvA9AAAAAAAAAAAAAAPGzXOoKkiBcVgN1S4Pm36y/Ute5/cs7Ba4RSVaopRinnP/AA4uTW2z5c/Ln0/G5uVKpHd5ST05zhtZ5b8snzif6b0Sc7a4lRn1WrKb37Mu9eDycr3ycebrxa2R6eueVTwu3hQlquZ17W4UnoqaFKlusb9l6nu/AvqlJ11mdK2v4f3oSVOt45TbXpqRolfcRorFajG5p9XDZteOFjGPdIkLvhtWXahOzrL/ABQThh+DjmK9UjEzM8sU7Kx21n8Tx9wk0pQpPTSuq9nLpSvYaqe3SLl2UvJtlbxPjlxcNW8o0quKmIujGWZtZWYtvk/BIx4nfVpZtqVy7mjJwS1RTnJ5WIptapPON1zJ3BrH9nQoxjVvKjbjHLxCGnnPbGlNxbb54Sjq5nStfWXnv1JvM0rxHr++ErhPDnSapUUneVIZcpLVGhFS3m04rMcYxzUpbJNLJ2uHCEIOc6kox06qstUn1eX03zstlyWyNPCOFfx4Pd1K03rq1Je1Un3vuS5JdF6mx0JvLaz154+eGbero9Lshp/kG+ldkefD6nRY+L+eDD+BV8PXIduVnC6RvVdYzkpf49VdF8TJTmmlJNLPMLEyurNa5Nvlj5d3+v8A5tnb57Ky9/RbN7teRC4bWhDUtWqcnlyxhLHspLOyS8e99S0hWg9ovON8dW31K0huweG1st/Brrk9jTTS67Lfv8SFxe+y8ReXylJPn7vjFfXc3cNqZisgb6WuDzTk4+XL1XJljbcda2qx/wA0PuiGa6tLPL7r6AdPbXUKizCSl5c15rmjcccqTT1RbjLvjsWdrxqUdqq1L+0efquoNXwNdCvGa1RakvD6PuNgUAAAAAAABorFZcxLecSNVogUFWDIdzaRmu1FPz5+j5o6GpakedqBw93bVIPsN6e6W6/155K67hTqLFeipeKSf/v4H0CrZp80V9zwqL6GJ6dZYtSs+XEWXAqEZOdDDlskp76XqT1R37MtsZeefLfD7H9K8LlTpyrVpKdxWlOpOe7Si5PRTjndRS3x4srrngu+VzXLvRdcKrS0xpyejEYpT58tuRa1mPMsV6NazsNFxdNycYyxjqkmQKlndvdVnKPovsWtbhTT1LE1/an91zRsq10oT0vLjB+fI012+7kL2vWjtrm3pg9pNby9SBXv7mCi3VmlLU49p8ovG+S/uZxnltb5WPRbGPEeEwqRprdSjTS+O/3K4WradyUC041cYzKs2veUX9UWPDuMSqNqcYSWOiw/kU9zwSql2WpL4PwNvBbWcW9S0vuZJa6UWieXTW37KeZRa8t0Z3K1bU5L7oip7bmi9mlCUvAxr1cMb23mt1HK93f5Gyyu9Oxz/DuM1oZblqj3S3+Zd23F6FXH7i/bl38/TK+5pzmy4pXiZIhXRVXFKWlSitXVtNN4+5DheMpNsdLrR6oplHSvydb3qYSLQlwjOD1U5aX3dH4NFvw7jEZ9ifYny91+T6PwKulWTMJ0Yyz0yGtdYCk4JeSz+zN527LfPbp8C7DQAAAAAGLiZADW4GEqRvAEOduQ69uW7Rpq0wOcr0SBcJrPc/qdFXtyDVtfACktrvQ/bw+mHh5J8LyMk3UhF7LtLZv8mi74TGW67LINSjWg8ta0u4azixrcKo1N6c8P+stvnyNHELNw3aaz38jCjVi990/H8m63vasI4UsrPKW6x5MYIkU8ZMJpPZosYXtKeYzp6eW9Pbn4cjD/AHYpb0qsZe7Psv8AAZmFflrk9u58iBxOhOcXhL6ZLS6sqkN5QlHxxlfEjZfmThOXGXtvVj7ccLoluj21k877M62pPvW3Ih1banL/AA4fulxxtu6r7fjdSi0ovPuvl8OnoX9tdUbn/wAdbu6N/f6lfW4VSaUcbpLfrnC1Nvq85+JBrWUqTU/ah0xzC9/uvJW0ovEufTHXy7zQ6rzgtv01f646qm6jJRjqW+rrv6o8/UtOOVOMe/VJdX4r7iG7eNhFpcQcSx4feSnlvl9+456zt5VZ4XLm+5I6NxUYqEeS2CdOZlY20u1Gf9ZLfvWTooVTkaGcwy9tWceEd8v1wXVG4DvC5UjIh0KuSVFhWQAAAAAAAB40egDTOmaZ25MPGgKypbEadqXTga5UgOdr8Pi98b962ZDnYzXsvK7ns/x8jqZ0DTO2A5WUce3Frz/PI8VBc0zo6lqQqvDI9Fpfu7fFcmExAo3FaHKTa7nuj2pcU5/8yks98Oy/kbJ2VRcmpeez/HyI9TK9qLXmtvitgmMZWFKXsVXHwqLPzX4ItfgtTpGM13wkn8uaN70vdfLdfI22+Ep9rfT2fPPMmJMarKtpUi3ri8ZljboV3EYTx2N99zqIX9aK/vHqnhr4STNFe4pzaVSiotxcsw25ZLyxbpxMKzhlGoqEJacJ1FnC8ZZ+hohfyVZwjhxb0uL5PpjH3Ohp1oqCjTqSjDTKOJLr1ey8SstOA4qKqpxkk9Wz5+jGudqWjIhPpUYU01BYy2e04Z3ZlOPQ9XcuQd4hlF758MLyJdBkenAsLagG021LCCI1vTJUUBkAAAAAAAAAAAAAAADzB44GQA1SpmuVEkgCDO3NE7UtNJi4AUVbhkHu4rPetn8UQqvCP6yf+ZZ+fP5nUOma5UQOSqWVZe95P7P8kapTecyTjtjdP68jspW5qlahMcl+zqjGMZ40tvbfOfIyjR7Upvnv8zoa3DIS5wT9PuR3wiPTUvDU8fMJ2qyks7L1f28yVTok6FklslsSKVqFxHt7csaNEzpUcEmMQryMTMAAAAAAAAAAAAAAAAAAAAAAAAAAAAPGjzSZADB0zB00bgBo/aMo0zaAPEj0AAAAAAAAAAAAAAAAAAAAAAAAAAAAAAAAAAAAAAAAAAAAAAAAAAAAAAAAAAAAAAAAAAAAAAAAAAAAAAAAAAAAAAAAAAAAAAAAAAAAAAAAAAAAAAAAAAAAAAAAAAAAAAA//9k=;clipPath=inset(27.78% 0% 21.56% 8.22% round 5%);" vertex="1" parent="Ad-eanvACwM0OZeesIjt-18">
          <mxGeometry x="120" y="5.519999999999527" width="100.57" height="55.52" as="geometry" />
        </mxCell>
        <mxCell id="Ad-eanvACwM0OZeesIjt-22" value="" style="shape=image;verticalLabelPosition=bottom;labelBackgroundColor=default;verticalAlign=top;aspect=fixed;imageAspect=0;image=data:image/jpeg,/9j/4AAQSkZJRgABAQAAAQABAAD/2wCEAAkGBxETEhIQERIWEhAWEA8QFRYQFRcYFRUVFRUWGBURFRUYHSghGBolHRUVIjEjJSktLi4wFx8zODMsNygtLisBCgoKDg0OFxAQGy0iHSUtLi0tKy0tNysrKystLS0tKy0tLSstLjctLystLS0rKy8tLTAtLS0tLS0tLSsyNzgtNP/AABEIAOEA4QMBIgACEQEDEQH/xAAbAAEAAgMBAQAAAAAAAAAAAAAABAUCAwYBB//EADoQAAIBAwIDBQcEAAMJAAAAAAABAgMEERIhBTFBIlFhcYEyYpGhscHRBhMUUkKC8AcVIzNDU2Ph8f/EABgBAQEBAQEAAAAAAAAAAAAAAAABAgME/8QAJBEBAAMAAQMEAgMAAAAAAAAAAAECESEDEjFBUXHRgfAEEzL/2gAMAwEAAhEDEQA/APuIAAAAAAAAAAAAAAAAAAAAAAAAAAAAAAAAAAAAAAAAAAAAAAAAAAAAAAAAAAAAAAAAAAAAAAAAAAAAAAAAAAAAAAAAAAAAAAAAAAAAAAAAAAAAAAAAAAAAAAAAAAAAAAAAAAAAAAAAAAAAAAAAAAAAAAAAAAAAAAAAAAAAAAAAAAAAAAAAAAAAAAAAAAAAAAAAAAAAAAAAAAA8cjCVRAZyljd7Lnua6FxCazCUZrvi018UfJf1/wDruNaas6Mpfx9ajWnSxqqLO8YeH18udTY2VrJ6rG9nQq8sa2nnu0S0yfplGZtjzR/Im1pimTHzm/D7pk9PlFt+oeM2201C8gvDE8fJ59GXXDf9qFtJ6LmnUtqm2dUdUV58pL4CLRPhr++tf9xNfn7d6CBw7jFvXWaNaFTwjJZ9VzRs4hfRpRy929oxXNv8GnaLRMbEt1e4hBZnJRXvPHw7yG+N2/8A3F8JfgobirrlqnvL6eC7kYpfD4A10MeNW7/6i+EvwbYcSoPlVh6yS+pzTpruMJWyBrsYVE+TT8nkyOJdulvyfhzN1C7qr2Ksn0w9/lIGuwBz1vxyovajGS93Z/csKHGaMtm3B+/t8+QXViDyMk91uvA9AAAAAAAAAAAAAAPGzXOoKkiBcVgN1S4Pm36y/Ute5/cs7Ba4RSVaopRinnP/AA4uTW2z5c/Ln0/G5uVKpHd5ST05zhtZ5b8snzif6b0Sc7a4lRn1WrKb37Mu9eDycr3ycebrxa2R6eueVTwu3hQlquZ17W4UnoqaFKlusb9l6nu/AvqlJ11mdK2v4f3oSVOt45TbXpqRolfcRorFajG5p9XDZteOFjGPdIkLvhtWXahOzrL/ABQThh+DjmK9UjEzM8sU7Kx21n8Tx9wk0pQpPTSuq9nLpSvYaqe3SLl2UvJtlbxPjlxcNW8o0quKmIujGWZtZWYtvk/BIx4nfVpZtqVy7mjJwS1RTnJ5WIptapPON1zJ3BrH9nQoxjVvKjbjHLxCGnnPbGlNxbb54Sjq5nStfWXnv1JvM0rxHr++ErhPDnSapUUneVIZcpLVGhFS3m04rMcYxzUpbJNLJ2uHCEIOc6kox06qstUn1eX03zstlyWyNPCOFfx4Pd1K03rq1Je1Un3vuS5JdF6mx0JvLaz154+eGbero9Lshp/kG+ldkefD6nRY+L+eDD+BV8PXIduVnC6RvVdYzkpf49VdF8TJTmmlJNLPMLEyurNa5Nvlj5d3+v8A5tnb57Ky9/RbN7teRC4bWhDUtWqcnlyxhLHspLOyS8e99S0hWg9ovON8dW31K0huweG1st/Brrk9jTTS67Lfv8SFxe+y8ReXylJPn7vjFfXc3cNqZisgb6WuDzTk4+XL1XJljbcda2qx/wA0PuiGa6tLPL7r6AdPbXUKizCSl5c15rmjcccqTT1RbjLvjsWdrxqUdqq1L+0efquoNXwNdCvGa1RakvD6PuNgUAAAAAAABorFZcxLecSNVogUFWDIdzaRmu1FPz5+j5o6GpakedqBw93bVIPsN6e6W6/155K67hTqLFeipeKSf/v4H0CrZp80V9zwqL6GJ6dZYtSs+XEWXAqEZOdDDlskp76XqT1R37MtsZeefLfD7H9K8LlTpyrVpKdxWlOpOe7Si5PRTjndRS3x4srrngu+VzXLvRdcKrS0xpyejEYpT58tuRa1mPMsV6NazsNFxdNycYyxjqkmQKlndvdVnKPovsWtbhTT1LE1/an91zRsq10oT0vLjB+fI012+7kL2vWjtrm3pg9pNby9SBXv7mCi3VmlLU49p8ovG+S/uZxnltb5WPRbGPEeEwqRprdSjTS+O/3K4WradyUC041cYzKs2veUX9UWPDuMSqNqcYSWOiw/kU9zwSql2WpL4PwNvBbWcW9S0vuZJa6UWieXTW37KeZRa8t0Z3K1bU5L7oip7bmi9mlCUvAxr1cMb23mt1HK93f5Gyyu9Oxz/DuM1oZblqj3S3+Zd23F6FXH7i/bl38/TK+5pzmy4pXiZIhXRVXFKWlSitXVtNN4+5DheMpNsdLrR6oplHSvydb3qYSLQlwjOD1U5aX3dH4NFvw7jEZ9ifYny91+T6PwKulWTMJ0Yyz0yGtdYCk4JeSz+zN527LfPbp8C7DQAAAAAGLiZADW4GEqRvAEOduQ69uW7Rpq0wOcr0SBcJrPc/qdFXtyDVtfACktrvQ/bw+mHh5J8LyMk3UhF7LtLZv8mi74TGW67LINSjWg8ta0u4azixrcKo1N6c8P+stvnyNHELNw3aaz38jCjVi990/H8m63vasI4UsrPKW6x5MYIkU8ZMJpPZosYXtKeYzp6eW9Pbn4cjD/AHYpb0qsZe7Psv8AAZmFflrk9u58iBxOhOcXhL6ZLS6sqkN5QlHxxlfEjZfmThOXGXtvVj7ccLoluj21k877M62pPvW3Ih1banL/AA4fulxxtu6r7fjdSi0ovPuvl8OnoX9tdUbn/wAdbu6N/f6lfW4VSaUcbpLfrnC1Nvq85+JBrWUqTU/ah0xzC9/uvJW0ovEufTHXy7zQ6rzgtv01f646qm6jJRjqW+rrv6o8/UtOOVOMe/VJdX4r7iG7eNhFpcQcSx4feSnlvl9+456zt5VZ4XLm+5I6NxUYqEeS2CdOZlY20u1Gf9ZLfvWTooVTkaGcwy9tWceEd8v1wXVG4DvC5UjIh0KuSVFhWQAAAAAAAB40egDTOmaZ25MPGgKypbEadqXTga5UgOdr8Pi98b962ZDnYzXsvK7ns/x8jqZ0DTO2A5WUce3Frz/PI8VBc0zo6lqQqvDI9Fpfu7fFcmExAo3FaHKTa7nuj2pcU5/8yks98Oy/kbJ2VRcmpeez/HyI9TK9qLXmtvitgmMZWFKXsVXHwqLPzX4ItfgtTpGM13wkn8uaN70vdfLdfI22+Ep9rfT2fPPMmJMarKtpUi3ri8ZljboV3EYTx2N99zqIX9aK/vHqnhr4STNFe4pzaVSiotxcsw25ZLyxbpxMKzhlGoqEJacJ1FnC8ZZ+hohfyVZwjhxb0uL5PpjH3Ohp1oqCjTqSjDTKOJLr1ey8SstOA4qKqpxkk9Wz5+jGudqWjIhPpUYU01BYy2e04Z3ZlOPQ9XcuQd4hlF758MLyJdBkenAsLagG021LCCI1vTJUUBkAAAAAAAAAAAAAAADzB44GQA1SpmuVEkgCDO3NE7UtNJi4AUVbhkHu4rPetn8UQqvCP6yf+ZZ+fP5nUOma5UQOSqWVZe95P7P8kapTecyTjtjdP68jspW5qlahMcl+zqjGMZ40tvbfOfIyjR7Upvnv8zoa3DIS5wT9PuR3wiPTUvDU8fMJ2qyks7L1f28yVTok6FklslsSKVqFxHt7csaNEzpUcEmMQryMTMAAAAAAAAAAAAAAAAAAAAAAAAAAAAPGjzSZADB0zB00bgBo/aMo0zaAPEj0AAAAAAAAAAAAAAAAAAAAAAAAAAAAAAAAAAAAAAAAAAAAAAAAAAAAAAAAAAAAAAAAAAAAAAAAAAAAAAAAAAAAAAAAAAAAAAAAAAAAAAAAAAAAAAAAAAAAAAAAAAAAAAA//9k=;clipPath=inset(27.78% 0% 21.56% 8.22% round 5%);" vertex="1" parent="Ad-eanvACwM0OZeesIjt-18">
          <mxGeometry x="290" y="5.519999999999527" width="100.57" height="55.52" as="geometry" />
        </mxCell>
        <mxCell id="Ad-eanvACwM0OZeesIjt-23" value="" style="endArrow=none;dashed=1;html=1;dashPattern=1 3;strokeWidth=2;rounded=0;" edge="1" parent="Ad-eanvACwM0OZeesIjt-18">
          <mxGeometry width="50" height="50" relative="1" as="geometry">
            <mxPoint x="230" y="41.07999999999993" as="sourcePoint" />
            <mxPoint x="300" y="41.07999999999993" as="targetPoint" />
            <Array as="points">
              <mxPoint x="230" y="41.07999999999993" />
            </Array>
          </mxGeometry>
        </mxCell>
        <mxCell id="Ad-eanvACwM0OZeesIjt-24" value="" style="shape=image;verticalLabelPosition=bottom;labelBackgroundColor=default;verticalAlign=top;aspect=fixed;imageAspect=0;image=data:image/jpeg,/9j/4AAQSkZJRgABAQAAAQABAAD/2wCEAAkGBxEODxARDw0QEA8SDQ0ODxANDw8QEA4QFRIWFhURExUYHSggGB0mGxUVITEhMSkrLi4uFx8zODMsNygtLisBCgoKDg0OGhAQGyslHx8tLS0tLS0tLS0tLS0tLS0tLS0tLS0tLS0tLS0tLS0tLS0rLS0tLS0tLS0tLS0rLS0tK//AABEIAOEA4QMBEQACEQEDEQH/xAAbAAEAAwEBAQEAAAAAAAAAAAAAAQQFAwIGB//EADMQAAIBAgMGBAQFBQAAAAAAAAABAgMRBCExBRJBUWFxIjKBsUJykdEGE1KCoSRjweHw/8QAGgEBAAIDAQAAAAAAAAAAAAAAAAEEAgMFBv/EAC8RAQACAgEDAgUCBQUAAAAAAAABAgMRBAUhMRJRIjJBYXGBoTOxwdHwExQkNJH/2gAMAwEAAhEDEQA/AP3EAAAAAAAAAAAAAAAAAAAAAAAAAAAAAAAAAAAAAAAAAAAAAAAAAAAAAAAAAAAAAAAAAAAAAAAAAAAAAAAAAAAAAAAAAAAAAAAAAAAAAAAAAAAAAAAAAAAAAAAAAAAAAAAAAAAAAAAAAAAAAAAAAAAAAAAAAAAAAAAAAAAAAAAAAAAAAAAAAAAAAAAAAAAAAAAAAAAAAAAAAAAAAAAAAAAAAAAAAjY8zqJauxqyZseON3mITETPhxeLj1+hSt1XBE9tz+jP/Ss9wxEXx+uRuxc/BknUT3+6Jx2h1Lm2AAJAAAAAAAAAAAAAAAAAAAAAAABDdjG1oiNyOFTFxWmfbQ5ufqmGnavefs21xTKtPFSfG3Y5GbqmbJ2jtH2/u2xirDiyhNpmdy2aCAJHejiXHXNfyjp8XqV8Xw37x+7VfFE+F2nUUlkz0GHPTLX1UlXmsx5ezcgJAAAAAAAAAAAAAAAAAAAAIlJLNuy6mF71pG7TqExG/CrVxi+FX6vQ4/I6xWO2KN/durhn6qdWrKTXFcc7W7LicXNycmad3lurSI8PMop6rRpruaGSSBNyQuAJgCUJjJp3TszZjy3x29VZ1KJrE+V2jik8pZPnwZ3+L1Ol/hydp/ZXvimPCydZqCQAAAAAAAAAAAAAAAAQ3bUi1orG5FWtjEso5vnwONyer0p2xd59/o3VwzPlTnNyebucLNnyZp9V523xWK+Hn8vO/G1vQ1aZbe90nSNp3B6Ueo3B6YNm4NQbRuDSdocRo2WINoJSm5KHajiHHquX2OhxeoZMPae8ezXfHErtKqpaP04noePyceeN0n9Pqr2rNfLoWWIAAAAAAAAAAAAADjiMQodW9EUeZzqcaO/eZ8QzpSbM+rWlLV+nA81yOXlzz8c9vb6LVaRXw8lZklMCUyUJTAm5KC4C4EXI2FxtJcbQE7CxCUWJBNrNa9DKl7Un1VnUomIlbo4vhL6/c73E6rFvhy9p92i+LXeFpM7MTExuGlJIAAAAAAAAAAADKxkr1JK+fht1y0PJ9V3PKn8Qt4u1XI5zaklCQJTAXCE3GwuNgQA2AAAAuTsBsQTEiGZDpRruGma5Mt8bm5ME6jvHswtjizQo1VNXXr0PTcbk0z09VVa1ZrOpdCwxAAAAAAAAAADF2rZTbbst1Nt5JHleqR/yZ/ELuH5FeliE0rvei14ZRd8u/FFGa+7PXssJ+q5o160JCEgCBNwFwFyEFwFxsLgLhJcBcIGTCXiU0tWl3NsQK1XGpeVN9XkidRCdL+w6rmpt/qj6ZM7nRZ3W/wCYV88d4ah21cAAAAAAAAAAMLb9Fz34p2bpqz68PY8x1Xtyd/aF3B8rE2JiKclOlCDpzp2daDjZKpNt70H8Sdpdsines6i0zuJ8M5akJuGma4pmqYPKxTmpaeqeqNej8vYQkAQAAgAAAgCQA41sRGGrz5IaTpTq46T08K/k2RCdKzk3qzOB5uLeBvfh7yz+aPsztdD+W/5hW5HmGud1XAAAAAAAAAADK2p5/wBq92eY6v8A9iPxH9VzB8rPVGKk5qKUmrN80UdNj0zGRyas7oxnuLFHEJ5SyfPgzCTSwEAAgABAAAOVavGGrz5LUJiFGvjJS0yXQzrSZ7J1EKzUuCvmuNsr5s6vG6Vkv3v2j92q+aI8OdOV0m9XFP8Ag5949Npj2ltezFAJS3vw95Z94+zO30P5b/mFbkeYa53VcAAAAAAAAAAMzasPFF81Y4HV+PabxkjxrSzgt20oM5LeMhDy0YylylExTD3RxDjk81/KMZJhdjJNXTuhDFIAgAPM5qKu3ZDQo18a3lHJc+JlFJllrXlQnXioucqkVG7i5Skrby1XV9Dq8bpeS/e3aP3ar5ohlYvbqTtRg3/cmtPlj9/odzBxMWH5Y7+6tbJa3l32LVqSneT37qzl019C0wXKPlj8sfY8Vl/iW/MulHhWx20oUXu2c6jV1CGr6t8ETTHuNz2hGnnZ7ryvOtuxTvuU4LJLg23m3bjoY5Jp4qy1p9Z+HfLPvH/J2eifLf8AMKnI8w2Duq4AAAAAAAAAAcsRQjUjuyV17dURMRMalMTMMXF4eVF+K8qfCfGPzfc4fL6br48X/n9lmmXfl4TOPMa7No0QlzkjWlykiJSmnUcdDGYNL1Kqpd+QifdjMadCdTKFevi1HJeJ9NEZxX6J0zsRWunKclGK1lJpRR0uP03Ll727R/n0a7Za18M17WhvJU05Z+eSe7+1Hc4/CxYfEd/dXvkmzI/EkI1a6Si7RhFLhdvxOS+q+hba3LZuHqb6i4b8c3fJSVvcD6vD0I01dXTaV7+1iJmIjcnlzpq0YpqzUYpp6p2PF5fnn8y6UeHCrKMZ3VNyqOK8SSyV7K74cfoK19UbmTenvDQqTlnnJ6Qhd2vbV8dNcjfj41s06xR+ssPVry+t2RhHSp+JWlJ3ave3JHoODw441Jje5nyqZb+uV8vNYAAAAAAAAAAAIavk9AMfGbOdO8qSvHV0+XWH2Ody+BXL8Ve0t1Muu0qsJqSy7PmnyaPPZcVsdvTaO6zE7JI0zCXOSMZZQ8WISPLQi3gcKuIm8t927k1mUahR2liJUaUqkbSa3YqMl4bt+Z2zfY9F0nFScc3mO+1XPad6fK1cbUqS/qJOWeUtIx/bou52Vdu7M2c3aUWnHK6egG1WwtOWsVpZdLcSJnQ8Qw8IW5rNc+ll/wAjm8nqePH2r3luphmfKZVeWXXj/o4Wfl5c0/FP6LVcda+HjXJJtvRLNs14sN8s6pG0zaI8tPBbEnOzqeCPJeZ/Y7XG6VWO+Tv9le+f2buFwkKStCKXXi+7OxWkVjUQrzaZ8u5kgAAAAAAAAAAAAAAAz8fs1T8dN7lTn8MukkVuRxqZq6s2UyTVlbzu4yW7NaxfHqnxR5zk8S+Ge/j3Wq2iSSKUwzh5aIS8sxnwlSq6kVS4YzA/nxir5xldW65Hp+j/AMK35UuRHxQpw2JZuLV9bNaPqdZoauGoxpQSSjHLNxyi7ckc/kdRxYu0d5baYbWTKty+r19FwODyOdlzeZ1HstUx1qp1oSm7OTjG78t96acbWvqs236I14azM/DG5/kyn7tbZ+xZzUb+CCSS3s5NI6vH6VufVln9Iab54jtDfweAp0V4Y58ZPNv1OzjxVxxqsaVrXm3laNjEAAAAAAAAAAAAAAAAAAFbG4KFZWks1nGSylF80zC9K3jUpraYlh4iEqLtV0+Golk/m5M8/wA3p00+LH3j2W6ZIsixyG2HOZjPhkpVnmKpl0ozt9zscHm04+O0W878K+XHN5h4xONjTtd6tJX4vkl6mvNzc/J3EdoTXHWivSrSneUo7sbR3d5+NtrNSXDPIpzj3MVr3ls20sFsypVztuQ/VLj2R0uN0m1u+Xt9mq+aI8N7BbLp0c0t6X6pZv05HcxYKYo1WFa2SbeV43MAAAAAAAAAAAAAAAAAAAAAADxVpqacZJNPVMiYInTCxmz5UM4Jzpfp1lT7c10OTzem1yfFTtP81nHl+kqm+pK6d0edyUtSZraNSsxO1KtqY1ZCeRn6ZmdQxWMLgKlZrdjkvjkrJdjqcbpeS/e/aP3ar5Yq3sDsenSs34585cOyO5g42PDGqwrWyTZpFhrAAAAAAAAAAAAAAAAAAAAAAAAAAAycbsdSblSe5J6r4Zd0VOTw8eePihtplmrOnsOs38He79jnR0aIn5uzd/uIaOC2HCFnUf5kuvlXZHSwcPHh+WGm+WbNVK2haakgAAAAAAAAAAAAAAAAAAAAAAAAAAAAAAAAAAAAAAAAAAAAAAAAAAAAAAAAAAAAAAAAAAAAAAAAAAAAAAAAAAAAAAAAAAAAAAAAAAAAAAAAAAAAAAAAAAAAAAAAAAAAAAAAAAAAAAAAAAAAAAAAAAAAAAAAAAAAAAAAAAAAAAAAAAAAAAAAAAAAAAAAAAAAAAAAAAAAAAAAAAAAAAAAAAAAAAAAAAAAAAAAAAAAAAAAAAAAAAAAAAAAAAAAAAA//9k=;clipPath=inset(21.56% 14.44% 20.67% 17.11%);" vertex="1" parent="1">
          <mxGeometry x="1311.64" y="5185.429999999999" width="91.81" height="77.5" as="geometry" />
        </mxCell>
        <mxCell id="Ad-eanvACwM0OZeesIjt-25" value="" style="shape=image;verticalLabelPosition=bottom;labelBackgroundColor=default;verticalAlign=top;aspect=fixed;imageAspect=0;image=data:image/jpeg,/9j/4AAQSkZJRgABAQAAAQABAAD/2wCEAAkGBxMTEhUSExMVFRUXGBgaGBgWGBgVGRsaGBcXFhgZGhoYHSkgGBolHRgVIjEjJykrLi4uGB8zODMtNygtLisBCgoKDg0OFRAQGi0ZHR0rKzctNzEtLS0tLisrLS0tLTctKzAwLS0tLSsrNysuNy0tKy0tNy0rLS0rLTc3KysrLf/AABEIAKgBLAMBIgACEQEDEQH/xAAcAAEAAQUBAQAAAAAAAAAAAAAABAIDBQYHCAH/xABEEAACAQIDBAgDBgMGBAcAAAABAgADEQQSIQUGMUEHEyIyUWFxgZGhsSNCUnKSwTNishRjgqLR8BWjwvEIFiQ0Q1Nz/8QAFgEBAQEAAAAAAAAAAAAAAAAAAAEC/8QAGxEBAQEAAgMAAAAAAAAAAAAAAAERAiESMUH/2gAMAwEAAhEDEQA/AO4xEQEREBERAREQEREBERAREQEREBERAREQEREBERAREQEREBERAREQEREBERAREQEREBERAREQEREBERAREQEREBE+EyFiNr0E71amPLMCfgNYE6JgK++GFXgzP+VT/wBVpjcRv0v3KJP5mA+QB+sDcYnO8RvtiD3RTX0BJ+Z/aYvE7x4p+NZx+U5f6bS4murO4AuSAPPSQMRt3DJ3q9P0DBj8FuZyOvimbVmLeZJP1lhqkYOp/wDnPCZgudtfvZWCj1uL/KZ6lVVgGUhlOoINwfQicKZ5P2NvBWwzXpt2TxRtVPtyPmIwdpia7u/vfQxNlJ6ur+BjoT/K3P00M2KRSIiAiIgIiICIiAiIgIiICIiAiIgIljHYxKNNqtRsqKLsdTYe2s1fE9ImEXuCpU/KuUf5yD8oG3xOd4npJY/w8OB5u5PyAH1mKxG/OMfg6p+RR/1XMYOsyPicfSp9+oifmYD6mcbxO2a9Tv1qjeWZrfC9pEDe8uDreI3twi//AC5vyqx+drfOYvEb+0h3KTt+Yhfpec7DT7mjEbliN+ax7iU19bsfqPpMbX3nxT8apHktl+gvMDnnwVIE6vi3c3d2b8xJ+plkvI+eUmpKJBqSg1ZZLy2akC+1WUNVlhnlDPAvNUlBYSw1SUGrIL5eUFpYNSUmpGi9nm1bu791qFkq3rU/M9sejHj6H4iadmlBeRXf9jbaoYlM9Fw3iODL+ZeI+kyE86YXGvScPTdkccCpsf8At5Tom7XSUptTxgynlVUaf4lHD1GnkIHR4lvD11dQ6MGUi4ZSCCPIiXICIiAiIgIiICIiAiIgIiIGtdIt/wDh9btMo+zuVtfKaiBhqCNRcTjFKmwLZbOgAOh7VtbkLxsOfH3na+kFb7PxH5Qfg6mcHOIyAvcjLrccdNYGUp1AQCJeUyFhqy1e0tlc624K99bj8L/I+UkU6vLgRoQdCDzBHKXUSdJVl85azSsGBXaLz4J8lH28ZpDxm0KdLR2APhrf4CQ6O2BUJFJHqEcbZR8mNz7CTRl88+F5gqu3yhtVw9ZPVf8AWSP7aKqXppWqA6XpLqCLXBLCynhxjRks8tYiuEUsxso4nwmJr7CcqHao4J4JUdWIN9A1jlb28eUkUMZWtlahULciiMyH4CyiAo7XpVDZWv7EfUSzjNtU0OUlifBVJl2nsRqwJxFJUNxb7QuuvMLc5CPaTMNssr2XqiogHZ7F3HgM5I09RAw7bTqEBlw9QoeDN2b+kjil1xuK9RGHGm1lI9LcRNkpYCkj51DgnvDN2SfEqALyoqmYN1aZhwbKtx6E6j2jBri7OxD6NUOUc0BBPrb9pJTDYhAEFKnlA49bqfNibm59NOHKZpqxtxMss8ioyU2sM2UHmFJI+JA+k+MJcdpaLQKGEoJn1mltjAy2wd5MRg2vRfT7yNqjeo5HzFjOr7r7+4fFWRz1NY6ZWPZY/wAjcD6Gx9Zw4mW2aB6iicN3W6RcRhbJVvXpDkx7aj+Vjx9D8p1zd/ePD4xM1CoCR3kOjr+Zf34ecDLREQEREBERAREQEREDB78rfZ+K/wDyY/AX/aefCZ6H3xW+AxY/uKv9DTzgzXB1t5wIeGaxvS4ZgGQ8bJemSL/4D7TO7N2slZVzmzZRZuLKNQA4+8twfMcprRJOhOSqFADXFmZxzt5pxldRrs1uxV0UDk3Cr7E9r4wNzzEaMBfiOYI8VNtRLuYzX9n7VI+zqKcpLWXnZTbOh5H6+czKvoCDmQ6BuFv5WH3T8jygTAZcBkYNKw8qJJ1GUgMp4gi4PtMbjNhJUN1YUivcYEkj4Dh6ybnn0PAsYbZxv9tV6ywsAq5PAkkkm508BJiU1UWRQovfTmfE+ekt9ZKbwLxbn8P98oesTxJ95HzSk1IF1qkts8tl5QXjRW7y0zyhnlt3kFTPLbtLbtKGaFVM0ts0+M0sVawXUkD1NvrArZpbZpCfa1K9g2Y+C3Y/KXUXEPqmGqW8alqQ+L2gXWaUMY/4dXPfrUKQ8Bmqt8tPnK12RTtd62Iq2tfKFpLqbcgxt7wI9SsBxIHqbS3hNs5Kgai79YD2TSzFh6ZZseyNgYVgGWklze91qYhx4XBNlv6ST1mUrlbKLLemQKea51tk0C28fA+ImeXKQb50bb84rFOMPi8O6nLdKxAp5yBcqyHnYE3AtpwHPo84t0fNTbaNEjPn+1LXtkH2dQWXmeK6nwM7TLAiIlCIiAiIgIiIGP3hpFsLiFAuWo1QB6ownmIPpeerZy3pC6Ni5OJwKgNqalEaBueanyDeK8Dy14hxQ1NAW7VMkuDzWwFQDy4OJUTlCiobqLsri9x2rC/+FxpKnolCSosdFZCLd1jmFjwNiwtytLNPgcgurEKyHiAL0yRz/DrAuOLWWoe6AFqC97m9M+fAqfhJmA2m9E5Wt3UBvqr5rqQRzFxMeputx2qbm7A8Vuvy7S8fSfAez+OkxLea3AcenaDfKBu2ErK4vTvpqU4svmvN1+Y8+IurUFrjh+2k0nD4lqZVlJKEswYXutxnA8vvfCbLgNoLWANwrtrfgr3/AKH8+B524wMmHlSvIecgkG4I4gg3BlfWWgSs+mk+FpFNaUVMQANSB6m0CUakpZ5h623qCm3WAnhZbsT8J8XaNV/4WGrMPFh1a/FoGWL+coLTFMuKPebD0RzuxqMPZARLbYMH+Jiqz+VNVpD4m5+UDJ1sQFFywHqbTG1dt0QbZwT4LdvpPiYTDKbigHPjVdqh+FwvykpMeUFkyUh4U1VP6RAsLia7/wAPDVSORcCmvxefP7LiT3qmHo+5qt8FFvnLOK2qvF6lz5m8sJtEvrTpVKg8Qpy/HgIGSp7DLWz1cVVzd3q0FJTwGh7RPEfETJYHdK7DJghqxXPXZnAIXOb5jbgPDjpxkym+2cUBVSlQw9IhrO701QhiQ3fZmYcrcOyLcJcxG42IemcRjNp3Qp1jf2dWr5k7TAhnKqR3j7+cmwQsZagjDr6aMpACUVUKQQWvmBXQADke8PO1OK23s2mKeYvWbLeoQ7Ldr09Bmtp/FGg/Drzml7cxOEp1SmGR66i32mJJuW+92KbBbet5tm6O9+Eo0dcNh1rcFZaVM1GYk82DZRewFhwEnLl4zc1ZNuKtn7eq1DbB7Pepw7tN3+4wP2gAYC7Bu8LZF87x95cdtBLU8Y1PDBu2tN2LtbM/aCJmPF37xB+Am/b67bxmC2clRmRqgKUqx/vGop2lAAWws/LmNJ5/xeINRy5vc+Jv85ZbUdS3HwFKurMdosPxJTpFGsOBLM+UcTpYyPt3DUqdRRRao1NqSsDUKlrlqinuAC3ZFpznALVZhTpk3JFgDluSQAPpxnWOkJMuLC2y5aFEW000OmmnOZkvl76a6xM6KRfaNPySp/Tb953OcP6IhfaA8qVQ/wBI/edwm2SIiAiIgIiICIiAiIgaJ0g9HqYwGvQtTxIHolW3J/BvBvjcWtwPaWAqU6jo6tSrJmUqwsbnx9wCDwN768Z63mrb87k0doU9fs66j7OqBcj+Vx95PLlytA8y5tWZOy4uMvjwqaefe0859zas1PRhoV5HKc2g56FtJld4NhVcLWNHEJkqKQQRqGAJ7Sn7ykE+nA2ItMOOID9l11zaWNiU19ra+kCoHLmakOHZKHXuG+niMpMA5czUvuixQ30ym+niMpb4SldSA3ZqLqTyNrof21hNWF+xUWzHwNrofQ/75wNlwO1QQEq6gd1+LL4A/iXy5crSutQxDMeqqUSgGrAO5sALnKq6AHS58Jgw02bdXeA4WnUypmZyupaygAOGBFrtcOeYtYGBYx271empfEVa4GbLZVSjqVD2AY5iLEG+WwvM1gej+mdXVSQwU52eudULA6FUtcZLnQEHWw1gbT3lq1VZAFpqzEkU8yk3TqyGN+1dePjzvYWtYKviMVWp0DWb7SoR2mOUGp3zYaai+ggQ6eNKDsBKY/kRU+YF5GxO0x9+p8WvNj2/u/gsLTVsViMRUDAkLRSnQBAsRmzs9QDUa2E5rS2qFIK0aKgG57Ocn3qEyaTtnae01ZstNXqN4IpY/ITMYbd7aVUZkwT01/FXK0APP7QjSbHu5vu2INHCUStKtUYW6oCjTVV7bfwl/CpFje5kbpk3hqUaxwtlK1FFUECzAFmUKSb8Cl9LchMzlbvWLymZ9aLtGr1TtTq4kFkYhhQXOLjiBUJAPqLibdsbd/Zj0DXqVcRWKrdleqlFC1rlV6sMza6X0vOVs1zc6nzmwbnB3xWFUPqMRSshNgQHVuXvyjnLZ1cXjZvc11Xby7N2dSU08JRp1XRWpdbTNYkkAt26xIOW4vbUaaaicd29tutiqrVajd63ZFlUAAKAFUBQLAcBOm/+IUk1MGPBax89TTH7fWchCDmQP9+U1GcbPu7vPiKKCmhIV2VGfTsg6ADTTS86B01kYXD4OjQZ1FjT7zMDTpBcgN+ySC178ZzDdejXNeh1aOR11NtFLLdWGp9PWdr6W90cTjzhRh1U5DVzliABm6ux14nQzPjJbc9tW7Mrz2bk34kzI7DNM1KaOp1q0+0vELexA89flOg0+ihKP/vNo0KN/ugjN8GIufSTKGxth4Vg4aviaiEEW7K3BuD2rc/AzWoz3TQubAMupJxlMA3sAep4sBxHHkZxTC7LztlUtUbTs0ab1D58h6TsmO3/AEbOv9kWopqZ161ri+UKLoBbx585Cwu+OKqOtJKlLCoxsTSpqgAsTz/1kmjTNidGm0Kxz9TUoKLFWq2pnxvYkEWt4TaukOqrY1srBgEprdWzC4XUX8ZhcftKtVJ6yq9TX7zFh7XkMmVG9dDgvtBvKhU/rpCdtnFehYf+uqeVBvnUpf6TtUoREQEREBERAREQEREBERAw29W7NDH0TRrrw1R10em34lP1HA85523y3SrYGp1OIGZGv1dVR2XHl+FhYEqfDmNZ6ikLbOyaOKotQroHptxB8eRBGqsORGogeRqy/dfUMbKw5Zl/1XhPlTXsvwbRHHgw+Yus3ff/AHEq7ObML1cKxGWpbVTfRalu617WbgfIm00lkyDhenr6gghl/wB+RgSFvJ2FPZ9zICm8m4Tu+5/aBJRCbkAmwubC+kym5lQNjMKwNwaqWPxkHAJXZuroXzvYCwuddPEAcbXOmsm7pYM0cbhqbKylatO4YEHUg6g+N7+8l+k3WudIlTLj8TRQkUkfKq66AAaa62vNXCmda3p6NsditoYmrTVFpO9w7sBpYcB4cuHKUUOjDDUiBi9pUw3OnS7TemXvfKNXGudErIdp4UFTmBqWI8erfj5WvMv05YcttJQAxP8AZ6dgoLE9uoOHLn8JsuyMNsjAVFrUKVerVW+V6hFIC4Kk2qlW4E/dPGS9odIV2zJRoK3AMVau9hwF7IBxPMyDk+y9y8dXt1eEqEHmwKibju30U4qjWo4jFVKFJKdRHYOwNwrBiL8AdJlRvVi8UzJ19QAIzGx6oAKLmxornHu3vwms19oOxzG2b8RGdv1vmb5yjom+9HZePek1au9QUg4C4cNUBzlSbugIHd8ZhKNXZeH0obPVm5HEVFufan1h9iBNOrYhm7zMfUkz7gtqDD1FqgrmU6AkgXsQO6QT6c4xG41t/aoutEUqK20FGiAf1VCQf0TC47eavV79So35qjW90TKnykDZ2xMXX/gYTEVByPVlF/W9l+c2bZ/RbtKpYuKGHH87mo4/w0wVP6owa9gqylaoZxSsjFFRcmd+SnIvDjxmOZp1jZ/Q3TFjiMXVfxFJUpL88zfMTZdndHGzKPDCpUPjWLV/lUJA9hKPP+Hc1Gy0laq34aStUb4ICZsWz9xtp1u7hGQfirMtIfpJL/5Z6Fw+HRBlRVRRwCgKPgJdgcb2d0P4lrGviqVPxWkjVT7O5UD9Jmy7P6JMAljVNeuR/wDZUKD9NLKLet5v8QMbsfYGFwoIw+HpUb94ogUtbhmbi3vMlEQEREBERAREQEREBERAREQEREC1icOlRGp1FV0YEMrAEEHiCDxE4T0jdHD4MnE4UGphuLJqzUvXm9Lz4jncazvcEQPH6gAWHCTcI3Z9/wBhOhdK24BoOcXhKX2BF6qJr1bXN3C8qZ04cDfgJr3R3jadJsS1WolMHD1VRn4iqwXqytgWBGpuo0gXNzcVVWsy0qL1mdRpTYK65KiVAwYqwADKt7ixBkmjs7GV6iYygiA57U1V1OQYdQASXOXKqoBcntWJtaT8Zv8A4anj1xARagWkENTKEq1nFNqZa7H7NTm5Lfsjlwo2PtbHtRWhgdm1OrXNZnViDnpikxzvkQ5gCTpxYwMm26+Nr06xxGLc1KbjMik1Fymj110VSM7G6qFAHPUiaTTxlqdRGL5uyKepXLZu2CoPG1+PhN3p7l7cxOtavSw4JBPbu1woUErRUKSFAHemTwHQzS44nGVqp4kUwtFT63zt73EDkjPbU/OMM5qnLSV6rfhpI1U/BAZ6C2b0c7Mo2IwlNyPvVr1j/wAwkD2mz0KKoMqKqqOAUAD4CB562ZuPtSr3MK1IEWLVnWkLHkVuX9ss2TZ/Q5iGsa+Lp0/FaKGofZ3Kj/LOyxA0DZ/RFs9LGr1+IP8AeVCo/TSyi3rebVsvdvB4b+BhqNI+KU1De7WuZlYgIiICIiAiIgIiICIiAiIgIiICIiAiIgIiICIiAiIgIiIAiaZX6LtmPWas1AnMb9WHdKYPMhUI4+HDym5xAxeyt3MJhv4GGo0j4pTVT7sBczKREBERAREQEREBERAREQEREBERAREQEREBERAREQEREBERAREQEREBERAREQEREBERAREQEREBERAREQEREBERAREQEREBERAREQERED//2Q==;" vertex="1" parent="1">
          <mxGeometry x="1455.09" y="5180.429999999999" width="147.32" height="82.5" as="geometry" />
        </mxCell>
        <mxCell id="Ad-eanvACwM0OZeesIjt-26" value="&lt;h1 style=&quot;box-sizing: border-box; line-height: 48px; margin: 0px; border: 0px; padding: 0px; margin-block: 0px; font-family: GeneralGrotesque-Regular, &amp;quot;Helvetica Neue&amp;quot;, helvetica, roboto, arial, sans-serif; background-color: rgb(255, 255, 255);&quot; data-v-a1ed169a=&quot;&quot;&gt;&lt;span style=&quot;font-size: 15px;&quot;&gt;&amp;nbsp; &amp;nbsp; &amp;nbsp; &amp;nbsp; &amp;nbsp; &amp;nbsp;D-Link Switch&lt;/span&gt;&lt;/h1&gt;" style="text;whiteSpace=wrap;html=1;" vertex="1" parent="1">
          <mxGeometry x="1440" y="5107.17" width="195.09" height="50" as="geometry" />
        </mxCell>
        <mxCell id="Ad-eanvACwM0OZeesIjt-27" value="" style="shape=image;verticalLabelPosition=bottom;labelBackgroundColor=default;verticalAlign=top;aspect=fixed;imageAspect=0;image=data:image/jpeg,/9j/4AAQSkZJRgABAQAAAQABAAD/2wCEAAkGBxISEhUSDxAQFRUQFhASFRUQDxAQEA8SFRUXFhUVFRUYHSggGBolHRUVITEhJSkrLi4uFx8zODMtNygtLisBCgoKDg0OFQ8PFSsZFRkrLS0tKy0rLS0tNy0tKys3KystKysrKy03KysrNysrKystKy0rKysrKysrLSsrKysrK//AABEIAOEA4QMBIgACEQEDEQH/xAAcAAEAAQUBAQAAAAAAAAAAAAAAAwIEBQcIAQb/xABHEAACAQEDCAYIBAUCAwkAAAAAAQIDBBEhBRIxQVFhcbEHIjJygcEGIzNzkaGy8BNCYtEUUoLC4ZKzU3TiFSRDY2SDk6Kj/8QAFwEBAQEBAAAAAAAAAAAAAAAAAAECA//EABgRAQEBAQEAAAAAAAAAAAAAAAABEQIx/9oADAMBAAIRAxEAPwDeIAAAAgAAAAAAAAAtMpZTo2eGfaKsKcds5JX7ktLe5GufSHpU0wsFP/3ay+cafnJ+AXG0GyiVaK0yiuMkjmXLOUq9rc3XrVKks2LWdN3JpywUVhHglrPnrPFabkTTHXlOtGXZlF8GnyKzkuCzVfFuL2p3a2tXAuqWXLVDsWu1R0di01o6XdqkXTHVQOZrP6dZSg0o2+vruz5KpfddfjNPaZezdJeVoxznVjOKebnTs9PNv03NxSxxQ0x0EDRtDpgt0bvxKNmlfj2KsG1tTzzJWfpon+ewwfctEo/JwY0xuAGsKHTNZ37SyWhdydOfNxMnR6WcnPtfxMO9Qvu/0NhMfeA+Vyf0iZMrVIUqdqWfVebFTpVqacnglnSikm20lji8D6oBcLgAFwAKAAAAAAACAAAAMbljLtnssc60VYx2R7VSXdgsWa59Iek6rK+NkgqUdH4lS6VV8F2Y+N4XGysq5XoWaOfaKsILVnPrS3RisZPga59IOlGUr4WGnmrR+LVScuMYaF438DXdst1SrJznKc5S0zqSbb+OPkWrhf2nfu0L4E1cT5RypUrTc6tSdWb/ADSlfduveCW5Fnmt9p3bo4fPTyJriO/EipLPTS0K7Bc5FqsnYvNaxbd12gv6awXDzYhHZtfMDH1LFO669NYPX962Rqxz2J+K1GWlq+9ggFxhXY539h4X3eN1+jgV+sUXG6Wa9KzeD03X6k7tyMzrJoxw+HIGPnqtaclGMr7oYRvV1ywXJIha2f4PqoxuV3EpcE7uqnp1IGPlXHBriVp/dx9UrFTd99OOr8q3lCydSafUWvRetmwJj5NV3TunHTT664wakuR11RnnRT2pP4o5hyzk6nGEpRj+WvrbuupTa+aR07Z+zHhHkWJYkABWQAFAAAAAAABAPhekr0jr2X8OnQmofixm3JRvqYNK6N+jTsvPujVnTG/W2fuVfqiKs9a+tNec25SlJuWmU25ze93+ZBmLS8Xtf3gSSkUN6uRl0UlLZf2bJFaeObmx/mqPNRcRs1lpe0nKrL+WnhD4hGFZE9Jcek+WFLMhRpKnGOODvcnvZj6dfOSYRkqTwX3rZZ1KslJ3NJJ/yt7Nd+8uqGhfetljVxlJfqXkBNCtO7O6r+KPf4iX8qx2S/wRU5YcL2V0p4XXfegC5jXf8j2YOP7l3Gp+if8A9XyZDBaMNV/yMhBYrcvmFQSr4dmp/wDHP9hTqrWmtOmMlzRfx1eBe0qukKxsK1O/txx3ojpV433Xx161uM/RqYrzW4v4KLeEYrF43JNYXhHwmXpp05XNdi06/wDyZnSVm7Ee7HkaE6QX6vdmWp//AJNG+7L2I92PIsZ6SgArIACgAAAAAAAgGrOmP2tn7lX6om0zVnTE/XWf3dX6okq8+viVY6UVfWqNv+SGLW5sq/7SjDChSjH9UlnSMeilkdEtptU59ubfF4fAtmVspYZWOVaV8L9cMfDWYuxVrm14/E+gksD5qyQ692y9fBlH0dlfVX3rZaS9o9zi/mXdh7P3tZb1aV9R9ZrBaLsfiQU3Zq4+ZOqawe0idnbXb+MVxPVRnoUo6vyPV4gZKlox4fIur/IxsXU0308P0yXmVKdTZTd2HbktXdCsvCRPCRh42uawdOPhU/eJPTyg9dKXhKD8wrN05+Reub+DXzvMBSygr73Tqav5Ht/UXdLKsL+tGd2vqt7WtAFl6dVc6knrdO1P4wZ0HZl1I92PI5v9K7Sp08G8KNdYpr8n+TpCh2Y8I8ixjpIACsgAKAAAAAAACAar6Y/bWf3dX6om1DVfTJ7Wz+7rfVEVefWvEeSPTxmXRSyllTKWGRHzdm9o+M+Z9LDSfOWdetfGfMDPWHR4ebI5e0fBcySwaPvayGs/WvurmwqS/EkgyGDK4vEImTKoy8mRN4FS/f8AwF1M9PgzyC+V5Tqv33fK4J4/AKnUtm7myWL63x5FrSWvcXEduz9gMf6RPqP3Vf6YnTdn7MeEeRzD6QPqS91X5QOnqHZjwjyLGOkgAKyAAoAAAAAAAIBqvpl9rZ+5V+qJtQ1V0z+1s3crfVAlXn1r08Z6jxkdFJSysoYZe09J87R9rLvVObPoYaUfPUfay71TmwVnrBo+9rLK041npuzdTa1l3ZNH3tZY1X67+l8wJ/w1c8Zbe0ylS3z+EvNCpLB8GSKQHkZfqn8F+xWpL/iPxzf2KozDmBSqur8ReN2wrVX9Ufh/k9UsETRn58mBTSqfqjhu/wAlxSlL9OO5/ueYNaFqehbCKnLnLmwrH5bqdWcdlGq7+LivI6modmPCPI5Vyw/ae4qfUjqqzPqR7seRqM9JAAGQAFAAAAAAABANVdNHtLN3Kv1QNqmrOmddezd2t9UCVefWu0tga4eLRi8pyd+Mrk11Unc5yd6lFb2nhvLKUnde5Pbfj3s5fDP/AKbtZG9Z2pUil2k8UsHfp0HjZh4pNYNpwuzo8ZLNitt1xlgiqGk+doe1lxnzZ9FA+ds/tZcZ82Cs7ZNH3tZY1/a+D5ovLN2fvayxq+18H5ATPWL2tnzKEyvOArjJ7F8X+wjJ7F/qf7FF/wB+BVGWIEsG8MFp2vbwJYzu1ad/3tIb/I9bxAni3serWhFYfHwxZGpffgeqWPx8wLDLDwqe4n9UTqqy9iPdjyRyllZ4T9zU+qJ1bZexHux5I1GalAAQABQAAAAAAAQDVnTP27N3K/1QNpmremft2bu1+dMlXn1qK3vrPBvBXX6Vfcr4bL9HFlrJ4X3777sFrzuGCl3U0XFv7b7Wri8Py8lvLe/DSuN3V03393X3Q0qb7Kzez8Y3YYvXm3tf1ozLMGtXa1cd2dwxT3uJmmyCuLPnrP7V8Z8zPxZgLP7V8Z8wM1Zuz4ebMfXfrPB/2l/Zuy+HmzH2l+s8H5ASpnpDnEiZRWmexkURZ7FkE6Z7LT4EafmVNgSoqTx+JEpffiL/ADAs8rPqz9zU+uJ1dZOxDux5I5Qyq+rP3VT6onV9l7Ee7HkajNSgAIAAoAAAAAAAIBq3pn7dm7tfnTNpGremft2bu2jnTJV59aftvbenVxeC0eW9Fvf3f7X/ANP9rRPbPaS0rR44LFeW9Mt/g92hO/C7g7mu6okaIy0YvG5b3fik+N173xRmmYWEtGOnW/zX43cZXKW7NuMzJgexMFQ9rLjPmZyDxMFR9rLjPmBmrJ2XwXNmNtXb8H/aZGxdl8FzZjbY+v4PyKPEytSIc4qzgiZSK4st4skiwJ0z28igyq8ipYnqegojI9UvvwAtcqPqz91P6onWFk9nDux5I5Nyl2Z+6n9UTrKxP1cO7DkjUZqYABAAFAAAAAAABANW9ND69l7to50zaRq3po7dl7to50yVZ605bfaS0rRyWK3YfKZAscNO7bfhd43XcIR2lxb+281q69KSelya6ua9mm/c5FstO3/P75t3CnvI09hq0aVi9d7TbW9u6S3My8mYmC1qLwlG9vRe5aY8luuMo2BXB4mDpP1j4z5mag8TCUn6x8Z8xCszY3h8ObMdb31/AvrM+r97WY22PrPgUUJlV5GipBEiZXBkN5JFgSxZU5ESZUwJoyK4vn5EKeBVF8/IKt8pdmXu584nWWTn6qn3Kf0o5Mt76svdz5o6xyU/UUvd0vpRYzV0AAgACgAAAAAAAgGqumiXrbMv0V/qpm1TU/TU/W2buV/qgSrPWr7TZYyd+Ke7Xir/AJJrg2W0snvVJP5aseUFwv2l/IokyNMdVpTWam9ailffnK9Tv3XXNeBelUihAVR0mDhPrvjLmZlyuxerE+cs875X7b38WUr6GyPq/e1mOtT6xfWR9Xw82WFp7T4fuERFaIytMCq8riRXlSYEqK0yJMqi/ICWLKosoTD0gQ2zsy93LmjrDIjvs9F7aVH6Ecn2h4S7kuaOrfR532WzvbRof7cRErIAAqAAKAAAAAAACAaj6bX66zboVfqibcNRdNnt7P7up9SJVjXtSUN6+Zbyknokj2SIalNPSiNJJLAoLWVJrsyaInXqR03SQHuV62bC5aZ4eGsx9hpYN7cBlCq6klctyRe06eakthUXlDs+HmywtXa+95e03h4ebLG0vH73gRI9KSoCpHqZSmeoCtMqRQmepgSxZ63iRplSeIFNVae4+aOqvRh/9zs3/L2f/bicq1NfdfNHU/ok77DZP+Xs3+1ERKywAKgACgAAAAAAAgHz3pV6I0Lfc6rqRnBNRnTkr0r77nF3pr57z6EAc3+m2Qp5Or/hTz6kJQjONaNGap4uSzZPFKSzccdaMDOp80n4PQzq4x2WMh2a1RzbVQp1UtGfFZ0e7LTF8GTF1y3OoROZuL0h6GYSvlYLQ6b/AOHXvqQe5VF1o+Kkay9IfRK3WK92mzTUF/4sF+LQu2uccI/1XBdYjOPHMgzxngXlOeHh5stbRp+HmV05Yfe1lvKone99wHqPSh1Ejz8VbwJUekLq7meqtuAmKiD8bd8wqr2AXCKiGM3uJ4SjfjJLi0BRJ6e6+Z1N6Fu/J9jf/prN/tROXMk2Wdor06EMZVpwpK5aM6V1/BaeCOtMn2SNGlTo01dGlCFOK2RglFfJFSrgABAAFAAAAAAABAAAAAADxo9AHx3pF0Z5Otd8nQ/BqO/1lmapSbeuUbsyT3tXmr/SLobttG+VknTtMFojhRrpd2TzZeElwOgQBx7lCz1bO3Tr0qlKawzasJQksXjc9W8sKMtPgdQ+nfR7Z8qSpzr1a9OVGMop0XTulGTT6ylF7NV2lnzVLoKsC7Vpt0lrSnQinu9neF1pajki0Txp2W0zTuacLNWmmtzUcS+oeh2UJ9nJ9s8bNVj9SR1VY7NGlThThfm04xhG93vNikle9eCJga5bpdHWVZaMn1/6pUIfVNGQodE+VpabNGHftFD+2TOlADXO9Loayo9P8HHvWip/bTZ896UehVtsNVUqlCda+EZ59lp1qtFXtrNznBdZXYq7WjqkA1yZkb0btNerTp/wlriqk4xc/wCFrOME3c5PC65acWbapdBlm/PbbS+5CjDnGRtkA18J6NdFtjsVpp2mlUtE50lO5VpU5RzpRzc7qxVzScv9R92AEAAAABQAAAAAAAQAAAAAAAAAAAAAAAAAAAAAAAAAAAAAAAFAAAf/2Q==;clipPath=inset(2.44% 15.33% 0.67% 16.67%);" vertex="1" parent="1">
          <mxGeometry x="1922.74" y="5046.94" width="188.46" height="268.53" as="geometry" />
        </mxCell>
        <mxCell id="Ad-eanvACwM0OZeesIjt-28" value="" style="group;fillColor=#d5e8d4;strokeColor=#82b366;container=0;" vertex="1" connectable="0" parent="1">
          <mxGeometry x="710" y="5400" width="370" height="500" as="geometry" />
        </mxCell>
        <mxCell id="Ad-eanvACwM0OZeesIjt-29" value="" style="shape=image;verticalLabelPosition=bottom;labelBackgroundColor=default;verticalAlign=top;aspect=fixed;imageAspect=0;image=data:image/jpeg,/9j/4AAQSkZJRgABAQAAAQABAAD/2wCEAAkGBxQSEhUTExMVFRUXFhoWGBcYFx8WGRgXGBcZGBcYGBcYHiggGBolGxkXITEhJSkrLi4uGB8zODMsNygtLisBCgoKDg0OGhAQGyslHSUuLi0rLy0tLS8tLS0tLi0tLS0vLS0tKy4tLS0tLS0tLS0tLS0tLS0tLS0tLS0tLS0tLf/AABEIAKgBLAMBIgACEQEDEQH/xAAbAAABBQEBAAAAAAAAAAAAAAAEAAECAwUGB//EAEYQAAEDAgMEBgQLBgYCAwAAAAEAAhEDIQQSMRNBUWEFInGBkaEGFDJSBxUjQlNikrHR4fAWcqKywdIzQ2OCk/E04iQlc//EABkBAQEBAQEBAAAAAAAAAAAAAAABAgMEBf/EADARAAIBAgUCBAUDBQAAAAAAAAABAgMRBBITITFBUQVxwdEUYYGx8CIyQlJykaHh/9oADAMBAAIRAxEAPwDzPCuo7KpnB2l8liZkWgzDYdck6g24EFE4bH0203sNJr3OmHnVkiLdU9uoSoY2iGgOoh5Hzs72kyZuG20gdyqjZvcOV0kDJK+ji6YcSaYc05obmNgSIh0E2Fp1urz0hh7f/GFv9Z/mVSAKSuxWKpujJTFOAQeu50m0HraRfx5Kz12l9CN3z3bkAKkiBi6X0Q73u+5N63S+iH23IChJKpWaTIGUcJJi3EqO0HFASSUdoOKW0HFCEklHaDiltBxQFjYvIO6IPO41G6ePdvmdnubV+22PuVG0HFLaDihS4BnCr9pv4KNVrfm7QGTqQZF400Oir2g4pbQcUBHK7n4psrufip7QcUtoOKAjldz8U7GmRMxIm+7en2g4pbQcUBecknq1I3DOBu3yDvneqzvgEDcCZOg39sqG0HFLaDigJJKO0HFLaDihCSSjtBxS2g4oCSSjtBxS2g4oCSSjtBxS2g4oCSSjtBxS2g4oCStrlpAyggxed58fw7AqNoOKW0HFAH4atRbXa8sc6kDJYYJdAMNP1SYneATF4VXSFRjqr3UmlrC6WtIAyg3i1oBkDlCHbVbab8rieVlE1AgsNTFlLKOAVmBxIZJLKb598EgQZtBCihSOUcAllHAKYPJNPJCEco4BG4Snhyz5Q1Q+bBjWlsWi5IIMyhAeSUoUNqUsNaHVSJEyxrTEtzEXI0Lo5t8acayjbY7Q65toG8ojLu18lRPJKeSAjlHAJZRwCkTySB5ICOUcAllHAKU8lbQpklrg1pGcNvoTYwbzHFADlokW4/0T5RwCLxTDtgMtNpJaMrfYuGxvNjvvqTonxtF2cyxgJdlhnszlbZoB5jvKADyjgEso4BTjQwIOl9ey6upYR7ml7WEtEy4aCBJkzwVANlHAJZRwCse2NQB/1PFNHIeP5qALwlHDFs1H1Wu4NY0g9bcSbWvfnfQEWuxmY5JLdxcAD3gInB4B9X2WiL3JgWiwPG4so4zAvpBpe0NzTYkbo4HmrZ2uLO1wTKOASyjgFY5hESIkAid4OhF7gqzD4dzzDG5jbQ6TpJmBv1QEWsp2nNzhoP3kKWWl/qb9ze7eououBILCCBmIIIIGpJG4c1GmwuIAAJJA13kwN/Eq3+RnL8xYhtPL1c0/WaAIvwJvp5oynSwuUZnVg/eAxhb3S4G3PWd2qArNiQRBEgjmnKjKti7GU6QI2Rc4XnO0Ai9tNePeOaHyjgFfg8M6q8MaJJP6JWt0zgKeGyNDmvqES8EZiNIsZaBrz01WHNJ26kclexhZRwCWUcAiw9rrOaBzaA0juENd2a8wqK1ItMHtBGhBuCORCt+horyjgEVgqdAs+VdUD5tka1wiBrJBmc3khkzNB2Kg030MGHEB9ct3HI0XvxOkxuG9Zz2tkxpJiReJtPOEmtJIAuTYDiToiTlZwcfeNxP1RoRzMzyS5ATKOASyjgEWKzXWc1vcAw9xaI8QexVV6WU6yCJB0kaXG4gggjlvEFS5SnKOAVL9VeqH6lUGj0Oa0nYZptOUD3hGv1iEPe0TED7k+BoZ7Z2Mje92UaxYwUVhWtc10sktZIgm7rEBwnQgHSN/G154G3VlGyeAHQYP6vw71XfmjWU6ocb6kzBs4MgRA1aZgDQqRwzSGua0Fxbdsw2fakQZgggADeEyT7Bypvh/5ARPP9FEtovDKgIcCMhiDMXVrxlZmAa19jLbZWndrrcX156p2Z2USM0bwAbgAtPa3fZajGSfHQy5Qtz1/Pz7mfJjf+oSvzWph3ulwfFoBi0zcFxbBcI3GygaMZQ1oY85g45s2UA6idDEX8IlTTnbj84Lnp35/wBfX5gVWi9urXCw3Hs17VfhaTix9naNIsdASSf4Spmm/OQx0A9a7rdbjOpm074VuAqOuXGczocCbaQZA0sY7hwWoQkpb/Mk5U3HZvoZgB3TKvfdwYAXAHLE+0cxvO6ZjlZEtYWsd1WNeNHNkwAGuMFxO4m+qFp0RDSQTmeAMvtQLGBvJOn7qy4PqXPG235+eg+Lo5awbsiy7fki4u1DbZtetM/7ludG/J7RuzNOH+wTmLTkbvO/f3rn67GipAbUDbDK6M/zcw0iZmLcFp4Z7GZm5arRmsHRmjK2zrCL7+EWWqf7jSlldzYdUBGUtGWIywAINiAALDshSGI4COy3kAszbM0zd94Pdlkeab1lg3uPOwHh58+S73N6yNEOaHF4b1yILt5H638hwCHxGFpPABaRAABabgNmAJkRc7t/IQOazPfPZF+/dHYSeSRf7pncb6c50y893gTGNSLD8OWsGVghszEzqZ1Nz3yYhT2++L8eE6rN9YDTBbLt8nThEcrzfVN62w6ggDSLk9pJH3dytyay4NT1m87+O/leJ3nxKZlYDQAfugN38gs3bs1zEcok/wBBf9c1t2D5zjyiO4mbHuPardl1kafrF5i/HfGsTExN4VbcgMhjQYA0EQCSIEQ25m0buCz9uz3nDlEn+gI8+Sfas9/+E/rs84UuNWJk9LumrUPP+gQ5VmPILnQZH5ferqfRddwDm0nuBGYFrS4RMTbS4XlfLOb3Nn0FYNs4nUNt3zP3DwWQaRql73PaHF5nMd5I+duFz9lIdE4icuxfJ3ZDoZiRuFjrwlCVqLmOLXDK4agiCO5c8n6nIxl3bCa+EyNzZgeuWW5E3meXmOKhiT1Wcsw7pkebnIaOzw/NK/L9d61bubWyY6Zmg7Er8v13onB9HVqjc1Om54nL1RmvAMQDOhVBd0EB6xSzaZr+BR3S9FlXF1g0tDQ0FpZBaSAyZLbDrF0k6RdZNTBVWsD3U3BhiHFhDTOkFUR2eH5rDj+q9+hlx3uG4nCNa0uBdbJYgC7gSRINyIAPOVCs7qN/ed5hs/cELHZ4fmlfl4fmtWNLYdUP1Kuvy/XeqX6qgO6Kw7ajg1xcCSA0NEkmb6nh+uJZFSgG7RhbNxZt8tjfUxO/isuhHzpjfGvmisNsQDnFSZtkLRbnI1Wotx3RmSUtmG4as6ocrGudABgQLCw1PPzUMTXLHlr2uDxEi1rAjQxpCCxOzts88b8+Xyy96pC1qyM6Uexs4XPUlzGF0mPm6jrmxPAShWY4C4B7wD96AMJ5TVkNKPY2Kgfs85Y7IADm6ujjDZIMm581Q3GZiGgEkkACwk6ATKzYCeU1ZDSj2NXFl1MNzsc0GcsxeIDog8x4qNGsah6rS4gEwABaZJibmT23WWISKakhpxNTE1jTdke0hzRoQDZwnjBkHzQ9TEBxbq0Ai4AEDiI370GERTNLMM20yxeMuaeU2hR1JPZlVOK3GxTxtJa97haHGzrBvO0GwvuCNr4Sp1ntzvZGfO6JLcou4TI4dyzapbm6sxeJid2sWVrBSzNnPljrRlzZo+bNomNVk0NtjxKkx5JAEkkgDtNhvUq5o5hk2uWetmyzFoiLT7WvJPQNCXZ9rE9XLlmPrTv00S7FieJo1KYBe1zQZANrltjoeKoFc8T+u9TGwnSrG+7Z0PKNY7pUMSadtnnjfnieUZUuxYswzXvMMBcQJgawOAm/cliGvpuLHgtcIkHmARoeBCEKQS7Fi7bHiUVhcNVqCWNc4TFo1F+PD7wgJTEDkl2LFwrcyltjxKqlKUuxYVUzKtbiXiwe8DSA4gRwgHRUPNijcrI759rjHlb71luxuEMxQK7vfdfXrG/amyudeHOuBNzc2AniiDTp8SO8FXYeuGDqkC86zp2rLl2OsKKv+p7GeWnWDB0MaxrCZaFWo1zQ0kACSIOhKrYxgm4IMam++YjTcimHQ32ewGpUK7miGuc0EXAcRMgTMdg8Fe6my9z4g9364JsPTZlEm5HECP1/RXMcZxyclTqziAC5xA0BJIHYNyZjCdAT2CfuROxp+926X/Df+rKynkaZBvBGoMzaeR5qOfY5uXYDfScNWuF4uCLxMX3xdQWliK4eOs7VwcSC0EkDKN3CfHsimnSaDOYHWxjfYWnhKKe25FN23A1Q/UrRNFk+3934rPq6ntWk7m07k6Qspwp4DEZL5WP3Q9oeN2470xKpSMJQnlOShCMJQpEpEoCMJQnlOSgIwlCkCmlANCJwoowdrtc27JliLa5r8dOSoBTSgD2jCZr+shtvoyee5V4gYfKdnt89oz5MuozTlvpMRvhCgppQDQlCkCmlANCUKUppQDQlClKaUA0JQrAwxMKEq2aFxoShSlNKgIPFitHDjCkNFTbtOji3IW66ib6LPfoUXh3wHAicwjWNzhwPEHta07lUGWThYdauD827LdUSHD96dN0b9QYWszpACIpNtuDvqhoN2m4jW+ruMrMyX3cVZJLh3Im+qK7J4R4xBDA2CLQSHxPWzSOra4HH529xKGxBLnOcYuZ8dyNLoyq5TCZF4VxYSYmWubrGoidDMcLJ8XUL4tEEnWTcNABMSYDRcyTJSytyN7gkJrK6iIcDAMOBg6GDMHkVpO6RBcx2yHVLjZ8F2YEGTk1vqOAiESXVmkkZEJoU9mUXRq5WZMsySSZ3FhZA6pg3meQUVupl3AoVD9VoYk5otENDdZmN+g8N2iz36lGVBWApsdZ9TZjjkL7yLQDP/SMo0eqIE847YQGFpudZrS48Ggk+AXT9H4d2yZbd2Lvh0nJ3OGIk0jGdQbNx+pTmi2dFvHDu91P6u7h5herSieXVkYb8PxHDdxFgoOoCdN/9fNdAcM7kouw54b/12dqrpxYVSSMHYDglVoCbiPKy3/V3cEzsMZ9mf6fgppRGrI5/YNS9WEix7I1W+cMbS1N6rp1d1rafgmjEutIxRREezbsS2H1fLt/Nb3q7uHml6u79FXTiTUkc82g3gpijwb5LcZhzubHkperu4eaKnFB1ZMwdj9XyUn0DIlpndZbnq7uHmkcM7l4/imSJNRmEKH1fJVHDi1jp+j966IYd3DzUDhTbq7vLgo6UWVVZIwdg2FVVoaQuj9WPu/ch8Tg5iba/rxWZUItGo12mBU8I7KI4KipQFpG63ZuXQtwttY5QoHDu4frtW3CL2MKpJbnPig2NExw7V0Aw5jRN6sfdU0YmtaRyuJEFyuZol0qIqPB4/wBEmaL58v3M90OEOo7+5SUd/csmiSjU0UlGpogJJJJICLTr2p5Wn0PUIa6CR1zoY3NR+2d7zvEroqd1e5tRujnHG4UlodMPJDJJNzqZ3LPWZKzsZasxFZ79VoFZ79Vkhdh3lt2kg8QYPiF6F0H0Znw9J2fVgOk+crz/AAcS3NduYTJIESJki4tvC6hnpHUw9JjGOw7w3qgAPLouZPWHYtwllZzqRzI6Q9Dn3x4J/ic++PD81zNP00rkgFtASYktfA5mHaK7F+l1ZkQcO+SR1Q+0RBPW3z5FddZnLROhPQ/B/l+aiehz748FzdD0zrucARQaD84tfAtyep4n0vrNiPV3yJ6ofbkZd+oTWY0Tovic++PD80x6HM+2PArnKHplWcYIoNtqWvjycnxXphWY6B6u+0y0Pjs9rVNZjROi+J3e83zTfE7rdYRv115Df5LnaHplXcTIoNgE3a+5Ggs7UpYj0yrtcWgUHgfOaHwbA2lyazGidJ8Tn3x4fml8Tn3x4fn2LncN6YVnEz6uy2rmvv4OUK3pnXa4gNoOjeA6D2ddNZjROkZ0O7e8DsBP3wpfE/1/4fzXO4X0vrPmTh2ae0H3nXR25VVPTSuCRlomCRIDoMHUdfRNZjROmHQ598eHhvTnofg/+H81z+F9Laz9ThmXjrB+kTPtcbIY+m1f3KP2Xf3prMaJ1PxOff8A4fzUfid1uu3nY+XHyWFh/Sys4SXYZpvZwfu/3fqe2Bf22r+5R+y7+9NZjROod0OdzxzkR4ayqqnRLxEZT3xHisWn6W1izNOGBhxykPmRo0da5KG/bav7lH7Lv70VdjQOs+JxHtmb7t+7u/VlUehz748Fg/tZWyZs2GnKDlh8yZ6o62ojz70N+21f3KP2Xf3prMaJ1A6HMe2J7LeKieh3e83zWFV9LKwaXB2GcRHVDX5jPa6LIb9tq/uUfsu/vTWY0TH9IaWWvVbMw7+gVLNFHpLFmq99RwALrkDTSLT2KynTMaHwXB7s9C2QylRol7iGjdxA38yn2TvdPgVf0e0h5kEdX+q1GN3Zkk7K6G9QqcB9tv8Acq8RhHtaSQI/ead/AFayH6Q/w3d33hdpUYpX3OaqNsl6pT90/a/JL1Sn7p+1+SuSXXJHsc8z7g+AaBnA02h+4IpD4L/M/wD0P3BErkj3Q/ajP6W0b2n7kBK1sSevT/eP8pRG0dxPipp5m3c41Z5ZGCSgH6rrKlQwbnQ71ybtVzqQykhLMXYZ4BBLQ8A+y7NlPaWOa7wIRNDGBs/I03SSes15LQdzTm0G4mTzKFoNJsBPYpFczYUccIjYUoiJDX5hzBze1zjuVdTEhzi402aRlAc1o5gNcDPeqUlSBFDGBrcppU3fWIdn8Q6B4KZ6QH0FHUGzX7t13Gx38ZOiESUBZUrgknI0TuAcA23zQD98q1mNAaG7GkYg5i1+YwZuc0QdCABI4aoZJUBfxgPoKOs2a7hEGXG2/uF9ZGfUkk5QJJMAEASZho3DxUUkAUzHAAA0KRiL5XySBHW6151IEXgqQ6QH0FHf8x0X4guuANNON0GkoBOdJmI7AY7k09vgnSQDT2+CU9vgnSQDT2+CU9vgpNMEGAeR0PIxuWg/pNpj/wCNQF2mzXXykGD1t8XiJkoUzZ7fBKe3wWn8atkH1bD7rZDBj/d48d6Q6TYGx6rRnq9Y5ibCDImCSb+Ou6gzJ7fBKe3wRmMxjXgAUaVODMsBk8iXONkIoBp7fBKe3wTpIQi423+CIoYstm2YFpbDs0Cd4giDzVKSoNJ3TJII2NISIkB8jW4OfW/kFmueTqXdt0kkuA4dKCSfV6N4+Y6BAAsM0CY8yhsViM7i4Maz6rQQ3wJKqSQF+HxeUQabHdaes0zpESCLb4VuJ6QD2kbGkyTMsa4EaWEuNreaDSQE6FfK4Oyh0GYcCQe0b0WzpQAR6vROty18mf8AcgUkKPUqSSYiSTABgTuHJFYfHhoANGm+ARLmuky4ukw4SRMdgCESQhfi8Xnj5NjI9xpE6ayTw3RqgX6q9UP1KhQnBB0tynK6bHNkj/cSIVlfNJzEl03l0nQb5uqcIASMxIbNyBJA7Fv0uiqRwj6ty5uaHXaLED2ZWZzUeTrSoyqtqPRN/RGFfj5pX4+aZJaOJJ0zr5pr8fNaHQ3RoxFRzMxbDS6YnRwEa81s/sePpj9j/wBlylWhF2bPZRwNetHNCN15o5cTe/nzTX4+aL6NwO1q7IOyzN4n2b6TyW3+x5+mH/H/AOysqsIu0mZo4OvWjmhG645Xqzmb8fNPeNfPsV9XBEVjRBzOz5BaJMxvNkf+zWI9wfab+KrnFcsxHD1ZXyxbts7K5kX4+aV+PmrsVhHU3mm4Q4Rax1AIuDzRXxDiPonfw/3KucV1MqjUbaUW2udnsAOmdfNNfj5q7G4R1J2Wo0tJGaDGkkTY8iiWdB1yARSdBEi7dD/uTNFb3Co1G2lF3XOzARN7+fNNfj5ojF4CpSjaNLc0xMGYInQ8wtfo/wBGNrTbU22XMJjJMd+ZSVSMVdvY3TwtapJwjHdcrj72MC/HzRVDo+tUaHMY5w0kXEyjemugfV2B+0zy7LGTLuJmcx4LoPRD/wAYfvO+9c6lZKGaO56cNgHOvo1dna/T/pyVfo6sxpc+m9rRqTpcwPNDNmdfNd16Vf8Aiv7WfztXJ9F9EVK4LmZYaYMmOaUq2aGaWxMXgtKsqVO7ur/f2AL8fNXYbC1KkhjXOjWLwtDEejdZjHPdkhoLjBvAEmLI30I9ur+637ytTqpQco72MUcHJ1o0qiav7GV8U4iP8J/ggZPHzXp79D2FeedB9HivUDC4t6pdIE6R+K50q+ZNy6HfG+HqjOEKbbcr8/T3A78fNSAJgCSeAuup/Y9v0rvshZPQ1PLjGNmcr3N8A8Loq0ZJuPQ4TwNWnOMaitmdujM/1ep7r/AqEEGDIM6EwvT5XB9L0w7GuaZvUYD2HKFzpYjO2rHoxvhqw8VJSvd24Mq/HzSk8fNdn+ydDjU+0P7VzfpDgWUapYwujIDe5vPZwW6deM3ZHnxGArUIZ52sUjAVo/wqv2Hfgqq1F7Pba5s6ZgWz2SvTGaDsXJem/t0v3XfeFzpYhzllsezF+GRoUXUUr2t9znL8fNSoUw4kF7WWJlweQT7o2bHGTzAFrkLQodAV3ta5rZDgCOs0WIkb0Pg6Lg97RR2rmhwLYecuUgF/ybgbG1yRfQ2Xozx6M+XKjUgk5RavxdDMwQLA7bUQSJylzs03serANuMXF1F+GaHtbtWkESXQYab2Ma6DxWlRpvNIEYRpblnaXkiHdf2onujq6KjE5zVYNixriAQxsQ6516xEkggiRpEBbOZViaYyQK1JwbEANLXHdYhsEdpWS/UroMdTqZX5sMxgES5vzL7oeey8rn36lGRKxfhnAQXDMJuJiRwkaLsMHRnoyq9oAb1rSSbOAN44rk8BReb02uJaQbCSDNrb7rvcG3/6evtDlq9eWEBrvbEdSxFuS8mLk4xjb+pHswc8kp/2tHOei/RtOvtNo2cuSOsRrnnQ8gtnE+juHaxxDDIaSOu7UAnirPgvAnE5nNZalGYhs/4unH812fSYZsavytM/Jv8AnD3SvFicVKFdwV+nfsj6WE+H+HWeMXLflK/L+R5t6C0S/EPAidk43/fYu6HRz+LfE/guQ+DMD1qpnIaNg65ht9pTtJXpgZS+lb9tq5Y+tKNay7djXh2JVOiot9WeQeitPNjGtET8p5NcvQfi9/Lx/JcP6EgfGDcxDRNW5gD2XRdeq5KX0rftN/Fa8QqyhUSXbt5k8NxKp0mm+r9DyE0z8Y5Yv6xHfmXfepP93zH4ri4HxtqMvrftWiM+sr1LJT+mZ4j+5MbWccm3Tsy+H4mMM93zJnkXpOwjGOBF5p/yt4L0E4B/AeK4f0zA+MXwQ4TS6wgj2GTderFlL6Zn2m/imLrSjTptLldvImDxMYVarb5fqzyb07pFmIaHD/JB/jeuwwWGfs2dU+w3+ULm/hOA9aZkIcNg24g32lW1u7xXofRlOnsaXyrB8mz5zfdHNWvWaoU3bkYXExjiKsn1sed+ndMt2MgiRU17aa6H0ZwJdhaJkCWf1KzvhSa0HDZXNfarMQYvRjSefgun9DmU/UsPmqNB2dwXtEXO46KVasvhYSS6vp5kp4lLGVJ35S9DlvT7CZKDCSD8qB/A/wDBHegmFa7CAkXzv381P4UGMGGpZHhx24sHNdbZ1LwO5F/Bw2n6k3O5rTtH2Lg0+1axWZ1JPBqW97+5PiF8Y53/AI+wL6bYVrcHUIF5Zv8A9Rqx/QHDF9OqRFnjf9ULp/hBbT9Qq5HtLppwA9rj/ismwPBZfwWtYaNbO4NO0ES4NkZBx1Vp1JLBylvfN7CWIXxkZ36e5f07gXDDViYgUnnX6pWD8G9JrqlaRPUZ97l3PpOyl6nictRpOxqQM7TJyGBA1XIfBSG7XEZy0dRkZiG/OdxiUpVJSwtR2d9vQYjEKWKpz7X9Tr6mEZB6u48V5n6C0i/EACB8k437Wr2KqyjlPWp6H/MHD95eTfBoAcWMxDRsXXMC8steFMJOWjVbT4XP1JiMQpV6Ur8P2O5+LXcW+f4Lz7oelPSLWn6aoJ7NovW9nT+mZ9pv4ryvoID41bJAb6xW61gI+Vgzpw8VrB1ZShUv27eZrHYhTnTafEvY9A+LW8SvOOlqQHSRb/r0hPbkXr+zo/SN/wCRv4ryfpsD42MEFvrNG9iImnJzaRrdTw+pOUpXvx28ieIYhVIxSf8AJep6B8Wt94rzn09pBmJIF/kmn+Zew5aPv0/+Uf3Lyf4TgPXDkgjYsuCHCevvEqeHVJyrWafHVDxHEqpRyruegswTIHV3DefxXC/CPSa2pRgRLHfzBepUzSgdaloPnt4dq84+FfLtcPkLT1HzlId85usaLngJzeISafX7Fx2JU6Dj5fc0ug8K84eiQ2xpMP8ACF5/ims29YVJjaPiI9rOY13ar1j0aDPVMPNWmDsacguAIOQWIleUdJVS3EVy0/5tUSN42h8ivbg6jlUmvzk44+tGdKmu3sO04bKJNTPG4Ny5r8TMTHiVXi20gfkw8Nj58TN59m0fmnZ0pWDMgqENjLEDS9tLi5VGKxLqhzPcXGIk8OFu1fUPkBFdtDL1RUDrxIbEzpa/s+ay36laNTpCq5uUvJbe267sx8XX7VnP1KgJ03wEW/HgtymnSnKG58nXt87NPtHeUySAGLgVOhWaxwdlY6Nzm5mntG9MkqCeJxQfHUY2BHVbE8zxPPmqZbwHgkkgCcPjQy2zpvvPXZm3RHZvQ7nNJJygSZgCAOQ5JJIBZhoiKuMa5pbsqIkzLacOHYeH49iSSAHDwpUKrWuBytdG5zQ4HtCSSAlWxAcQcrGwAIY3KDG8jieKqlvAeCSSAIw2MDBAp03XnrMDjpETw39qHlvDySSQCDh+gicRjQ8QadIXBlrMpsIiZ05cUkkAMC3h5KylXDSTla6RHWbmjmJ3pJIB8RXa92bIxnJjco7gqy4H/pJJAEUMY1ojZUnWIl1OTczM8Rp2IcuCSSAYFvAeCJxGNDxGzptvMtZlOkRrokkgBurwHgrsPiQyeqx0iIc3MO7gfxSSQEK9VrnF2RjZ3NbDRaLDcoh4SSQF9PFtDcuypGxGYsl3W3zOo3HcqA4D/pJJANLeHkn2gTpIBbQJbQJJKAW0CqdqkkgP/9k=;" vertex="1" parent="1">
          <mxGeometry x="2134.26" y="5071.32" width="187.74" height="105.13" as="geometry" />
        </mxCell>
        <mxCell id="Ad-eanvACwM0OZeesIjt-30" value="" style="shape=image;verticalLabelPosition=bottom;labelBackgroundColor=default;verticalAlign=top;aspect=fixed;imageAspect=0;image=data:image/png,iVBORw0KGgoAAAANSUhEUgAAAT4AAACfCAMAAABX0UX9AAAA81BMVEX////mUiwAAAD3083jLwDlSyDlSRz98e7lQw3mTyfuloTxq5z8/Pzpa07T09PmTiby8vLn5+ft7e329vba2trKysr+7e7h4eHkPwC/v7+cnJzsABCxsbFtbW1aWlrExMRiYmI+Pj7rAABlZWWJiYlOTk6Tk5OBgYEoKCiLi4unp6ftjXn0vLJzc3NFRUUzMzPsDyX2x7764dzztKjwoZEZGRnoZUfqeF/tHzD53NboYkIPDw8sLCzrfmb2p6z6x8ruOUb709XnWzjshnHwWGH83+HvS1fzfoXtKzv1m6HxaXL0jpT4tLntFyrxZG3zd3/vUFoQD427AAAOZklEQVR4nO1dCXuiyBYtryNimiAIuOIWNRoTozHa6Sw9vWS630wvM+///5p3bwGJAhXtfhm0Q53vi4lQVBWHu1Xdq2FMQkJCQkJCYjfQtF3PYAX564vLxeL09PRg8eosm9/1dLZAefZu11PwML98+1FVFUXJEfC3qmauFtl9eroxKB81/vi060mw7EFGVYqFTAhF5PDt2T4zqH1uzBr/2ame5BdFNRdmboXC6n12l9N7Ehp79+dsNvt9ZxOY36vKOmGF0PtMTn19sbP5PY3ymw/sr9ms8X43JjB/HxG83OuzYlgEC+rNfkog2r4v5fwX1OC/d2ACF1Gtzb1ll2Hx4wRelZOf30aUG29mja/sEzeBCRvp60yUp8INY/cR6eNGsPoq2eltA6Tv+2z25hv79mY2+56oCVxUI642k1FRSa9i6cNzh3sXCpYbjQ9fUfI+f2J/4a/3H5IaOH8Yo6KZ4iGeOhX54aKybxYQ6fvEPv0x+974ki9/aXxv/J2MiZkXYkVMIRcbZ/t87JsCc/oY++f7m8bRO/Zt9mZ29DWBYbNqjOISPaSeeTV4G+VYPUhgdtuD04ehH0mf9XX2ffYmCft3URWJFz8dGL/i4WmUv/sE5rc1yo3Zt89e2ILh32z2VxKDCtkrXnnnffFT8jdRIVX2iT8KXGaN/37gnnf2NRHXlo2ylyuu0qd5pClnmhppuV/6W0ZvgSuOb39S3JeQ14hyknt1yt1F8a3X5IB8byGzYgXX+Nsf/1E++vMbe/ceyfsnoahey0QVMnfKOH85XzHnJJ/KpYC+THVvlsDl39mHz4ku2a5iojpS2o/Iam7hNzpEZVbzTBNEgOrexM+f/mhw25cULuMEiug7U8jaBa0Uzw6+jo9veHS9DygffU90t2Ue63SLpLTIq3rtN8tXSXdxYScSvz0xfxi4JLrQPYxfbJDS3hdXlPKqyKnMxhs/NH/zJGctRPnoKMmNqrN4OlTyBRdK4VEnL5UC3/+J8TOevF4lOGsxtA8frARHE+ylVImquaosHlpmVY/KV6L1r7o33jc5LOLJ8ERJU9RHjcxXT5l3UEBf4eNubmGHEHHhO9yPq4xUL73fwu0X9Sw6wMuGSBMVb5v79SoharC191Fg/dInfiI34K811vYCMkEMcyFyvuq+7Z3+yxAREfCwtpQ4fFhDisQvWCCnBaIcRiau8f0DmWci61fdm6VbEsgLdvlysRtQi4e0n9D5KpfJTX73EEnRw0ptDRePWdO3Aqndm5VvIhDpbi42vbyyKBNq7/5svCQAAQmbPUDM/qpPX4pWHtcCEjZbME2UGom3mi8Toph5CxESsMcrOtICUe2Aunnr6VAQ+QnM5ouEYOPY2215GsKAcQvqXwhEaYtMdfO1osglRb5DkDTbau0glL70BM7i6GOzAsbUGvj0LTZe+0IgzFooGxVQGLikKHIR0pfbKEGiiJGn11MC4bbd5m1PYb7jYafw5UNIn2DLYAVC05dm+nKFLTl4VPtCLkRkeugL277iwWFOVTgfG3wvz6wXcoqq3ByEYu/02L6w/UeHq80vDzJVVVFeP3XhRRWZq74+OLvG5Uko9k6P5w3HfUGZQD67ePtUwWP5t9enZ4F4hi1AeuK+yKpjVWXn4nXvfHVREt47SM+qQwu7z58w+5HYMUW5ysiu08aAJdpFeO2bot36g/CWyw9vdkbLswr/ykz3EtGEzw8a/nxkyytNqbaYLZfqD6lvdNtK2ZMa00QQYS9TyPyA7VpE6U+R54hNduS2rxE9i9m1SlGqI37TQLk62BIxF6esRij2Iwm5LRFzbXoyHRzCjzn/JJQ06W78rrGibonopenZL/AR3fdULvPbIS7sSU2S10fUeSjb1ndHP5q6J5/sSBKROtut6YumiVMV9HmIrFp/nr4UCl/U+v08famzfITr6jPRp6TN7XoIxX4/6zoKhXTFfAG0wpr6Fu9fbYl12vfn4/gJI/Q1GkVlS6wLbWoSlBHEbDxxbRQgrnExdR9nW0Hcd0EUbg4FiONPSU+KIwrtJlrtKKxSiytOq6YvYF5FPqqSwiq1mG2G1LqNAPlcWP4KoqRP9NPQ1dR9DDqCfCaSsRVkjSKrZMkeIn8T8h+CnGP4S3MKKdthFkG72qbaJ1JXlPvhyoSXivA3v1aj5T7zkI9R9u+7X3eHbOjrwdXT0Dr2Yp3gQjU15WhbQTtd5ydXuFwhMBtSb/VGKm4I2Zv1r4BVivdnc8psZA9u1DXnrKSnlO9HcJZZJ7Dop97Wi8AV9UBavXic3Tzx7yZ8RheSPDGuTxVV9KG/olI93Ot/eLIP0C7uM/6nFNbFTjm83Md/lLCHmF8e3KzWHCiZ+1f7/q+K9g35+XX2ApGd5yVzEhISEhISEhISLx7DVqs1tDe1wtC4BU81aLe6k8rDO6cLGktFOD2ATgfAebrRSZexzlP01WDahEHwzoJBm7lP0v1S0AKLVaDFSsw0GSvZKDOawSoGs2wuPnYJXwYDjeir0N/MJCkrWUzDH2Z6gkvcWkZw0gEXxRqYVcIuDPrBljae0YJRdnSzz48WlJgG5yYMocN6ADBmYxgAuPinyXR8bbIRvtaaMMWjzOoCjIwSDJH0Y6QNgDidQJ9+lailXcIXaOHPEB+LyX/GNXw7wEvoEJ2qbJrXL4IWOHYT6iZSY9ehpk3AdKFu3YHtwAlDSk08CAMLmXKM5RJ/WeyuaeG5CtRt5JPrPV6Oj4B1oYIMIul1C/+2WBPwWQDqccmuWy44fJQ+PpZWd9f3/UwgUeCiVGdseos6BmMXdHIUGgxtOO/08CyZNdJPPAqjXmcJPn0GQN/0+qn1YKnBhLE62NgHY+dAJtEcDMFuTlFv28fgmjTK8rbXuYMX4lhaoJPa8Tv26Kv79FlE34nu6OYDfQOkb4BHbAMVl7ioTB71sAdmmD4L6kjgMTZEg9AM6BvpjqPv8p6fES1uuzz6TtAD98F+oG/CeXMtBudaQF8LVc+xSatryIWNitrGy3uTir0csbtbUlo85tOHrW9JfSsMLajj0zfE7u0Nrv6XwXlAH96Yhm4BtXKM93dO9DVZm1TbIZfSprgPj5aWvA1K3R3UdVjClC4fUjsb9Zk3171ngRLq4iMwkUIk/m4KYxMPeaM0d3vXz4aKF59otsdiG38ZNsYyGFvYaNY0x6HzqGwUotBRpjsl/kpxjNH2tdByPHnSqbll+y2wW8vrh/dgPIxiJn2bEhISEhLPifnRb8liiy+A/oWQzyaNXd+xhISEhISEhISEhISExC8EozVhVChhMGa2xu560YCX03LhMTddb5nssYbCabl0vhWfvTmhTnlbs9Wndh18o/NLHjDYUFDQhhrNo9Pr9U7CCV7Nv4FerzkWZd+mA8GJ58KU8l1dylccQ41SPY9wvHs75ikdD02k0nm45RolINjJyvlVDKAU1FsAIJO3RMVk/QE9Xf7yQB9AZxBOkJteqqUEy04XRjHXjsZ44e3T/f/fqMMYpwDnxCEJmsGTCbxi4hg0/lRpmiafK9JXwcOB/FHGLKCXyjA0C/+ggguLGlAmbui1HSILNkCPsSXxZVDv2NjUiD7N0FgpoKZi8jMWn0XJdHz6usFgFYP5ry6Y1HUJWoz1sZnGbI1ZlCFhvDuLsk4WvTX9zh5fnw8VGOBMhmBY/I9zynw7lPmnlBh0sMUYdGvJCSb6zOFjtuuRPodXUtTwLur8x+T0WbzegpEcT7DZBHC0CXVCNRsunEC9ByhFXT6UyTukIR1oUm+Ucbv16ZvSc/aGGfLChCaVgkwD+lyoDbF7h/pBImlYagoWimVpCrA0qEKka6FG4MFn5W8EbDAogdvGp4W3ZPWgVDkxaniDKD70rFEk6/iX7tFXwcOGEdDnoa3BuaEjqXhv50jQgKcgSfq6YPDZArDlRAfHRQ6OwbXwMdRg5JodYHdE6phxA6DXrTE42JNxAroNE60eKO8tJS8pAaqDPgStZKNE2wanb2A6IyidQMu1jh2kiWTdGGttqJfYqIsTsktj5E1jt0MS5nhL89NAwcfZLzt9bqp0FDb0FPoYBcsvLHMp/T0ds0f6gktrKASu2wOnTYVR58A6Sw0FmXGh5PSd+22bQJIJwx7eBVUk6FT606Y2UxS7x4oNzamDy+tfoFbndtajb1Rzm+A6MGg2oT6Grkuy6ds+4CLXB16mRUllL4HM0/dIH1cVDe6azds7E26PjeelT8c7KOFkllPm01fhNXcr9OmsNvCsc5g+T3kd4oa8qAtjVJixZ+RX6asB1aY0l6RpoyW/txo5kRbUyf1QxQa5dySm+UDfMXbjPCovg5YDx07bMZnbRYXvB/QNuF0m+rQB9HBE6Hr3xenj1TPYQwuv1Jne4V7sOQE0nA5EhU/f7YAX/nS8ahw8aBk4PWuFPv1klb62hV7BQGosMk2BH/SU1xvD4ma0RjYPe9KpoMOnj/WwywojynAqE5xIQB8pxXFAX8msQ1/jnVDNH5rR/orr8OmjEKsJfJI1zacPjYPFXHy2FkPi8QQ8c5HMhJPA4wKK++pQ6UF3hAfrwJ8canMfutwFIKM2He5PuLC4PHAhtzcGr1zvnHfQ5/1SEUcfeBMSTZfbMAoF0ZZjEzKDJLEW3NkwglviAqVqCi7dOJmDETqQwPaRM9MY+QuoUL3gMT2Lc06fF9qh88NnfnvbRcNIrXTNdx02nxq5G6iTEjx3gVtJJ7mq6P6f9NNu80BEb2v+Qbvmhc4Vauu0NY0LpsFLrEwdOTFqXrUe9mLplt9W4239Qei37fWi10y62PBGNVG4a3402HaYXbKwW95122Y6VzXdtnm9Bg1DsXeNrINdo3E03Yt5TBrAxI7pPvioBraiAbU279yhKhKzthcFWnV3cxsJCQkJCQkJCQkJCQkJCQkJCQkJCQkJCQmJneB/HbI4TDQL6NMAAAAASUVORK5CYII=;clipPath=inset(0% 28.33% 25.33% 29.33%);" vertex="1" parent="1">
          <mxGeometry x="1822.06" y="5218.349999999999" width="79.38" height="70" as="geometry" />
        </mxCell>
        <mxCell id="Ad-eanvACwM0OZeesIjt-31" value="" style="shape=image;verticalLabelPosition=bottom;labelBackgroundColor=default;verticalAlign=top;aspect=fixed;imageAspect=0;image=data:image/png,iVBORw0KGgoAAAANSUhEUgAAAT4AAACfCAMAAABX0UX9AAABhlBMVEX////xWilBQEI+PT87Ojz5sRL5tBH6txD6uQ/6vA/5rxL5+fnzbCQ1NDb6vg7yaiX2jBv2kRr3lhn2jxv3mhj4ohb1hx3v7+9JSEr3nxb4qhP1hB74oRbzcSNOTU/c3Nz0fh/MzMwwLzL0eSF4d3jyYSeqqqr7xAzxWCZiYmO/vr7xVB7l5eWLiot/f4ApKCv+8++VlZZbWlz7yQv97ObwSgD95t9qaWvyYBSfnp+1tLX2jQDwTxLzd1P1i2vzb0byZjf83dHzahH4spH1fQb+8+b96tP+9M74tqT2mH7ybED3oYr6y7/4r5r6wrHzeln1kHL4qpX1glTzdT4dHB/zbjbxWgT1jWD0fEf2mm71lGj71MT3qYf1ilL0fz76x6/0cgD6v5383sj3ml/6zLP3omz2kkj5tIX3omD6xJv2jzH4s3j82rn4qFf4rWn3nTb4r1T6xIn816n7zpf94bz5wG74qj/5tk37yHf5tz381Y77zHD95LD7yj770WP7yjb93oj+7LsjkiSNAAANPklEQVR4nO2aa0PTyBqA2ya7egwRVNjWW2pjraVpS1tLSy/cKikgiLru6rrIiqi466rclD2wXvCfn5lJmkwmkzTtejbFzvMFSN6ZTh7euTaBAIPBYDAYDAaDwWAwGAwGg8FgMBgMBoPBYDAYDAaD8e0zW/K7BceZheDMit9tOLYIi/Vksr6Y87sdx5PctBIEKLeKfrfkOJKbqgcRyiTz1zmLuj3g747fbTl+LChBA2XJ79YcN4rJpKkvWF/1uz3HjCks+eDwJ/jdoGPFbBBPPuBv2e8WHSusyQfTz+8WHSvGgwTK7eUSvn7OlWaXl2d9a19vs1An9QWVenJycUVfAa4sTivj9brCNiQ2cstT43Z7kKRSH59eKQUWknUFDY31e343ttfI3Z5WFKo8XWF95o7SmlaSkyz9cHL3gvWkizzkzAxIBvt49AOj/8rS1J07U4utaWFlRmknz0q9b4+zVpfuBMfrikZdmVycLU21zTySPt3NCQvJccWSaXBacBvzHPRN+f0kvlCc6TTPmD6MUgf6kgDQv5NJShHlrt9P4gse9QFv9Xrw1vQdwOR0sF4nZ5b6gt9P4gteOi9IueStxYXZUrGYgxTBRH13RrGsCpVFv5/EF4rTbVd39eDiMuWQvrQwhefgeF/uO3KT7vqSyuSC44aitHTLFKj0ZfclD6SIzJtZdj0eLd4zVj1JpR8Popdc9Ckz7TMqt5RUWv768EWEFfqZCrI36cnH6rTuT5nqv3ODku08tMX4ktevNRb1PV4/HlvRFsGwKyZve69jRf9CpN5/3XeRPviNd2APdGBtAOzDrdsyVV+9I3tgDLiFqhnvu+/hcrSFc+dpVLoGq0n23/dwt+vXSJLTnc+hs9eSoKS3r4HT0VgsGu74I3qSos3etQfdHL2vKrDoj+3CwtW4FAlxXChSyEe/hVcW7k0Q9ia62/+jeh64T77hvCTzXAjCcaJYjnX1SRgCIOxrIgs/E/ruO3Xd0urC3R/v3//l4d2FVYqmh8DfhNupvZCQRc2dDj9WiHbf7lScH4P8FO+6jq/BMtF16Vu13PKvP09MaJkKfv788CZ5DlOC/4cfnYfNcJnX8o4XAdrvfCjRZavTcV6rIiR2/y/4GuQeXhs0cUi+lfsPgDozCiq8S5wSPHkweG3CcdyMFnjkTpYyiVQ1Eedl9LeY7arR6RDfSuG4v0NoaRBngpZ8s79MDNqZmHholQWiJm46fEpa4lG25Vu5IlTLsCvzo920WUCZzMuAn1LdVPD1WLGomaAk35NBmj0YPGCxtTowOLhG/xAB5Z5YxjuakArxfCHdTZtTMrQ3mooBfJ6/Hw7gQh7ZAx49oMuDPFjDJ5FfJwYH6B+SEaG9PHE1nJW7G7hg8ondDptflwGchv3U83FjwI3LWAeebQw0qINfDM64fMV2XejOXrjAhbjRnlg2bljs/Gb7XuMmdr+BIP2ZxoW1RuM57UNg1+1ykqCRlriQaP9n+MHTxmWThq3vPjduNxprj28+vfn4198aeBFww/T3pNF4QvmMGOi6XKTLBgrhdJpYGUcjHK3vUiIt96jp6lbIA48t+p4Sd3O/te5cfjGrzyrF2UeXrQKNlM1dbtCm3gxIPr7apiHReDabCgixSiYLaC1Hovl4QZJG4wnwiAK4noGPCvVxoxmEkdPRCiVSqKCq0pVyQSqU87Z5ilp9BwhrlkQi+25LbuOF5U7uKS6wsWZM189o+sLwaQvtGhYb4+VENSKLPEDWthKx8pjIcwBe5POCwPNipKUPLCERY3rpuBEp58MC+CFBV0Jc5MfSee0euJWxZKC1+oAMCnWoL3cV13eVuFtq3SWzMlB6hPt72br8nKYvJlNmXVoUJ+k74hAHt8NCpbWzQLuL0VgERBj6dGRUuBLCIwsoUtPHg/8cj1ViJqCt+pBefQcU169ikKu2m9pd6nzwAitpzLeldYq+BBj65LbHA1Ayp+3qeBFNq2i1o2UZmrkjFn1o7yeKKPvyMmeNDGH6Qq17yFLZyD9b9V3oe4rrW39J3NVurttyz1Z0rdWol5SpAw59otmudMxGVNeHtnGFcrmcaj0eJ0bimUw8IupZaejj49UEAtlDkSEtUj/SMfWhSrOZOMpQYwHgXL1nNp7huXd1nXj2DU3QM4fSL01/69T1ig7sQBFz0MnLPIEoGfr4QiwsCDA4hh6Pq8AJU0jn9cw09GEzbwztnkN5ItLUx0WqcGqIoj/0lbpWfYhWvVdeWnquXYKWX1ccD/E2zaKbbfRJmD4xRMAZ+nijb6FtHi8Z6+oYGu9o+oRRGBkxIqMcR+gz9jbwLz4DfwuPOlfvjeKz9StW5gh9L9BFskeblLCyG84fRGafyGEgfYWAPvZJxsieQmtFbFcSFR30wQ2wNRJNzKY+c7sD19vaGgBVL9Gr94S6OXeFxOogtwmvrbuIeWlU4SKZHPsqPJ55EZhzcJkC9WmZgYjbtrV5ka4vCyMte5CKiOvD1cKmhOAN+67ZrN4L6pzdHqFPfYXEuFSSM+u46BzlOvMaqxr0i7m2HoPJYIlEqWPXhzbAEctjCyHOsnAxb8KmoPNVWD3vUL0HaLl3ce61JaZ4EV51G9UCL8z0c05SJMZpiwr/6WJKj5KNw7v0mJ6UGGgMtelD03DWuiHL8ri+Uas+OBKmZZfqPfD73EU7xNhX/AFe+9OtmudGNXN/OAaF4VDkcEASHuX03mXVh7oysdTOUPXFQvZFOei97vpcq2/PHzR7pAL1FbzmMqgFAs1XRtkXzlFwdOLpp8IpIw3s+kgpLvqI3PakjyzkXV/zByqEqtwmvOaafYHNi3rZi787f0uEprkC7Y4ABq6QjEY8SucljrhcOm/GGplp13mjskv1bfmdru8HYpz7E15741rTplH2leocBVcSMm30y6DpDvVrqz44tnNdTx0Rro2+fzR1vB5y0FezDlB/zIFrQ65VvTH1NZ2jqmhRZT+yQtf1oyxCH1zWipYOn+DpCxe0xLHUXbUuXGj6wJBLVu954XJmyAFi+lTnwLWay7oP6DPKnnPRp+3cbUd+CQ77ro3QhxTgp1xhnqPrq8rEc8N8bKfPrfo2vK456asRAx2S89atLm/60JEf3K7j55XprBjCNhqEPuSAN588Oso7bdpQpKkirH2j7K7PVn3BrL4Nf9bOOTD0xjr+b9SGzg3VXjvUA9kaahU946YPzI/oUEiqtASm8xKyZ6ynCX0oqeAJgvZXSju0ox4ZaENAIUVEuupzq74NzvrOkT0VhZ5xnhTULaPolsvUEYD+tLcKZClTSVQykva+Cx+xLFVwfQEtOWUpn0iA8NYxFEWfEZmxRLrrc6m+HVu1Mw7UiHlW3YJXnc1smEW3XLMPPLOEveOinyrz2DtCNn3aqwQoHoVzDmMf/L5YtEZ60SeURYfq26FuO/sjJDRhZG3Lqf/umhXV3rinXyCcGWudxeseZfybGZs+YGUMi+fFhMTR9QWErGyJrEba6yOr5xOS513H29pZOjVyomhuwdDa9mtNjrq3jVvaxotut/EXiGYjMq+dxgF3kazlS/KYzHEysTVJFfT3ATmej6eFCM+39HGy9YvK1KgRKcfTYKHJt/RxPK4PfojxsVWzkAgKgR9e97w7DvrO1t4Rkeo+Ul3beruzs/N2uIbnp2r5L5DzNoV0Ar5dGgpFpHiV+NYwFpKkCLmzC6fK6GVUKRsTwBQrSWiCjYJfIgkyMq69tgojAzAS6ctKklQ2nVQjkhSKOlQv6dV7YWO4dnaYwtl92+ZrdxhaGtYUDeP9eKdmLew2R5ttjkajHbwYJMBXoT29kOE98p8WAqg7NHuAHVtobnd7C9obPr+/h3dQdZ8out95M44vzW1q/g2T3ReiNjd2dzea1szc81T020Xd2R8+b8ejhKa97Pv/b3t7DvXd+/3zlwgJI+2mUI33dvEeS35TqO9GLlnZb7MERuydP3+JxGviflvsXRqxcGmkvYbdEQrnD/+F1vYeF2wi2vl7R7N36S8vafvt0bT7e+86jO3R7F3Y+7fa22vsjVwgGDnYdYxW35PBwN3BXh/OGy3+IvUB/nLowbsHZOB/D9/1Z7dtoZJKEAe7NivqO1tkv632aDRP0fxdOPX+EDc4f2jXfKqPO61J88IpKsDPwafDvd3dw78P4B82+nKtZ2PeQV87+nOpZ+Pw1HddcOpvv9vdI/zdjb3vmD0N9eD7zmH2WqgnT3Qq78T3bNxroZ7omJMf/G5079A8cbJDTsz73eYeotmpvZMn/G5yL6H+p1NO+93kXkI9TQIEufLR7yb3EupHUs/R0cfrbvqO/G5yT/Hp9HWM05/hxDD/5dNn09d1S8D1L363uKc4wvSc/oi5Uee/fPjw4fDouhXWdy3Mm/o+faGdQRH+jv7tBvY4SMqNz0dUd5BPuL0b7JTPyvyXL/PuTo5uGFxnO47OmTf0sZGvKz581vSxrtslYC1z4wbb7naPOs/sMRgMBoPBYDAYDAaDwWAwGAwGg8FgMBgMBoPBYDAYvcL/ACq1q3egtQPHAAAAAElFTkSuQmCC;clipPath=inset(18% 62.67% 15.33% 4%);" vertex="1" parent="1">
          <mxGeometry x="2200" y="5010" width="50" height="50" as="geometry" />
        </mxCell>
        <mxCell id="Ad-eanvACwM0OZeesIjt-32" value="" style="shape=image;verticalLabelPosition=bottom;labelBackgroundColor=default;verticalAlign=top;aspect=fixed;imageAspect=0;image=data:image/png,iVBORw0KGgoAAAANSUhEUgAAAN8AAADiCAMAAAD5w+JtAAAAh1BMVEXu7u4AAADv7++7u7vz8/P09PT39/fr6+tAQEDk5OT6+vpwcHCHh4fLy8vf39/o6OjZ2dmrq6s3NzcjIyOhoaHQ0NC1tbXFxcVNTU0eHh4uLi5VVVWWlpasrKxdXV18fHwYGBgODg6SkpJnZ2d0dHQzMzOKioopKSmdnZ1FRUVbW1sSEhIaGRpfblfPAAAQwklEQVR4nO1d6ZqbuBKlhBYWs5rNgI0N3t3v/3y3JIG3pOdOembapj/OjyRtO4mOS6o6VSoJw5gwYcKECRMmTJgwYcKECRMmTJgwYcKECRMmTJgwYcKECRMmTJgw4f+CvHoA/ykcQvjPZUjItmiKnL16HP8VaFFwnkL4Qy1IDMhyL13sf6oBWXECxJG+eiD/EUgo6YH/U52oIOkcYEOJxKsH85+ApWi/JCCB72uWP4wnM2ENGofw59Hj+RoOG+iyDgma9Kfx44k23bzcKDdj/CiChLhwD1cwyoZV+ANo0uxKLalL+VvVLkOD/hR+xDgN/DLHSTv9x00T/BB+Bj0qRutuawkjaAZHOnOMH8KvRjZdc4zMruNONxgzNgP2E/hRwwJYxJpU2RyKxDN7iq0xdklKKQuvFoOLtTUx17Xb4YUyp2zMJmRpMziXQ9FkKXGalFAvunoccE2bjtaIJO9ZWJ3rVqfDIm7jWNAQLOlBFx87q6iKws0CZ5wLkZ8luQXAWSkXjW3gwqHaZ1VNeYjG4znMZ6EzxuSJd3CZ7Q8P8gXKzrS5wwVAmFiyZuHLV4t8fAuRcH91mt9zu1TH3E892xBCdIf06CAnXuv3qnB06zBa3JOLt5ntbzu3POfIhFBDORZuDuGw8Ua1Ch90teUmqXAcLw+p5NUTocwJWjhme+lPD3kVjIkfv9HLcarakQ1nm0mTEeSO9mNOWqMjXXJMJ/xWCoBsRDOULbVeyWaY+OHARZ2brY+0MOQzKgIv2WrygcoHGQvSYEQuhlA0zckTgSOTW4+xCNMjTrlvtu1sWymvsyuStAbeR4aRZRMhwMpJ1l0YoD4rPUpFXRKvG+Jg1XphwDHPBSGutMbEL8X4hkKFol3CpPaJwbi3GkKgXHXKWoSVt7LoqOyH/HAJbnxCiVk3HSWeEjOABlwEgTlLlaehvAivE3NM/Ii9gXCPdDzuFOhhXFnhlUomznNfek/JhaamY3nkhleP+u+D0Aa2CRQxFNc1J5Uo7JGZ6D9Eu619MMmoDDdAbjq4YJV3Aqawyu29zCQC2loGvTHyk+L6BhkP1oJQ+2EShlCjfGHj5HdXF0R9loTpJcSwjgTpwIbm+Drs+Tj5EbtX12WElmwjH7ZoqTDlptfToT7sHdd1xsnPGEpli6Q4zcszRgYPTeeGeTTITJoLlqyccQX2KzD8XbR76Yod5n4XWDKDdVBz/T7B5J2wZeGIv/533hXChz51t3pNhokC9XdN70KJjHwss8bKz3DiOw+zNxxMg/LtLF3afTRnOF95dCAj5UecRvsXmSJtMKgLP4Aqr7dhz48uqcGPm+DVA/0qqAlqhh4sKHxZctnuzQPsmdRnSo0RQXgD/ii9i4QPYMYQ+xUUzDACb9nFXtptnTu1yY4QjnR+ooTZQbmD3WkNEPl+3nRWcsScz7jjR+nCG+sCNKhegL2b6TCdiOxUsSEE01qKvxjksHz1ML8MuuxjwwW1tt1VNeRp4geyOmiYNkU9k2beNR6ODzSEXaFtWBFqzHMbBQxrU/yNpIENPvf2CTSjbZ0kYrfderpEyJgLJslzypvEEhgcMMPfpDSjeTGistkjCGvAbrUBE6eEfJfU1EvcohBE9TSllObN/NXD/DII5kgzz9Ope5RAXqIZ22jjylQiECi4Cccf/FeP86sgqgrjxcqHtrzxTyF1N8FWlaoFbWFL/YZ+mCMqWz+AEL6CNtdbSDORz3YRcqsw7C9QrQlnntHQtE/1WBtfUUIvYU6l/TZJbIULGS02kGSZaaNcI0JGQN6uxms/EqBEGwoVNY1PsFpAwdm1JG/4abYZaxsFjp9vUVv3BUKLkQqs1LttgyE/mvuQvnKQ/wBy+BgF+so1hgMnWR+qlN5/ABHXo7UfhsB4fl72/E4uepYcUvaw48BmsfPKUX4dKkvIoJ31/S5ZXuEq3J24kDVCohegQTywx6lgJD0hIFn1GcSM87BOuzUROCNJ2n8BgqzbcUpsleTReuENRZiQCuYkYGDwozTsP+EHXTxaCYoUfDArxW5jXRpUnKI6Ct9z09CXcZ3QvItwSb56mF8H3x90BNzIadp5jBaLXYRxsaB6CRZi0YxzgiqgAaP7SmEX+n0+HxMZGGgYLi7+SEOEBN9ftAGHTi1LBvwSQujU+0K6nhFPUCJgv5e8Gm3G81nuvMyaFYZ+6VdsE+PHmE/P8Ro85WI2MpXolsTOddKLGT2+Te00htWYDWisT4HaLVvPDl2I4X0py07zOFFGI56HfDM22iUo8/g6xPigbLblhKkO5TjguvJJaZBGI65jY5A/Q9hArDLds0GDPiB6XG3mYhoVOMtynNuchuKXQhlehgBhU6Nff22uN5MMETpdQ0dKUOaBM5j5erfzckyEEQ7RcOExyY8Vvi33P0cJpaIP4A2kUMMYV02K604StG0Upt44XYza7Eth4V9bQqvQccFanqXH6Zjea0lpNVIfo5aYM4PjzWhQR3M4mDmmTh+BzHOFCA0fdsEY95L63czTxh7YnWLYWZc1xMdolui9MiIqw4TVSJtFZBAMoel75aGcw+oCx/0BDrOQU0WQzVa4BGd0jBY0pBHpEtI+LhTtTC69hRI1Ra5OdxBRpkiw5uNkKJdgA46j2q4rx+F2XcI+WbjmEU65FGeoQwXv4DjOXFDVKqyO6zVYmQF3eA5N0Jyaui3PMoPH+E4xqWhHGed1lIOj05+m3nWNW6AI3S+1LJ1pfY2LFLZkhHFQt7yYsHSOitDHTqYQC5jv+x7Rs0A/I5hMhS1/fHO071mKIHLSWxjETD5u+zNKsSqLYq6B0WM51k1rVsOMRzeCqmn5As2yOUAhVD0mlZZd+WzoI/ktXs3jMxAkWIgrwVNcmE25QocqjboSqqJmtB9yR40y4xOK8ojPq4l8BkITqETaR/qyhHkjG0W7NOqsQ6tjH7WTGFdhjvnvb9hhOszE+3ogwk0oDBbet54rU27bZZ7rcQtCvb0Fq9T5laBjVofqrffsaXi4mNSWvkVFe3exGUi6N7uwEF1p5VHxSI+jBFps0rednxodbFCAwnqhDrRAsVTXGpzKaHAemFEQLm8+iBN5wvrmVlTXc/fm8UP0p1Ln2n8OaOLIYVynE/ih/pAddMuQ0v5CDrVYy7st4FfS+Asw86LC32Z9ZfdxmsNmdmxknDd8hhKV8nCrg2PVegFS50qff6T0Nl/fVYyzAKXmwk1KKLaPjmbFme36ze5QtKHjED/Uim5jzUydfkQOR8hLZKgIGdV4O0NSJ5vHsy4/LuAJx/CgiFQriDOCTKJi8/CBVRdjiuUZgX+CfZbn2TIyxdsZkjCxh65pzPbwzBDgsLMSx4PV+aMOhePY+b6QjBMzOzbnWNPdHKC8Tu/qDSMikbdvbGf7ZRLPV88M61xk+7QEJLFCB0OWSMr0ctPzgyCMLqAc6W4NsyhJtvgNveN1MoKw9AyrOufeDENBPwuLWE7ZEtzNLirO+MYaNuXdRQHr+fz5y0DQN+RnSDkTurBLbCdIrNaMVg+rcYNGct2qW378htAjlm/KD8GD5AQr03bSbnX08uTOOrqmX/0ls3I1W6bOGy6/KwjlflLNi9rzareqnpXpJ9hYq2oBnWc4/G2jYA9ZHnT8bGbN41XTRtHx2Dau2xwTFRgWh/KXGAKrpU+oYasDoe86MZ+AQdpOl02xW2/i87bNvNAWge/bhh167XoxHAiN41OX+axPpfRxgxeP/G9CJneMOxwJmcnMXZ0OF3muTmMeF11zzH3DQTB1Kllc/95Lh/3HEIaglKMA5YzYfujbth2gqeQrmC71SuWO1Nj43eHzksvP4Pc5fj6/q1Enfq/APxzUm/Mj/Ktt80Toa47emR/h9lZ3Z/05KN1fIvZifv1/fvPtuu6sOkAE5UJ2MCV/bkBBuJNhstc5r+VHjDT0DXILXzQQGKnDVFbgaTiTsvIr/IidKPXtvpifPPcA80O5izXKcj5XnDwq79XQiP647ZoMHQruq28FEM3vk5oQber3Snn5x0UvItw34UdoqKtGzTJbRlFSz9Q9PgdZmSUsVWWhL9znJpivCjXbV/NDT6DbrFESMwRqY1laj3VhXd8M+gV+uOKYzAWb1x95IY46tkKNobBFSQlWv3HAvs6PbxW/V9vPMBz3xk+5OprAqbefs/u6/Zo34advWKTXIIFzNnZ7+3Hr6/xmb8Lvaj8FFQSNQXUyze+P49Z781MSRv55sN/E7wlvzI+yf5XfvzvWr+CRH80ztS377/Dbvhs/QqQ2e7Tfgz5D5yOLg09amVAi5cFwY+8TP90+glJCb2h/82b1I78QSmH8FT8WpFldZ+GD6CYszJK2jvJQf3bgJ/UnCWx8X4Lquf/NaYTmxynnUp9hbCef8sMX0qavwW/vzlfTvBiEeWyTJ34cYLHbxZZlFafVCx6Xofkdk7qdNVtUxWf2xC+6XUWonjIQ7xST2XABHFGPjljE+tjZ8hd+291dXvL9j+VxHh8sA1v+CT9KVR9ITYxcjvjSN9HLbkr8UICpiMz21RnPGz9Z41AfgMs2y0Py/RcUa36X9Waj+TXP9hvmp054K6qvA5CX4eh/gBbSkUjdQz2A4pkfJktH2YcnOH5AvIofla1IgXyujDTAo/0GHuoJLeqEI5U5h9m3t4jN8JgW2bMGAXnyL3QPsLL5tUjxGn66/MJ2f8EvjOeFp36gt0dcyW5mgDmOX2VFUfS4/jCX7+RavSvCvIif+oHX0jE+r7/+k1TdJXnll/feXp2JLDPdmsXYIz/qW6pCRe7xMn6UpLI38BN+6j5leauyweRdHHk/akNfzGEtOR+8441f/iGPGTw1F76CX/8TM9WTxz7hp8AdI99ofvrVoVF7fRTsykHxq3TPVv7Kx+095w/G5/ykNAu8upv3ox5ezYdWg0VEhjxZ8ethicHUL8AjPz3gT/hRljaSyqJ45EfFlcxKPPI7N1oLvIv99IB/z4+lsuhnJWnA5B/ujjkSHg4MXXVdxcAvIbyCmy/6PlY3/F9+fX2eMCVDMpyj+tbsh2Oc4vo8qPQu/knPouuP9suel/h3+VF1blWdwyX0zn6C6hYQwoUqeCfsxk/ur+hjFKfvD3w9HuKfxu/mJ2GyoDnXxun5qb/jNO01QEqCrZ6gV37EUKXsjtAX8VML5FYd/IVfbz/1ubV2Hz0/Fe3pAcxe4ahTSUfdy6PqnyvJj/oHvTBfEf+EIGp9+Pq4yaOGIs5cDVIZylFmMBmqZEc+KRdcLzvaSKqEi8cFwtBPOdFXo6ppceKqSUbvRHXD1/aN/Ahz1J0hcMoFp+SRH+H6wpTG5vLYnz6t05rm8tYoaFJ5vS0GAPwI495iaNAlerVC5jD8cvqTTIfM4PRb+RHRWrcwfA4f+NH09gA5KUr57aNuHw1acr0/+2KdZIvWTvua2+P24gZf6b9E+X98b4MkfsuH2DqdrFjuaw5X6mt+0kNsDqXc9tzM5eQNtNBcbFPqqKc9hnL6MbO6dlcvGn3kgWo+m4/Fh8zZ8YUhif7eC1YICX1b1ZMC2UBGH+enneK7gRD4nq1qXzRN2sRTj39iqen3V6Uw5qfRvmmaNrcH69immYZh6CNUwijI8mh6+Ir4Vh8qc+7ep1F99uSe3y+SH70+Yf1POhXXn5IPg1InHW7/8PPDcwnrz7Z8J70JEyZMmDBhwoQJEyZMmDBhwoQJEyZMmDBhwoQJEyZMmDBhwgPIz4Zh/mz8DwKj+TD6aUgeAAAAAElFTkSuQmCC;" vertex="1" parent="1">
          <mxGeometry x="1823.9299999999998" y="5116.45" width="77.51" height="78.55" as="geometry" />
        </mxCell>
        <mxCell id="Ad-eanvACwM0OZeesIjt-33" value="" style="shape=image;verticalLabelPosition=bottom;labelBackgroundColor=default;verticalAlign=top;aspect=fixed;imageAspect=0;image=data:image/png,iVBORw0KGgoAAAANSUhEUgAAAUwAAACYCAMAAAC4aCDgAAAAw1BMVEX///8xYZIAAAAuX5EkWo4fWI0pXI8SEhL7+/vJ09/Pz8/JyclOTk7h4eHo6OgeV4y/v7+nus7U1NT09PSEhITa2trm5ubu7u4nJydeXl5HR0dVVVXGxsajo6M6OjoZGRmTk5Nzc3Nra2t+fn7u8vYzMzOwsLAXFxeMjIyTqcI+Pj62trafn5/i6O8pKSlyj7APT4fBzds+aZd+mLZafqWLo75WeqLW3+igs8m0w9XH0+A7apl1kbFIcp2Gn7tafaQAQ4FOdPWEAAAVGklEQVR4nO1dZ1vyTBMllVADBKRLR1roEhDR9///qndmNoGUDepz2y7J+aKyKeRk+s6usViECBEiRIgQIUKECBEiRIgQIUKECBEiRIgQIUKECDxomWSu2avWa5N0vdsepkraT3+jXwMjmykBMndlHiflUnI6bM6G01TpDseN0qx63xI9iN9XmxGhsWyuWJ1U4kRJa1Cr9pqprHEeNQrt+uDCWaXWbfbuxRCkZ9kffJAfh9Gs8lip9ZpMBme1MOLEeOU+Xe0CqrXBRUx7mZ9+pJ+CMQqlShQHxVTTTd3ARdmgN01mL0qtlUvTnkN7r/yDT/RzGDq6251Nk5myYZTBqwxHVZ85rM8aDnFaNjUc9aZ8usrDOjuh+Y3P8EtgMAVPN4OKaeTadUcGpwbnXELftKxEImFZ/bOMZnqM/lsTziy5kW7Spaya2xuXcz1wPG2bSq1vAi6sxczFaS3IsqIrsiqst48rk32e6eBl54VveILfA6OCYpej37X+ar9ZbF93r4vnx/2T2bePKedKNGztF7u1AFjvFi8HNqyZL6osECRBUhVd2B7YeQ18S/HcDzzTT0FLozZSINPPb1Vdl2VVklRV1uHX9WL/5BAa6+93ug5jRJuER54eLZJQc6sLLqj6ekxnlUk4b4jNIjxuFSnR9sJSFTxAypbSIk+M5QVdEnzj+vJ0YIOy6h1Q9nR1ChIaP/d034skPOwE+TDXusCFtERe+rtlyOjxgNcxT7rv85OFn7eRzbuffMLvg4YxIer409Ivdg6WYxi2dDVk2KFNW/jYVvU83mGGdjM0DvhTmNrBYCJELAVBXsCwJYdRTbQxnR77ZVd/xI9R00c/+YzfBhDMFii5KYSSJffRBITKJcPyGWXPz6ZEbGpdYPMWws0CPOcMfi6UMJpQV7WtfJ1LOGyH7vvFL99kbvEm0x9+0O8AqGAcLOZTqJKrJzhqHzp8gXxCNhd+1pcreBcQbvZ++km/AZDZVOFHuOTpQIb5ho7btK+BTW0XOBb0v8Pu8sdxBwo4RPcSyhAKZkDcwtjkGV8UzaEo3v99f54DMiFPHF+1mGboqA/yFi658jkhfUxGs/X3PdCMicwpTI8lVN2X9wmmYLsbnxNSIbIyRPHh7xfemTHrh9pEeQNm8L2CiWwm4Grej9StFtPsxOBvo0ZuNjxgR/fj19trUE8g5wfPCdIrWNKbkMw5pT+H8MgHtPz5Xb7cYR9Tz6PbB0k7InP+921mi+pjj2FGEe2ddjWRDECxfFErqnnsJrx5XBQLIHthZOrgUBIf0HLBzuTdDs12QPW/P5Eep8hoEabIy6f3ZT8uSKrltRvow8qi2P3pR/16AJmZWCyYtdjQ+1eYDoH8DA59fTENdpx5A2Wj62RKR4hqTjYvkvSm7ZRkRdf1pQmx5iWcWuapzncDc76MzG0ImWju+uh/VF2XjkdBCS8Qo0jqp01+tVrlLU+whaEn5AbJn37Ur0frKpnyC1XYl9JmZdLExmobWo6Xlo/m5brmZUABU9ETxb/vzLFoVAovZKAzP/xv++Q64RCYU7OFeG26r3shUzppODUy+PvOPJammcPHkIRRP4DCJtiRWp+1HTxxpVhSsZipWYf9eJxfuclUnyky6vzgQ34XiuQZ8iHRD1bPCOZhs1sLp2ecNxvzDkbaY4e1vl4vdf3kLsRh2alwE/4HC43F8Dr7kin400LSZX232BK77rDnLJhrOGy/HJv9/krCsN08G46lRf6n9LPPyYFmmInV4bBKmHxzrvWt1SGfPyTM91qoBlWNwgqW6Ihj1hY7E1TwRbF+fqlxK3LoqUwdq5mxhCw/ur25rFFt6nMI+DyY++0RYhSEdFrk+/5xa7w9KrqiQKwn7F6e3Hzu92PTfzghQw0IWsjUJJJ5YE0eMk3axtagzqugHKOW53UVk09Bwj/OKRAlk4PfNmlhbnWZ2n8Qsqzqytgjfk9bXVFVxR5XVf2YvwzKyjLBv2xFbIXHRqjVjolcklVcPrtV+EJmgryYLgsQOtEfDpnIbImmRn4RnnRV0o+bw5MFWO23ED4rR+s83N/iuPCcf7JMK3F4PNHhZwIh2gshs07hdEgtHck8p+b69mWrSCeu0cSrU9KDI7LpCrYwHWpTMPt70Fck6XhwiaL5rAvqyVF1SwBud+5xawFnqI5whpM5ulbQZNrr/KVia5Zu8LJ13c061kCdBBXJhxc2d9+yObJRRIxmje+udG7gTfvoGCtk9xEW5s17n9NZrYHgA/s9nMwG1XNCZicxrPHxjM45KMfKGKyl7cXQs58TehkGMg/eKsfE3zF//71xkybR1/ICBYTcSn+tSscgWeZJdTgMJxOedMAPd0LIPPDCUnQzpl0IYZbAHpAtCr88iXk6Hu8Wiz2GTnUgxjE8+z5YOlki34eSoKAea2CgJItzlrmWaHbxGpkoJ9kwD8QhEzPM4KQQSaOt2urukgCpTMsHnjum456oU5u2Hj7WPKOV/8kwQEZ8DIRCsZOEEoGhin7gnmbpkkIhzRUyO5RQctMaHpkYIlnB2rtuna+hni5kIvWZuK+WCWR6S0glMT74SB1kKor/kunnwY0GyVwo8gklQlK3IeeNQWZRoq+QCUrYDpuf5JCpboCqIJnYUmgbXpeaS3jzpj/9CZCJRaWPVOhy/0YmPlGQzPziGR7tSZZknpIjNJXZ2itkQhBY85TM3iATrWOQeWRQY7ZCWp8ryqQ492Lae8cgmTnWifde/KNkguCEsrFRpV3oiY8qzbReIdOYYK6ncY0mx9tQvZgjxujl7flyCV77K10OI6ZSoMgRJLP0sVmNfyTTkOAp+BcAIZD3oScmQPWsq2Si0Sy4UhYPQ6uANQ0jE21pn82Xn4N2Mk0jall0I0hmRvyQP8/9Y6q/AX3dBBU9hvG6oIYSBVk3xZrXyByS6HDbNiio9BZBZL6aw5foO8TrTjpEDQnBUmaQzALZbfy6jXan2u20Uy7BuRuOOtVqt9hk78TIZJti/C57l6FjssMinFEclnHZewncmIYDxnTU6bL7Grl2r9MbuZclmjpEmuuxFZROMJlrfhGDsJPQaF4j8461G/ECzaUZqMLTTAaPeHTcTGTP6RBOWEyDviVIZtNuLG5WnDi+5ZiGrGulcRcJwUWeLVrRWXKWGRFGKN8pWjxSKrGPYp7ltZ1LSpuQwTHLS2E7fvIKKDj6NVdkGRYqKuY1MnG5BbgMzoyupMPnr1KAM64U07cg0VRst4UT5rEaurc3yNQmcWx514C32iyVKaWadXjBFCwZc/GhncxqmpEEWgZwVKrbqccfOoBsrBAXxXoTzmjM7sXOXQWvW4hXki1xUJzNwAyXBmBAUoZmFNpx90q5/qOAi8NUWdGPi3zizN9exlmWUGxkjJuukYnpeYrbayAJcNuTl0xP7cNLc94WTTSfWG5GuS5wCkZ+MrUe8z8gZU3nSXIPrGuhLVbOSy+BOtbLnRPj9DP7EK84BGkjsTNnZA6q4oxdJzsQa448Zuvig+u2xuplp+q0FE9WhW2eKfdYll7DucTht8hskMXi6K50dCWGDpl9VijgiObJFk20BBB+UFzUEeOBNw1k5spZG3elZhoE0iCDMPR8Kfyr5vZMIxLNS5wJF3fRUxRbjMyWbYBjsa44uKzmKqfFied7aOZqvDhJuqpKqiIsLMZWeGT0LjINUUyDPh8DVpORKXkZg+NP/FIyWU04HNUbyETvVeIFkOl4qzKfVwhzsn6o0lrdW0HuiGkDu/Rc5zfEeMlFZtYbUGmDOCMz7syE+uqopQfOIs6+dXh5XSvAp7R/U81f3rSZ+AIxPefNRuAiPw9zWB6ywlYFotWEsJRJJqbo/PlyIDN+QWvQbdhP7llhmSQPU3P3KBmFguEic+hroG2LjMyzMLdtSXbQCWt4Mg8YZoOdOshvOaDNW2QO6Q1y3Moy0GqEdjC0kwtXUGknWq220jFAynDrQajmdxkH5cuX8MgEuJ4hTcV1AoVlm8yRr4CSdMh05C/ti8qGYiuUA6BRUrWEKglXQqPTm6ER6Tm8Mi3YXoCzk3k3xyhu2i6050g3iUb0UUtmMXkrUIOhEcJPDQglKjFFRvXisFG6iLhNZk+se04o2TYz7risudhp5FxoX+sr2cuCsuqDNq5CD4HwEUevkwnfG9dCBIMjVGrPzCXyFN6zTQ1w2hYpfbYtJi+x4ZPZ88dQaea7h122+0+8NWnbMmqT2fFN02Xs0Kjl1FXiD/4yNE6fWPl8nmMXwdqDsd9JqMghWMnS0XyTzCb1DwdnHbFm4e6Eld5aFIRWYIW1zTV+pa7Y4i2N5pNZ9PlaINN+E0Y2N+vRhkot5o3OkumtoICD8ZJZEXvJlAcN6rhXljy7uFUhiAT55FSUbDyrVJ57g8wM6TlnzQVGla7kEf21pV7pLKSJ3Sc8yCTBbPPuBmSmgp9CROn94N5ztlbOTCf2ngo2mf4zcqKPzAn3/hAC67wq2zMWjExQrzxnENHXJSrGv0Em6Hkly9Nz6kffX6ymGd6XdBFN/GKYlafFCrciziez4bOvdy1kzrPvSmbOFNsmM+eb9Oz5yez5vLdBFXqwWwqvlr4guduoVPXi4UVlReW3yBxSchzSXRBb2J9jkUO73vKKVhPnSzRihz9Rxicz2/IePsUJ/dxk4n4fHfEef9hkGi2PSc62/Go+JRE5w5jQu9DsCQofNGYuTUngjcbIV7AJjbfIvHtAz6jxuohQ1F5YVyYtCnqjw516vZ5B07WK3wg64JMJctRyi+Ec45qkt0zSY5d0MqC2ZyuVmugnE4ymm+2cfTgE1HqQDQtcNXIF0QvbcsA/LlATVextMjECyXBngtjc/Gq9VFlQHtYXeyYfTYERc0JohnLJPXERQiYEpd0Lm12W7XgWFmgTFjjmnGi9BlbZltzCROwN/GTm3MqRGdihFDgB6RSIJsHPyqTfG5DATcDdPwmSaidHb5KZI2dhcpwLY9M4bAVsjTFCO4cdyFu6JXifQaFUKiSn7e4EcsbJRcJCyMTvUGf7VBnJul2Ucwftd1WRhZAYcmWNrEYbhVWqo2ZzBPn9LBAa0RvtMd613EC8t43yI/ZvePnQxqqksMl0baEI6qt3uP8oSTRl8S4ywZ48xLgrK+Qds8da38K45wR57FUyVdoeRav7I7z42b3UwrbmyVVEsdYpFjtwhFMOKkJAVC3Omu1etSVW2IwwblNRmdwDydqwzjarq1RTTpxpJ/AMTTipO5rNesB29eyucG5cek44m4Zp/dVWdqQghoUcCZLwc6lTs8ZrGeNEyyFTfcwH4XJqbXrCYKOmLZjOYRrceHdtka98WtEJnTnuwtma1zrNZKnQcW950qmnQ3Y0uysOaO/Oh8no7HdSXfaZGL8vOmyUR7VBZUJvR8s0psNcEn9nZGaqVbePz/RYzN+qT12bs71IsiQrp8XLeL8fb7ZHXVXV54sTP6wVSdVPi8d9fv/4vFMx1QTRVFc2mYKqBIAtvufnoHp7YF6NtaqPWm3XF9QW4U5I3Z3fZ6ZQKJ23ggR9TL+nc0ArpXK5pDcbNzLJVCOVzHhT9+C+s6X4A6+lVis0prmUL3uwFqoMBMoEVVaUkyeL7O+PiuyMwmEwvAJ3QPMwMUXmwkUm5tGlQLWDlpuxbZ4q3SLKJ+3MFVKDE1h2HusHwziIvTqfvURAmxU9JbWpOPjAyuH+6mV7lGRdl6XT8z4YxWO3q6wvdUU9LmjYPKqCvgBZebKR8MJ9iQJznJ4qhkSpgrO1JtYG90u6XNhySkpsN8vlMW/3LmtmYo+y2vuKLcy63nwy/R9aap1lD6GjrnFtq6jBKICPKommZ9kpBY05m8t2jAVhyFfo3lwHNnsuKfJ6t92+noQlmW307Z+/EGgqusOC4ddvOfdyfCeXsRQTTVcdA1Nx2ioODXg7ZncNYhgfFm1ircjON8EhqvpyTY2Od4OvWW4xEQc5W3DKze/Y7edK4diHGr3o/jnWJBkEFwl+tDtFa2Suz43BV8h8XqoqGW1F2LLG++QcQp6vWFR1dw9+rTdrNtsdnIb8Teu2kuyRnYSRtoIpD8Tu1N5znW1hpmODbSiZQLT1uNjutotNPmHrxMwuJH4BjFktbmtO95ctzuwyw8g2dFMowKydtwzW9hSt67jjRjiZQT1oUKPw121HWi40crlf+E8LsnFmw/NLXV1ukZcqq1Vo1mGxpFmNJcv1Q1eu+q6Yac7Fr+Xy92Jo66M53lCo2CZJPbwKOq2NVpeCXTgNIRPnhmOFwp1RLmdLyWHH/ncDk9+3PO07AJF75WLdZqzpyhxv15B8SWu2kAvrtSFkYnX1DpPI+fzcNSQOZjewOpqHMhi4lq2TBu5FbAdybDNx9nE3fBEWxuwFT3njvtu4USoBGSzCVKdZozRj/wIk7msVyg1oHwp+1I6NohDjd6q1yX2t3p3lSrfLJOIufimasdxn0jwXCcrDGrOqIWRiWX92K/sLvwdG1+YSgqKy0xxZ6xRHPbt0eI3MJyxAVt6+ye0g2bt/mLMGoFh25q3ytmvXNvXAukiXTXpFcKAZhuv3zLDYrQ3mWOct4z4UoWTS3hJpX9NKhAAgciwTwekrW3ThOjVjcBO7C38O6lfIxLauTIvfxhGBgyotdAkhc0Fh5i1sIv456LJtDblk4lxp7ib21vokdIgsfle7HWbeZib+X1CkwhJ/Gwqcm+/dwhaun4U22cQxj0wJ+wj9SxoiXMGMZin3vL5C6kWa/7Zdd34zhrQYhbtBCkZG5XgUZr4fU+pT5zYWyoub2fXtk5CigjF3kYDOIiNuh1sEHkps8zgumavftx/U70aZ5oM1TtBOG3LUfYvCIlzFgzjP4lqtoP9hm9tHNaMP4J7ySU4KhM00t7GF+OehS/6a54FoQ46bnCL/z2iKlOO8+q0mbsduiGIrmgD6ACA2wlKHTzSlJXZ5tW/j/859HsoVxpjnX0zKtBVV6csatP4suowybcz+nYAkyfp6gx2t2cnHtieKwLpf09h09rSVZAU7wg/UO5jBBSe/rhnttwPXobCNckwrYTkbbze/rgvzL8PA5ra5p3/cGNJy8IjLj6NMTZf1HIuCtNKQNX50oqjov6DM2jxatWq3WrObB+tRtei/onnv7RwsRrNo/wAj172nhrnWfXVWiBT8X6FlkqlkIRNFQxEiRIgQIUKECBEiRIgQIUKECBEiRIgQIUKECBH+LP4PGbrhBLjqawoAAAAASUVORK5CYII=;" vertex="1" parent="1">
          <mxGeometry x="2145.13" y="5222.43" width="166" height="76" as="geometry" />
        </mxCell>
        <mxCell id="Ad-eanvACwM0OZeesIjt-34" value="" style="shape=image;html=1;verticalAlign=top;verticalLabelPosition=bottom;labelBackgroundColor=#ffffff;imageAspect=0;aspect=fixed;image=https://cdn1.iconfinder.com/data/icons/fruit-136/64/Fruit_iconfree_Filled_Outline_raspberry-healthy-organic-food-fruit_icon-128.png" vertex="1" parent="1">
          <mxGeometry x="871.23" y="5218.35" width="43.12" height="43.12" as="geometry" />
        </mxCell>
        <mxCell id="Ad-eanvACwM0OZeesIjt-35" value="" style="rounded=0;whiteSpace=wrap;html=1;container=0;fillColor=#dae8fc;strokeColor=#6c8ebf;" vertex="1" parent="1">
          <mxGeometry x="1821.95" y="5350" width="386.07" height="610" as="geometry" />
        </mxCell>
        <mxCell id="Ad-eanvACwM0OZeesIjt-36" value="&lt;span style=&quot;font-size: 17px;&quot;&gt;&lt;b&gt;Backend&lt;/b&gt;&lt;/span&gt;" style="rounded=0;whiteSpace=wrap;html=1;container=0;fillColor=#99CCFF;" vertex="1" parent="1">
          <mxGeometry x="1853.94" y="5370" width="326.06" height="70.66" as="geometry" />
        </mxCell>
        <mxCell id="Ad-eanvACwM0OZeesIjt-37" value="&lt;b&gt;RabbitMQ&lt;/b&gt;" style="rounded=0;whiteSpace=wrap;html=1;container=0;fillColor=#CCE5FF;" vertex="1" parent="1">
          <mxGeometry x="1870" y="5459.3" width="300" height="40" as="geometry" />
        </mxCell>
        <mxCell id="Ad-eanvACwM0OZeesIjt-38" value="&lt;b&gt;MQTT Consumers Group&lt;/b&gt;" style="rounded=0;whiteSpace=wrap;html=1;container=0;fillColor=#CCE5FF;" vertex="1" parent="1">
          <mxGeometry x="1885.8000000000002" y="5555.18" width="268.4" height="40" as="geometry" />
        </mxCell>
        <mxCell id="Ad-eanvACwM0OZeesIjt-39" value="Topics" style="rounded=0;whiteSpace=wrap;html=1;container=0;fillColor=#bac8d3;strokeColor=#23445d;" vertex="1" parent="1">
          <mxGeometry x="1931.6000000000001" y="5595.179999999999" width="176.79" height="20" as="geometry" />
        </mxCell>
        <mxCell id="Ad-eanvACwM0OZeesIjt-40" value="Sensirion_1" style="rounded=0;whiteSpace=wrap;html=1;container=0;fillColor=#bac8d3;strokeColor=#23445d;" vertex="1" parent="1">
          <mxGeometry x="1948.93" y="5615.18" width="130" height="20" as="geometry" />
        </mxCell>
        <mxCell id="Ad-eanvACwM0OZeesIjt-41" value="Sensirion_2" style="rounded=0;whiteSpace=wrap;html=1;container=0;fillColor=#bac8d3;strokeColor=#23445d;" vertex="1" parent="1">
          <mxGeometry x="1948.93" y="5635.18" width="130" height="20" as="geometry" />
        </mxCell>
        <mxCell id="Ad-eanvACwM0OZeesIjt-42" value="&lt;b&gt;Grafana&amp;nbsp; Dashboard&lt;/b&gt;" style="rounded=0;whiteSpace=wrap;html=1;container=0;fillColor=#CCE5FF;" vertex="1" parent="1">
          <mxGeometry x="1881.7900000000002" y="5715" width="268.4" height="40" as="geometry" />
        </mxCell>
        <mxCell id="Ad-eanvACwM0OZeesIjt-43" value="&lt;b&gt;Prometheus Exporter&lt;/b&gt;" style="rounded=0;whiteSpace=wrap;html=1;container=0;fillColor=#CCE5FF;" vertex="1" parent="1">
          <mxGeometry x="1881.7800000000002" y="5755" width="268.4" height="40" as="geometry" />
        </mxCell>
        <mxCell id="Ad-eanvACwM0OZeesIjt-44" value="&lt;b&gt;Flask Endpoints&lt;/b&gt;" style="rounded=0;whiteSpace=wrap;html=1;container=0;fillColor=#CCE5FF;" vertex="1" parent="1">
          <mxGeometry x="1881.7800000000002" y="5795" width="268.4" height="40" as="geometry" />
        </mxCell>
        <mxCell id="Ad-eanvACwM0OZeesIjt-45" value="&lt;b&gt;PostgreSQL&amp;nbsp;&lt;/b&gt;" style="rounded=0;whiteSpace=wrap;html=1;container=0;fillColor=#CCE5FF;" vertex="1" parent="1">
          <mxGeometry x="1883.7600000000002" y="5865" width="268.4" height="40" as="geometry" />
        </mxCell>
        <mxCell id="Ad-eanvACwM0OZeesIjt-46" value="&lt;b&gt;&lt;font style=&quot;font-size: 17px;&quot;&gt;Far Edge Compute Node&amp;nbsp;&lt;/font&gt;&lt;/b&gt;" style="rounded=0;whiteSpace=wrap;html=1;container=0;fillColor=#99FFCC;" vertex="1" parent="1">
          <mxGeometry x="733.9385714285715" y="5436.950588235293" width="322.1428571428571" height="70.65882352941178" as="geometry" />
        </mxCell>
        <mxCell id="Ad-eanvACwM0OZeesIjt-47" value="&lt;b&gt;Data Acquisition Service with Bleak Client&amp;nbsp;&lt;/b&gt;" style="rounded=0;whiteSpace=wrap;html=1;container=0;fillColor=#CCFFE6;" vertex="1" parent="1">
          <mxGeometry x="764.8300000000002" y="5519.299999999999" width="266.79" height="35.88" as="geometry" />
        </mxCell>
        <mxCell id="Ad-eanvACwM0OZeesIjt-48" value="&lt;b&gt;Machine Learning Models&lt;/b&gt;" style="rounded=0;whiteSpace=wrap;html=1;container=0;fillColor=#CCFFE6;" vertex="1" parent="1">
          <mxGeometry x="763.2200000000001" y="5625.179999999999" width="268.4" height="40" as="geometry" />
        </mxCell>
        <mxCell id="Ad-eanvACwM0OZeesIjt-49" value="&lt;b&gt;MQTT Producers&lt;/b&gt;" style="rounded=0;whiteSpace=wrap;html=1;container=0;fillColor=#CCFFE6;" vertex="1" parent="1">
          <mxGeometry x="760.8100000000002" y="5736.95" width="268.4" height="40" as="geometry" />
        </mxCell>
        <mxCell id="Ad-eanvACwM0OZeesIjt-50" value="Topics" style="rounded=0;whiteSpace=wrap;html=1;container=0;fillColor=#bac8d3;strokeColor=#23445d;" vertex="1" parent="1">
          <mxGeometry x="806.6100000000001" y="5776.949999999999" width="176.79" height="20" as="geometry" />
        </mxCell>
        <mxCell id="Ad-eanvACwM0OZeesIjt-51" value="Sensirion_1" style="rounded=0;whiteSpace=wrap;html=1;container=0;fillColor=#bac8d3;strokeColor=#23445d;" vertex="1" parent="1">
          <mxGeometry x="823.94" y="5796.95" width="130" height="20" as="geometry" />
        </mxCell>
        <mxCell id="Ad-eanvACwM0OZeesIjt-52" value="Sensirion_2" style="rounded=0;whiteSpace=wrap;html=1;container=0;fillColor=#bac8d3;strokeColor=#23445d;" vertex="1" parent="1">
          <mxGeometry x="823.94" y="5816.95" width="130" height="20" as="geometry" />
        </mxCell>
        <mxCell id="Ad-eanvACwM0OZeesIjt-53" value="Co2 Concentration [ppm]" style="rounded=0;whiteSpace=wrap;html=1;container=0;fillColor=#bac8d3;strokeColor=#23445d;" vertex="1" parent="1">
          <mxGeometry x="806.6100000000001" y="5555.179999999999" width="176.79" height="18.82" as="geometry" />
        </mxCell>
        <mxCell id="Ad-eanvACwM0OZeesIjt-54" value="Temperature [ÂºC]" style="rounded=0;whiteSpace=wrap;html=1;container=0;fillColor=#bac8d3;strokeColor=#23445d;" vertex="1" parent="1">
          <mxGeometry x="806.6100000000001" y="5573.999999999999" width="176.79" height="20" as="geometry" />
        </mxCell>
        <mxCell id="Ad-eanvACwM0OZeesIjt-55" value="Humidity [%]" style="rounded=0;whiteSpace=wrap;html=1;container=0;fillColor=#bac8d3;strokeColor=#23445d;" vertex="1" parent="1">
          <mxGeometry x="806.6100000000001" y="5593.999999999999" width="176.79" height="20" as="geometry" />
        </mxCell>
        <mxCell id="Ad-eanvACwM0OZeesIjt-56" value="Temperature Data Validation" style="rounded=0;whiteSpace=wrap;html=1;container=0;fillColor=#bac8d3;strokeColor=#23445d;" vertex="1" parent="1">
          <mxGeometry x="806.6100000000001" y="5683.999999999999" width="176.79" height="20" as="geometry" />
        </mxCell>
        <mxCell id="Ad-eanvACwM0OZeesIjt-57" value="Humidity Data Validation&amp;nbsp;" style="rounded=0;whiteSpace=wrap;html=1;container=0;fillColor=#bac8d3;strokeColor=#23445d;" vertex="1" parent="1">
          <mxGeometry x="806.6100000000001" y="5703.999999999999" width="176.79" height="20" as="geometry" />
        </mxCell>
        <mxCell id="Ad-eanvACwM0OZeesIjt-58" value="Co2 Data Validation&lt;span style=&quot;white-space: pre;&quot;&gt;&#x9;&lt;/span&gt;" style="rounded=0;whiteSpace=wrap;html=1;align=center;container=0;fillColor=#bac8d3;strokeColor=#23445d;" vertex="1" parent="1">
          <mxGeometry x="806.6100000000001" y="5665.179999999999" width="176.79" height="18.82" as="geometry" />
        </mxCell>
        <mxCell id="Ad-eanvACwM0OZeesIjt-59" value="" style="rounded=0;whiteSpace=wrap;html=1;fillColor=#e1d5e7;strokeColor=#9673a6;" vertex="1" parent="1">
          <mxGeometry x="145" y="5510" width="280" height="170" as="geometry" />
        </mxCell>
        <mxCell id="Ad-eanvACwM0OZeesIjt-60" value="&lt;b&gt;&lt;font style=&quot;font-size: 17px;&quot;&gt;BLE GATT Server&lt;/font&gt;&lt;/b&gt;" style="rounded=0;whiteSpace=wrap;html=1;fillColor=#E5CCFF;" vertex="1" parent="1">
          <mxGeometry x="175" y="5536.29" width="220" height="40.04" as="geometry" />
        </mxCell>
        <mxCell id="Ad-eanvACwM0OZeesIjt-61" value="BLE Service UUID" style="rounded=0;whiteSpace=wrap;html=1;fillColor=none;" vertex="1" parent="1">
          <mxGeometry x="195" y="5581.3099999999995" width="180" height="40.04" as="geometry" />
        </mxCell>
        <mxCell id="Ad-eanvACwM0OZeesIjt-62" value="BLE Characteristic UUID" style="rounded=0;whiteSpace=wrap;html=1;fillColor=none;" vertex="1" parent="1">
          <mxGeometry x="195" y="5630.04" width="180" height="40.04" as="geometry" />
        </mxCell>
        <mxCell id="Ad-eanvACwM0OZeesIjt-63" value="" style="group;fillColor=#d0cee2;strokeColor=#56517e;container=0;" vertex="1" connectable="0" parent="1">
          <mxGeometry x="1320" y="5565" width="260" height="150" as="geometry" />
        </mxCell>
        <mxCell id="Ad-eanvACwM0OZeesIjt-64" value="&lt;b&gt;&lt;font style=&quot;font-size: 17px;&quot;&gt;Network Devices&lt;/font&gt;&lt;/b&gt;" style="rounded=0;whiteSpace=wrap;html=1;container=0;fillColor=#E6E6E6;" vertex="1" parent="1">
          <mxGeometry x="1340" y="5616.901538461538" width="220" height="46.199999999999996" as="geometry" />
        </mxCell>
        <mxCell id="Ad-eanvACwM0OZeesIjt-65" value="&lt;b&gt;MQQT BROKER&lt;/b&gt;" style="rounded=0;whiteSpace=wrap;html=1;container=0;fillColor=#CCE5FF;" vertex="1" parent="1">
          <mxGeometry x="1870" y="5495.18" width="300" height="40" as="geometry" />
        </mxCell>
        <mxCell id="Ad-eanvACwM0OZeesIjt-66" value="" style="shape=image;verticalLabelPosition=bottom;labelBackgroundColor=default;verticalAlign=top;aspect=fixed;imageAspect=0;image=data:image/png,iVBORw0KGgoAAAANSUhEUgAAASwAAACoCAMAAABt9SM9AAAAyVBMVEX/////00I2c6VkZGQ5cqJfX19aWlo6cqFXV1dTU1P/0TeHh4f/0CwaZ57/5qPp6emzs7P/+/CdnZ3/67f/11zJycnL1+P29vb/23FnZ2d7mbZrkbW0xthsbGwaZZz/4Ih9fX3c4+uqqqri4uK7u7vQ0ND/2WX/9NqNjY3w8PCXl5fCwsL/1En/+Oj/7sP/zyJbh7D/8tD/3n7/9uH/45b/6Ky7ytqXsMlGe6leibGKpsLR2+eiuM4qaZtNf6q2xtgAWpT/5JxISEiuetEyAAAKHklEQVR4nO2d+0ObOhTHwQIFpKWiFbW2Vlq0D7XqNl9Xtrv9/3/UTcK7JRC69MaGfP1hpaRpzsdzDnk6SRLaX7n2daQ566Z8YV2/vF787Iw6qUadt8Hrr2vWDftqml8OAJzgYFMBYDa4FE6W6OVxVMQpQ2z0+MK6kV9Dp0qnlFSozoHAJUkXIwJUCNfAZd1W1norD8B8NNqsW8tWjzVYAedqdKL/jNJVRxm8kYTjG+sGs1TE6g32pebv1V4WvLJuMTudhrCU6PK9EpbSYdpepvpEvtQ5jS7nFZGoHChBczsQlyGs5PqtyrGU4INhc9nqMgzD5HpQgUpRDgYMm8tWIaxRcq0IWHiFsDq/osvrsnGPoghYiFbU1yxPWQJWyCG4BBen1agELERrVDybtc5KwCJQCErAImYVSsAiZyU8i5xVo2Fl13JyKkbV6DC0TzH65x1Dq8GehdcgQ+pAeFa5Bhte1RaehdOgKAbbkWd1r2J9Pz5i3dLd6fTjEZfSCxJ80hXNuBaEdWamWt3csjZqJ3JfK8Y0ZX2GbM46k7OynlkbtgO91CNViCrMWXlYsilzF4sXpOPAIljtMlgAF2e0BjVZ5R2qnfxbCEu+Y20eVX3UZbX5HMTlLORaV6wNpKjTujGYTmC1c6wwsOQVR8/Ev4nBdgYVLgxl+YS1idT0SuE5CEm18bCsJ9ZGUpJLugWrDFYbwWrjYJlnrK2kpE8qjgUDEu9Z8oqT7sNWfrXODPlVW7mQMLDMY9ZmUlHp2mm5X7XXULXRnqNiWHzEYZ0ozDtVO8sNCe2iOSmCJVus7aSix239KocqpDWCi9dWMaxvrA2lIfJnITa1R2HYbr+D+u6LYXGRtMhTFia1xyEIoxDue3swi2F9Z20pBb2QpqyEzXqST1i1H2GFz8WwZB4yPGl+x8dgQitA222Ko5CPqYePrWBF4+d2mttBdkcHxH5gHIuLx2H53sdKx0rzVTs8TIdzLC5gEfUcCrJ6PmMFo2gL/BnOsWSLgwFP1RbkTWzR0ir4OYD/BkEw+vkZnXLqYh1Ltu7ZGkpDlbA6o+DxokQfn6fJmZ0SVrLFwQRgRX4fvf8iP750VsKKf1idR/Ij0EddC5uveIFV6laXmYJHeN3fPnRvVqWo+IBVkrNG8amdb90z0ypXBSmZj5H0T3wMRqcFHu4ss5pFNSwOnob4g3EX6P79SVnWrgOLg37WBTYIUdfpYUUHlSyvWFtKQbh1sPBUKj1WsszaUgrCzTqM4Fn6e4qsblhbSkG4pfuf8OYNhcQeiYv9DpiZUhSFt5RyO4L1g7WlNFQ8B49miK/oORYXfVLcHE0HjnMosuJiOgvzOFQ6LnadZitxssj6T0HSUhR4MvqJJiweVsKkot1ZSgjrmGIY8tAlhdpYslDowzJ52eB9PdpkRRvWioMph1DvO4fFjWOtuVa0bEMXFg8zDrEugnVWdGFZD6wtpKlgnRVVWBYPe0JSxYGo7AKWxcMQOqvTUZ5VG/4hKDqwVlyMoHO6DoIDJV5spudZpnXCTachq4tRQByGJpms1TMvhwXWZb8qo04A/4hyJwj+lUpgmV0iHXMxK4OVe51IKoHFx3QLXQlYNSRg1RA+wZ/gxM8YsK7qdx04mQ/dRlv0swQsAYtAAlYNEcIyMxuSBKxyWc/d73dxSR42NGwnEljmDZoEPbYErGpY8Ymc6BQKP3+SoK4IYJnJhLHccFjYM0up0pWIcBNJc2EReJaAFYtge1a6keik4WFIsOUoGQxGYJvbz5J+E8RhF5U8ith1GbeYpQj6DtbNw7en31HA8vJHVLbSE8luZTM5jGL9Zt1gpjqus7fbbG7/PdQTwRGmOCAbnN0jHd2QbZY0Lf5WnrfQ00m1d5mrqybn9qxur8wSXqZp3f0QqDK6/XEGj2BmJ/rQAr21urt6EKQ2dXR73P3+fHYTrnqdPV/9Pn7ictuHkJCQkJAQgSZOo//L6DpyVN0QsAiltVq6gEUoVcAil4BVQwJWleaT5CVVWBNv7C2nniSNbVpVMpa7HP/pJ1eUPWshSb1DyW1Nqovuhca6qu0UVm8+7fEC61Bt7RSWZ0+9pYBFoBmAJR32pwIWgUBVLvxx6VXJVDuFxZsaDcv1p57j9fp5z5/3cOWxsFy7oHc0mXoLp+djvhdz64vK7Q0NTVOBNMNJcU3HhpottvxjGGP4wvljADwtzTCMP6h4BMudjnUgY9yXcp9r6VHli7z7zb30exf7kaBcB5iuatBMYLSqxZ5hg7fPswX7Wks9hC8cWBAUBUphue7CQIaDG/phpvqhDt/RAbCWaizTG/OFASjphqFrsDJ9H559E2C5pju+7bp2DzZbi37HNjCyGJbv9YbAvEXP87wYlurpqqqfL5wZJKkltOaAnqr2JnN7OQa1G158owdQGQsf+Np8eQ7hG1/ftyYGMHQaX7nwdzwOX+NhSQU5qwVNR07pjqGjxTdboOAiej0F3xX71hBWlkTlDOKeUTRrNwLOpDrpJWQXGVoTlj5OTIcxOgxfLtQshCn0rbAY/J5M3UPoWjTs2anWYKHfcWhoPVjaNFewZSAvm6wxAU4XVQFvZOLOh5OtX36WYR0WajXKtfVg5fpZ4JMa6g0A9KqXuTHRY4xrsFx9H2FBK0L7/gLWGMBaRpXln3JqXPsaLHS9f7Dgcw4h+QtY8V3opvlMBHPYGL7gAxZMWijNUIAFuyK5KsIUD1/wActRoy4PBViOmnRE0jrConzA8mLLKcCaqeknQiXPD45gwWYLWBvaKazNMPT5CkOHYhhC8PkEv+QrwcOnITKHAqz+RtehF+PjA9YwHthRgGVvdEphFkNfxwUsF/bg0RsQlpYtWh8WJK/lZlthykIDIS5gLRNzIKycPVvAgn3QYeYGHBuGs69cwIJRGAWfkZ9LyMGakcFKPSn92DSufD9hjdNWe1o6cTdW8wYsMr0mLzedgIe1BK7USt739ZYaOdq+wmqpuhe129NbKRA4GRVNtQBN0ex6ci+JJyg8LOkw88vw9WTub49hqaox9pZLR4UXaY6B6Fr6ENzpzXRgdAYWmsYbxiBLYElj8EGtN7Ftfwb8yoifjfsKS104BlyO0sLZ4czNKVryAnc0VdVVJzd4GcOHpaHHCxYGDpaEFo/Q6o6qDxMextoKxd7AciTb0XSARDOGy9xde2bA93Vj6PlwNlNdpPeWQ0PXw6Ww8+FQzcKanQ9bafqfLPSw8ux6ogo+koUFr/cEFtCkP536RavJvj8J357nYYE+2WRCuNg38Zd9/+svdVVpowePF+h4kRblVDVggSeght380AjVgOVr2Y5oE1UDVk9t7cWGhN2pBizQtdKrS/Esclj++sOweSKGZavxYnJzRQqrB8d10+pyXIsElt1fwKFh41lVw+qfG2jTns7NUZrt5Q91vRTWBG1m1BfN7jTEsr3yMBweOtycdRASEvq/9R9YYveVSwMKYAAAAABJRU5ErkJggg==;" vertex="1" parent="1">
          <mxGeometry x="1816.97" y="5055.97" width="91.43" height="51.2" as="geometry" />
        </mxCell>
        <mxCell id="Ad-eanvACwM0OZeesIjt-67" value="" style="shape=image;verticalLabelPosition=bottom;labelBackgroundColor=default;verticalAlign=top;aspect=fixed;imageAspect=0;image=https://upload.wikimedia.org/wikipedia/commons/thumb/7/71/RabbitMQ_logo.svg/1280px-RabbitMQ_logo.svg.png;" vertex="1" parent="1">
          <mxGeometry x="1780.74" y="5298.43" width="127.66" height="20" as="geometry" />
        </mxCell>
        <mxCell id="Ad-eanvACwM0OZeesIjt-68" value="" style="shape=image;verticalLabelPosition=bottom;labelBackgroundColor=default;verticalAlign=top;aspect=fixed;imageAspect=0;image=https://upload.wikimedia.org/wikipedia/commons/thumb/7/71/RabbitMQ_logo.svg/1280px-RabbitMQ_logo.svg.png;" vertex="1" parent="1">
          <mxGeometry x="1020" y="5271.47" width="127.66" height="20" as="geometry" />
        </mxCell>
        <mxCell id="Ad-eanvACwM0OZeesIjt-69" value="Sensirion_n" style="rounded=0;whiteSpace=wrap;html=1;container=0;fillColor=#bac8d3;strokeColor=#23445d;" vertex="1" parent="1">
          <mxGeometry x="823.94" y="5860" width="130" height="20" as="geometry" />
        </mxCell>
        <mxCell id="Ad-eanvACwM0OZeesIjt-70" value="" style="sketch=0;pointerEvents=1;shadow=0;dashed=0;html=1;strokeColor=none;fillColor=#434445;aspect=fixed;labelPosition=center;verticalLabelPosition=bottom;verticalAlign=top;align=center;outlineConnect=0;shape=mxgraph.vvd.wi_fi;rotation=50;" vertex="1" parent="1">
          <mxGeometry x="1180" y="5190" width="50" height="50" as="geometry" />
        </mxCell>
        <mxCell id="Ad-eanvACwM0OZeesIjt-71" value="" style="sketch=0;pointerEvents=1;shadow=0;dashed=0;html=1;strokeColor=none;fillColor=#434445;aspect=fixed;labelPosition=center;verticalLabelPosition=bottom;verticalAlign=top;align=center;outlineConnect=0;shape=mxgraph.vvd.wi_fi;rotation=50;" vertex="1" parent="1">
          <mxGeometry x="1670" y="5195" width="50" height="50" as="geometry" />
        </mxCell>
        <mxCell id="Ad-eanvACwM0OZeesIjt-72" value="Sensirion_n" style="rounded=0;whiteSpace=wrap;html=1;container=0;fillColor=#bac8d3;strokeColor=#23445d;" vertex="1" parent="1">
          <mxGeometry x="1948.93" y="5680" width="130" height="20" as="geometry" />
        </mxCell>
        <mxCell id="Ad-eanvACwM0OZeesIjt-73" value="" style="shape=image;verticalLabelPosition=bottom;labelBackgroundColor=default;verticalAlign=top;aspect=fixed;imageAspect=0;image=https://cs.uicdn.net/fileadmin/og_image/logo.png;" vertex="1" parent="1">
          <mxGeometry x="1928.22" y="4920" width="171.43" height="90" as="geometry" />
        </mxCell>
      </root>
    </mxGraphModel>
  </diagram>
</mxfile>
